<svg width="396" height="36" viewBox="0 0 396 36" fill="none" xmlns="http://www.w3.org/2000/svg">
<path d="M28.9978 21.2663C28.9978 22.7453 28.7039 24.0445 28.1162 25.1638C27.5286 26.283 26.738 27.2091 25.7445 27.942C24.5691 28.8214 23.2748 29.4477 21.8616 29.8208C20.4623 30.1939 18.6782 30.3804 16.5094 30.3804H4V0.6196H15.0402C17.3349 0.6196 19.07 0.706211 20.2454 0.879433C21.4348 1.03933 22.5472 1.38577 23.5826 1.91876C24.702 2.49173 25.5346 3.2579 26.0803 4.21728C26.64 5.17666 26.9199 6.28261 26.9199 7.53514C26.9199 8.98753 26.5351 10.28 25.7655 11.4126C25.0099 12.5452 23.9604 13.378 22.6172 13.911V14.0709C24.5481 14.4573 26.0943 15.2502 27.2557 16.4494C28.4171 17.6353 28.9978 19.2409 28.9978 21.2663ZM18.9441 9.03417C18.9441 8.55448 18.8112 8.06147 18.5453 7.55513C18.2934 7.04879 17.8946 6.68236 17.3489 6.45584C16.8312 6.24264 16.2155 6.12938 15.5019 6.11605C14.8023 6.08941 13.7528 6.07608 12.3536 6.07608H11.8079V12.372H12.7943C14.1376 12.372 15.0751 12.3587 15.6069 12.332C16.1526 12.3054 16.7123 12.1655 17.286 11.9123C17.9156 11.6325 18.3494 11.2461 18.5873 10.7531C18.8252 10.26 18.9441 9.68708 18.9441 9.03417ZM20.9171 21.1264C20.9171 20.207 20.7212 19.4874 20.3294 18.9678C19.9376 18.4481 19.3499 18.055 18.5663 17.7885C18.0905 17.6153 17.4329 17.522 16.5933 17.5087C15.7678 17.4821 14.6554 17.4687 13.2561 17.4687H11.8079V24.9239H12.2276C14.2706 24.9239 15.6838 24.9106 16.4674 24.8839C17.251 24.8573 18.0486 24.6774 18.8601 24.3443C19.5738 24.0512 20.0915 23.6248 20.4133 23.0651C20.7491 22.4922 20.9171 21.8459 20.9171 21.1264Z" fill="black"/>
<path d="M62.4012 15.51C62.4012 20.3202 61.0509 24.1045 58.3503 26.8627C55.6498 29.6209 51.9487 31 47.2472 31C42.5317 31 38.8307 29.6076 36.1441 26.8227C33.4575 24.0245 32.1142 20.2536 32.1142 15.51C32.1142 10.7264 33.4575 6.94885 36.1441 4.17731C38.8307 1.39244 42.5317 0 47.2472 0C51.9487 0 55.6498 1.38577 58.3503 4.15732C61.0509 6.91554 62.4012 10.6998 62.4012 15.51ZM54.2995 15.49C54.2995 13.7178 54.1036 12.2121 53.7118 10.9729C53.334 9.7204 52.8233 8.69439 52.1796 7.89491C51.508 7.0821 50.7454 6.50247 49.8918 6.15603C49.0522 5.79626 48.1777 5.61638 47.2682 5.61638C46.3027 5.61638 45.4282 5.78294 44.6446 6.11605C43.861 6.43585 43.1054 7.01547 42.3778 7.85493C41.7341 8.62777 41.2094 9.65377 40.8036 10.9329C40.4118 12.2121 40.2159 13.7378 40.2159 15.51C40.2159 17.3355 40.4048 18.8545 40.7826 20.0671C41.1604 21.2663 41.6781 22.2723 42.3358 23.0851C43.0074 23.9112 43.77 24.5042 44.6236 24.864C45.4771 25.2104 46.3587 25.3836 47.2682 25.3836C48.1917 25.3836 49.0872 25.1971 49.9548 24.824C50.8223 24.4376 51.5709 23.8446 52.2006 23.0451C52.8722 22.179 53.39 21.173 53.7538 20.0271C54.1176 18.8678 54.2995 17.3555 54.2995 15.49Z" fill="black"/>
<path d="M93.9366 30.3804H84.8274L78.8246 20.8865L72.6958 30.3804H64.0064L74.1441 15.3901L64.4052 0.6196H73.4934L79.1184 9.59381L84.8904 0.6196H93.6008L83.799 15.0903L93.9366 30.3804Z" fill="black"/>
<path d="M140.55 15.51C140.55 20.3202 139.2 24.1045 136.5 26.8627C133.799 29.6209 130.098 31 125.396 31C120.681 31 116.98 29.6076 114.293 26.8227C111.607 24.0245 110.263 20.2536 110.263 15.51C110.263 10.7264 111.607 6.94885 114.293 4.17731C116.98 1.39244 120.681 0 125.396 0C130.098 0 133.799 1.38577 136.5 4.15732C139.2 6.91554 140.55 10.6998 140.55 15.51ZM132.449 15.49C132.449 13.7178 132.253 12.2121 131.861 10.9729C131.483 9.7204 130.972 8.69439 130.329 7.89491C129.657 7.0821 128.895 6.50247 128.041 6.15603C127.201 5.79626 126.327 5.61638 125.417 5.61638C124.452 5.61638 123.577 5.78294 122.794 6.11605C122.01 6.43585 121.255 7.01547 120.527 7.85493C119.883 8.62777 119.359 9.65377 118.953 10.9329C118.561 12.2121 118.365 13.7378 118.365 15.51C118.365 17.3355 118.554 18.8545 118.932 20.0671C119.31 21.2663 119.827 22.2723 120.485 23.0851C121.157 23.9112 121.919 24.5042 122.773 24.864C123.626 25.2104 124.508 25.3836 125.417 25.3836C126.341 25.3836 127.236 25.1971 128.104 24.824C128.972 24.4376 129.72 23.8446 130.35 23.0451C131.021 22.179 131.539 21.173 131.903 20.0271C132.267 18.8678 132.449 17.3555 132.449 15.49Z" fill="black"/>
<path d="M166.996 6.29594H153.878V11.9123H165.946V17.5887H153.878V30.3804H146.07V0.6196H166.996V6.29594Z" fill="black"/>
<path d="M192.832 6.29594H179.714V11.9123H191.783V17.5887H179.714V30.3804H171.906V0.6196H192.832V6.29594Z" fill="black"/>
<path d="M213.316 30.3804H196.483V25.1838H200.975V5.81625H196.483V0.6196H213.316V5.81625H208.825V25.1838H213.316V30.3804Z" fill="black"/>
<path d="M232.856 30.96C228.169 30.96 224.447 29.6142 221.69 26.9226C218.934 24.2177 217.555 20.4202 217.555 15.53C217.555 10.813 218.934 7.05545 221.69 4.25725C224.461 1.44573 228.19 0.0399742 232.877 0.0399742C234.123 0.0399742 235.242 0.106598 236.235 0.239845C237.229 0.373093 238.18 0.559639 239.09 0.799484C239.804 0.999355 240.58 1.27251 241.42 1.61896C242.259 1.9654 242.938 2.26521 243.456 2.51838V9.6138H242.658C242.28 9.294 241.804 8.91425 241.231 8.47453C240.657 8.02149 240.006 7.58178 239.279 7.15538C238.551 6.72899 237.747 6.36922 236.865 6.07608C235.998 5.76961 235.088 5.61638 234.137 5.61638C233.003 5.61638 231.961 5.7896 231.009 6.13604C230.072 6.46916 229.176 7.05545 228.323 7.89491C227.539 8.65442 226.895 9.68042 226.392 10.9729C225.902 12.2654 225.657 13.7911 225.657 15.55C225.657 17.4021 225.916 18.9611 226.434 20.227C226.951 21.4795 227.63 22.4922 228.47 23.265C229.281 24.0112 230.184 24.5508 231.177 24.8839C232.185 25.2171 233.185 25.3836 234.179 25.3836C235.214 25.3836 236.2 25.2237 237.138 24.9039C238.075 24.5708 238.866 24.2044 239.51 23.8046C240.209 23.3916 240.825 22.9718 241.357 22.5455C241.888 22.1191 242.35 21.7393 242.742 21.4062H243.456V28.4017C242.882 28.6548 242.217 28.948 241.462 29.2811C240.706 29.6009 239.929 29.8741 239.132 30.1006C238.152 30.3804 237.236 30.5936 236.382 30.7402C235.529 30.8867 234.353 30.96 232.856 30.96Z" fill="black"/>
<path d="M248.954 30.3804V0.6196H270.09V6.29594H256.762V11.5126H269.04V17.1889H256.762V24.7041H270.09V30.3804H248.954Z" fill="black"/>
<path d="M306.45 21.646C306.45 22.9385 306.219 24.1577 305.757 25.3037C305.296 26.4363 304.596 27.4023 303.658 28.2018C302.609 29.1079 301.371 29.7741 299.943 30.2005C298.516 30.6269 296.872 30.8401 295.011 30.8401C293.626 30.8401 292.324 30.7868 291.107 30.6802C289.89 30.5869 288.819 30.447 287.896 30.2605V24.2244H288.609C289.239 24.4642 289.897 24.6907 290.582 24.9039C291.268 25.1038 292.15 25.2037 293.227 25.2037C294.612 25.2037 295.676 25.0172 296.417 24.6441C297.173 24.271 297.705 23.7513 298.012 23.0851C298.334 22.4322 298.509 21.6793 298.537 20.8266C298.579 19.9605 298.6 19.0011 298.6 17.9484V6.01612H291.443V0.6196H306.45V21.646Z" fill="#7F170E"/>
<path d="M313.826 30.3804V0.6196H334.962V6.29594H321.634V11.5126H333.913V17.1889H321.634V24.7041H334.962V30.3804H313.826Z" fill="#7F170E"/>
<path d="M369.477 15.53C369.477 18.3015 368.84 20.7866 367.567 22.9852C366.294 25.1704 364.685 26.8493 362.74 28.0219C361.117 29.0213 359.346 29.6675 357.43 29.9607C355.527 30.2405 353.498 30.3804 351.343 30.3804H341.562V0.6196H351.259C353.456 0.6196 355.513 0.752848 357.43 1.01934C359.346 1.28584 361.145 1.93209 362.824 2.95809C364.881 4.21062 366.504 5.90286 367.693 8.03482C368.882 10.1535 369.477 12.6518 369.477 15.53ZM361.417 15.47C361.417 13.5113 361.061 11.839 360.347 10.4533C359.647 9.05416 358.563 7.96153 357.094 7.17537C356.03 6.61573 354.911 6.30926 353.735 6.25596C352.574 6.20267 351.182 6.17602 349.559 6.17602H349.412V24.804H349.559C351.322 24.804 352.805 24.7773 354.008 24.7241C355.226 24.6574 356.38 24.2977 357.471 23.6447C358.759 22.8719 359.738 21.8059 360.41 20.4468C361.082 19.0877 361.417 17.4288 361.417 15.47Z" fill="#7F170E"/>
<path d="M391 30.3804H374.167V25.1838H378.659V5.81625H374.167V0.6196H391V5.81625H386.508V25.1838H391V30.3804Z" fill="#7F170E"/>
<path d="M396 33V36H0V33H396Z" fill="black"/>
</svg>
