<svg width="240" height="103" viewBox="0 0 240 103" fill="none" xmlns="http://www.w3.org/2000/svg">
<g clip-path="url(#clip0_8508_36)">
<rect width="240" height="103" fill="white"/>
<rect y="88" width="239" height="15" fill="#F4F4FE"/>
<rect width="121" height="12" fill="#7F170E"/>
<path d="M14.9619 2.72949L13.0039 10H10.9287L9.625 5.26367L8.35547 10H6.28027L4.32227 2.72949H6.28027L7.39844 7.73438L8.73633 2.72949H10.6064L11.8809 7.73438L13.0527 2.72949H14.9619ZM21.4756 10H16.2168V2.72949H21.4756V4.13574H18.082V5.39062H21.2314V6.79688H18.082V8.59375H21.4756V10ZM28.3115 10H23.0527V2.72949H28.3115V4.13574H24.918V5.39062H28.0674V6.79688H24.918V8.59375H28.3115V10ZM36.6758 10H34.376L32.2031 7.08984L31.7637 7.62207V10H29.8887V2.72949H31.7637V6.02051L34.3613 2.72949H36.5342L33.6924 6.09375L36.6758 10ZM42.8623 10H37.6035V2.72949H42.8623V4.13574H39.4688V5.39062H42.6182V6.79688H39.4688V8.59375H42.8623V10ZM51.0508 10H49.2441L46.1582 5.00977V10H44.4395V2.72949H46.6807L49.332 6.89453V2.72949H51.0508V10ZM59.7764 6.37207C59.7764 7.04915 59.6217 7.65625 59.3125 8.19336C59.0033 8.72721 58.6126 9.13737 58.1406 9.42383C57.7858 9.63867 57.3968 9.78841 56.9736 9.87305C56.5505 9.95768 56.0492 10 55.4697 10H52.9062V2.72949H55.543C56.1354 2.72949 56.6465 2.77995 57.0762 2.88086C57.5059 2.97852 57.8672 3.11849 58.1602 3.30078C58.6615 3.60677 59.0553 4.02018 59.3418 4.54102C59.6315 5.05859 59.7764 5.66895 59.7764 6.37207ZM57.8379 6.35742C57.8379 5.87891 57.75 5.47038 57.5742 5.13184C57.4017 4.79004 57.1266 4.52311 56.749 4.33105C56.557 4.23665 56.36 4.17318 56.1582 4.14062C55.9596 4.10482 55.6585 4.08691 55.2549 4.08691H54.7812V8.6377H55.2549C55.7008 8.6377 56.028 8.61816 56.2363 8.5791C56.4447 8.53678 56.6481 8.46191 56.8467 8.35449C57.1885 8.15918 57.4391 7.89876 57.5986 7.57324C57.7581 7.24447 57.8379 6.83919 57.8379 6.35742ZM71.3438 10H69.4053L68.9023 8.53027H66.207L65.7041 10H63.8145L66.5 2.72949H68.6582L71.3438 10ZM68.4482 7.19727L67.5547 4.58984L66.6611 7.19727H68.4482ZM75.6748 10.1416C75.1344 10.1416 74.6348 10.0618 74.1758 9.90234C73.7201 9.74284 73.3278 9.50521 72.999 9.18945C72.6702 8.8737 72.4147 8.47982 72.2324 8.00781C72.0534 7.53581 71.9639 6.99056 71.9639 6.37207C71.9639 5.7959 72.0501 5.27344 72.2227 4.80469C72.3952 4.33594 72.6458 3.93392 72.9746 3.59863C73.2904 3.27637 73.681 3.02734 74.1465 2.85156C74.6152 2.67578 75.1263 2.58789 75.6797 2.58789C75.9857 2.58789 76.2607 2.60579 76.5049 2.6416C76.7523 2.67415 76.9801 2.7181 77.1885 2.77344C77.4066 2.83529 77.6035 2.90527 77.7793 2.9834C77.9583 3.05827 78.1146 3.12826 78.248 3.19336V4.95605H78.0332C77.9421 4.87793 77.8265 4.78516 77.6865 4.67773C77.5498 4.57031 77.3936 4.46452 77.2178 4.36035C77.0387 4.25618 76.8451 4.16829 76.6367 4.09668C76.4284 4.02507 76.2054 3.98926 75.9678 3.98926C75.7041 3.98926 75.4535 4.03158 75.2158 4.11621C74.9782 4.19759 74.7585 4.33431 74.5566 4.52637C74.3646 4.71191 74.2083 4.95768 74.0879 5.26367C73.9707 5.56966 73.9121 5.94076 73.9121 6.37695C73.9121 6.83268 73.9756 7.21354 74.1025 7.51953C74.2327 7.82552 74.3955 8.06641 74.5908 8.24219C74.7894 8.42122 75.0107 8.5498 75.2549 8.62793C75.499 8.7028 75.7399 8.74023 75.9775 8.74023C76.2054 8.74023 76.43 8.70605 76.6514 8.6377C76.876 8.56934 77.0827 8.47656 77.2715 8.35938C77.431 8.26497 77.5791 8.16406 77.7158 8.05664C77.8525 7.94922 77.9648 7.85645 78.0527 7.77832H78.248V9.5166C78.0658 9.59798 77.8916 9.67448 77.7256 9.74609C77.5596 9.81771 77.3854 9.87956 77.2031 9.93164C76.9655 10 76.7425 10.0521 76.5342 10.0879C76.3258 10.1237 76.0394 10.1416 75.6748 10.1416ZM85.3135 4.13574H83.043V10H81.168V4.13574H78.8975V2.72949H85.3135V4.13574ZM92.8086 7.36816C92.8086 8.2666 92.5352 8.95508 91.9883 9.43359C91.4414 9.91211 90.6357 10.1514 89.5713 10.1514C88.5068 10.1514 87.7012 9.91211 87.1543 9.43359C86.6107 8.95508 86.3389 8.26823 86.3389 7.37305V2.72949H88.2236V7.26562C88.2236 7.77018 88.3294 8.14616 88.541 8.39355C88.7526 8.64095 89.096 8.76465 89.5713 8.76465C90.04 8.76465 90.3818 8.64583 90.5967 8.4082C90.8148 8.17057 90.9238 7.78971 90.9238 7.26562V2.72949H92.8086V7.36816ZM101.285 10H99.3467L98.8438 8.53027H96.1484L95.6455 10H93.7559L96.4414 2.72949H98.5996L101.285 10ZM98.3896 7.19727L97.4961 4.58984L96.6025 7.19727H98.3896ZM107.574 10H102.33V2.72949H104.205V8.59375H107.574V10ZM114.527 7.71484C114.527 8.43099 114.223 9.01367 113.614 9.46289C113.009 9.90885 112.185 10.1318 111.144 10.1318C110.541 10.1318 110.016 10.0798 109.566 9.97559C109.12 9.86816 108.702 9.73307 108.312 9.57031V7.82715H108.517C108.904 8.13639 109.337 8.37402 109.815 8.54004C110.297 8.70605 110.759 8.78906 111.202 8.78906C111.316 8.78906 111.466 8.7793 111.651 8.75977C111.837 8.74023 111.988 8.70768 112.105 8.66211C112.249 8.60352 112.366 8.53027 112.457 8.44238C112.551 8.35449 112.599 8.22428 112.599 8.05176C112.599 7.89225 112.53 7.75553 112.394 7.6416C112.26 7.52441 112.063 7.4349 111.803 7.37305C111.529 7.30794 111.24 7.24772 110.934 7.19238C110.631 7.13379 110.346 7.06055 110.079 6.97266C109.467 6.77409 109.026 6.50553 108.756 6.16699C108.489 5.8252 108.355 5.40202 108.355 4.89746C108.355 4.22038 108.658 3.66862 109.264 3.24219C109.872 2.8125 110.654 2.59766 111.607 2.59766C112.086 2.59766 112.558 2.64486 113.023 2.73926C113.492 2.8304 113.897 2.94596 114.239 3.08594V4.76074H114.039C113.746 4.52637 113.386 4.33105 112.96 4.1748C112.537 4.0153 112.104 3.93555 111.661 3.93555C111.505 3.93555 111.349 3.94694 111.192 3.96973C111.039 3.98926 110.891 4.02832 110.748 4.08691C110.621 4.13574 110.512 4.21061 110.421 4.31152C110.33 4.40918 110.284 4.52148 110.284 4.64844C110.284 4.84049 110.357 4.98861 110.504 5.09277C110.65 5.19368 110.927 5.28646 111.334 5.37109C111.601 5.42643 111.856 5.48014 112.101 5.53223C112.348 5.58431 112.613 5.65592 112.896 5.74707C113.453 5.92936 113.863 6.17839 114.127 6.49414C114.394 6.80664 114.527 7.21354 114.527 7.71484Z" fill="white"/>
<path d="M71.6758 96.3242L65.1523 99.0342V97.6328L69.7178 95.7676L65.1523 93.9023V92.501L71.6758 95.2109V96.3242ZM80.1914 91.7295L77.54 99H75.4404L72.7891 91.7295H74.7568L76.5146 96.8369L78.2725 91.7295H80.1914ZM85.167 99H80.9092V97.7109H82.1006V93.0186H80.9092V91.7295H85.167V93.0186H83.9756V97.7109H85.167V99ZM91.9541 99H86.6953V91.7295H91.9541V93.1357H88.5605V94.3906H91.71V95.7969H88.5605V97.5938H91.9541V99ZM103.565 91.7295L101.607 99H99.5322L98.2285 94.2637L96.959 99H94.8838L92.9258 91.7295H94.8838L96.002 96.7344L97.3398 91.7295H99.21L100.484 96.7344L101.656 91.7295H103.565ZM113.448 93.1357H110.104V94.4883H113.204V95.8945H110.104V99H108.238V91.7295H113.448V93.1357ZM121.109 96.3682C121.109 97.2666 120.836 97.9551 120.289 98.4336C119.742 98.9121 118.937 99.1514 117.872 99.1514C116.808 99.1514 116.002 98.9121 115.455 98.4336C114.911 97.9551 114.64 97.2682 114.64 96.373V91.7295H116.524V96.2656C116.524 96.7702 116.63 97.1462 116.842 97.3936C117.053 97.641 117.397 97.7646 117.872 97.7646C118.341 97.7646 118.683 97.6458 118.897 97.4082C119.116 97.1706 119.225 96.7897 119.225 96.2656V91.7295H121.109V96.3682ZM128.111 99H122.867V91.7295H124.742V97.5938H128.111V99ZM134.488 99H129.244V91.7295H131.119V97.5938H134.488V99ZM149.073 91.7295L147.115 99H145.04L143.736 94.2637L142.467 99H140.392L138.434 91.7295H140.392L141.51 96.7344L142.848 91.7295H144.718L145.992 96.7344L147.164 91.7295H149.073ZM155.587 99H150.328V91.7295H155.587V93.1357H152.193V94.3906H155.343V95.7969H152.193V97.5938H155.587V99ZM162.423 99H157.164V91.7295H162.423V93.1357H159.029V94.3906H162.179V95.7969H159.029V97.5938H162.423V99ZM170.787 99H168.487L166.314 96.0898L165.875 96.6221V99H164V91.7295H165.875V95.0205L168.473 91.7295H170.646L167.804 95.0938L170.787 99ZM176.974 99H171.715V91.7295H176.974V93.1357H173.58V94.3906H176.729V95.7969H173.58V97.5938H176.974V99ZM185.162 99H183.355L180.27 94.0098V99H178.551V91.7295H180.792L183.443 95.8945V91.7295H185.162V99ZM193.888 95.3721C193.888 96.0492 193.733 96.6562 193.424 97.1934C193.115 97.7272 192.724 98.1374 192.252 98.4238C191.897 98.6387 191.508 98.7884 191.085 98.873C190.662 98.9577 190.16 99 189.581 99H187.018V91.7295H189.654C190.247 91.7295 190.758 91.7799 191.188 91.8809C191.617 91.9785 191.979 92.1185 192.271 92.3008C192.773 92.6068 193.167 93.0202 193.453 93.541C193.743 94.0586 193.888 94.6689 193.888 95.3721ZM191.949 95.3574C191.949 94.8789 191.861 94.4704 191.686 94.1318C191.513 93.79 191.238 93.5231 190.86 93.3311C190.668 93.2367 190.471 93.1732 190.27 93.1406C190.071 93.1048 189.77 93.0869 189.366 93.0869H188.893V97.6377H189.366C189.812 97.6377 190.139 97.6182 190.348 97.5791C190.556 97.5368 190.759 97.4619 190.958 97.3545C191.3 97.1592 191.55 96.8988 191.71 96.5732C191.869 96.2445 191.949 95.8392 191.949 95.3574ZM202.022 99.1416C201.482 99.1416 200.982 99.0618 200.523 98.9023C200.068 98.7428 199.675 98.5052 199.347 98.1895C199.018 97.8737 198.762 97.4798 198.58 97.0078C198.401 96.5358 198.312 95.9906 198.312 95.3721C198.312 94.7959 198.398 94.2734 198.57 93.8047C198.743 93.3359 198.993 92.9339 199.322 92.5986C199.638 92.2764 200.029 92.0273 200.494 91.8516C200.963 91.6758 201.474 91.5879 202.027 91.5879C202.333 91.5879 202.608 91.6058 202.853 91.6416C203.1 91.6742 203.328 91.7181 203.536 91.7734C203.754 91.8353 203.951 91.9053 204.127 91.9834C204.306 92.0583 204.462 92.1283 204.596 92.1934V93.9561H204.381C204.29 93.8779 204.174 93.7852 204.034 93.6777C203.897 93.5703 203.741 93.4645 203.565 93.3604C203.386 93.2562 203.193 93.1683 202.984 93.0967C202.776 93.0251 202.553 92.9893 202.315 92.9893C202.052 92.9893 201.801 93.0316 201.563 93.1162C201.326 93.1976 201.106 93.3343 200.904 93.5264C200.712 93.7119 200.556 93.9577 200.436 94.2637C200.318 94.5697 200.26 94.9408 200.26 95.377C200.26 95.8327 200.323 96.2135 200.45 96.5195C200.58 96.8255 200.743 97.0664 200.938 97.2422C201.137 97.4212 201.358 97.5498 201.603 97.6279C201.847 97.7028 202.088 97.7402 202.325 97.7402C202.553 97.7402 202.778 97.7061 202.999 97.6377C203.224 97.5693 203.43 97.4766 203.619 97.3594C203.779 97.265 203.927 97.1641 204.063 97.0566C204.2 96.9492 204.312 96.8564 204.4 96.7783H204.596V98.5166C204.413 98.598 204.239 98.6745 204.073 98.7461C203.907 98.8177 203.733 98.8796 203.551 98.9316C203.313 99 203.09 99.0521 202.882 99.0879C202.674 99.1237 202.387 99.1416 202.022 99.1416ZM212.491 99H210.616V95.7969H207.848V99H205.973V91.7295H207.848V94.3906H210.616V91.7295H212.491V99ZM221.07 99H219.132L218.629 97.5303H215.934L215.431 99H213.541L216.227 91.7295H218.385L221.07 99ZM218.175 96.1973L217.281 93.5898L216.388 96.1973H218.175ZM226.192 93.9561C226.192 93.7738 226.155 93.6175 226.08 93.4873C226.005 93.3571 225.877 93.2546 225.694 93.1797C225.567 93.1276 225.419 93.0967 225.25 93.0869C225.081 93.0739 224.884 93.0674 224.659 93.0674H223.98V95.0254H224.557C224.856 95.0254 225.107 95.0107 225.309 94.9814C225.51 94.9521 225.68 94.8854 225.816 94.7812C225.947 94.6803 226.041 94.5697 226.1 94.4492C226.161 94.3255 226.192 94.1611 226.192 93.9561ZM229.117 99H226.827L224.845 96.334H223.98V99H222.115V91.7295H225.26C225.689 91.7295 226.059 91.7539 226.368 91.8027C226.677 91.8516 226.967 91.9574 227.237 92.1201C227.511 92.2829 227.727 92.4945 227.887 92.7549C228.049 93.012 228.131 93.3359 228.131 93.7266C228.131 94.2637 228.006 94.7015 227.755 95.04C227.507 95.3786 227.153 95.6602 226.69 95.8848L229.117 99ZM235.626 93.1357H233.355V99H231.48V93.1357H229.21V91.7295H235.626V93.1357Z" fill="#00007B"/>
<path d="M26.5498 24H24.6846V19.1318L23.3369 22.291H22.043L20.6953 19.1318V24H18.9277V16.7295H21.1055L22.7412 20.377L24.3721 16.7295H26.5498V24ZM33.918 21.2607C33.918 22.1624 33.6543 22.8737 33.127 23.3945C32.6029 23.9121 31.8656 24.1709 30.915 24.1709C29.9645 24.1709 29.2256 23.9121 28.6982 23.3945C28.1742 22.8737 27.9121 22.1624 27.9121 21.2607C27.9121 20.3525 28.1758 19.6396 28.7031 19.1221C29.2337 18.6045 29.971 18.3457 30.915 18.3457C31.8721 18.3457 32.611 18.6061 33.1318 19.127C33.6559 19.6478 33.918 20.359 33.918 21.2607ZM31.7549 22.5938C31.8688 22.4538 31.9535 22.2861 32.0088 22.0908C32.0674 21.8923 32.0967 21.6188 32.0967 21.2705C32.0967 20.9482 32.0674 20.6781 32.0088 20.46C31.9502 20.2419 31.8688 20.0677 31.7646 19.9375C31.6605 19.804 31.5352 19.7096 31.3887 19.6543C31.2422 19.599 31.0843 19.5713 30.915 19.5713C30.7458 19.5713 30.5944 19.5941 30.4609 19.6396C30.3307 19.6852 30.2054 19.7764 30.085 19.9131C29.9775 20.04 29.8913 20.2142 29.8262 20.4355C29.7643 20.6569 29.7334 20.9352 29.7334 21.2705C29.7334 21.57 29.7611 21.8304 29.8164 22.0518C29.8717 22.2699 29.9531 22.4456 30.0605 22.5791C30.1647 22.7061 30.2884 22.7988 30.4316 22.8574C30.5781 22.916 30.7441 22.9453 30.9297 22.9453C31.0892 22.9453 31.2406 22.9193 31.3838 22.8672C31.5303 22.8118 31.654 22.7207 31.7549 22.5938ZM40.7002 18.5166L38.5859 24H36.5938L34.4941 18.5166H36.3545L37.624 22.2861L38.8789 18.5166H40.7002ZM43.4395 24H41.6816V18.5166H43.4395V24ZM43.4883 17.7354H41.6328V16.4023H43.4883V17.7354ZM50.5 21.583H46.4766C46.5026 22.0127 46.6654 22.3415 46.9648 22.5693C47.2676 22.7972 47.7119 22.9111 48.2979 22.9111C48.6689 22.9111 49.0286 22.8444 49.377 22.7109C49.7253 22.5775 50.0003 22.4342 50.2021 22.2812H50.3975V23.6924C50.0003 23.8519 49.626 23.9674 49.2744 24.0391C48.9229 24.1107 48.5339 24.1465 48.1074 24.1465C47.0072 24.1465 46.1641 23.8991 45.5781 23.4043C44.9922 22.9095 44.6992 22.2048 44.6992 21.29C44.6992 20.3851 44.9759 19.6689 45.5293 19.1416C46.0859 18.611 46.8477 18.3457 47.8145 18.3457C48.7064 18.3457 49.377 18.5719 49.8262 19.0244C50.2754 19.4736 50.5 20.1214 50.5 20.9678V21.583ZM48.752 20.5527C48.7422 20.1849 48.651 19.9082 48.4785 19.7227C48.306 19.5371 48.0374 19.4443 47.6729 19.4443C47.3343 19.4443 47.056 19.5322 46.8379 19.708C46.6198 19.8838 46.4977 20.1654 46.4717 20.5527H48.752ZM60.9443 18.1357H58.6738V24H56.7988V18.1357H54.5283V16.7295H60.9443V18.1357ZM63.7324 24H61.9746V18.5166H63.7324V24ZM63.7812 17.7354H61.9258V16.4023H63.7812V17.7354ZM68.8984 23.9512C68.7096 24 68.5094 24.0374 68.2979 24.0635C68.0863 24.0928 67.8275 24.1074 67.5215 24.1074C66.8379 24.1074 66.3285 23.9691 65.9932 23.6924C65.6611 23.4157 65.4951 22.9421 65.4951 22.2715V19.708H64.7725V18.5166H65.4951V16.9492H67.2529V18.5166H68.8984V19.708H67.2529V21.6514C67.2529 21.8434 67.2546 22.0111 67.2578 22.1543C67.2611 22.2975 67.2871 22.4261 67.3359 22.54C67.3815 22.654 67.4613 22.7451 67.5752 22.8135C67.6924 22.8786 67.8617 22.9111 68.083 22.9111C68.1742 22.9111 68.293 22.8916 68.4395 22.8525C68.5892 22.8135 68.6934 22.7777 68.752 22.7451H68.8984V23.9512ZM71.7109 24H69.9531V16.4023H71.7109V24ZM78.7715 21.583H74.748C74.7741 22.0127 74.9368 22.3415 75.2363 22.5693C75.5391 22.7972 75.9834 22.9111 76.5693 22.9111C76.9404 22.9111 77.3001 22.8444 77.6484 22.7109C77.9967 22.5775 78.2718 22.4342 78.4736 22.2812H78.6689V23.6924C78.2718 23.8519 77.8975 23.9674 77.5459 24.0391C77.1943 24.1107 76.8053 24.1465 76.3789 24.1465C75.2786 24.1465 74.4355 23.8991 73.8496 23.4043C73.2637 22.9095 72.9707 22.2048 72.9707 21.29C72.9707 20.3851 73.2474 19.6689 73.8008 19.1416C74.3574 18.611 75.1191 18.3457 76.0859 18.3457C76.9779 18.3457 77.6484 18.5719 78.0977 19.0244C78.5469 19.4736 78.7715 20.1214 78.7715 20.9678V21.583ZM77.0234 20.5527C77.0137 20.1849 76.9225 19.9082 76.75 19.7227C76.5775 19.5371 76.3089 19.4443 75.9443 19.4443C75.6058 19.4443 75.3275 19.5322 75.1094 19.708C74.8913 19.8838 74.7692 20.1654 74.7432 20.5527H77.0234Z" fill="#00007B"/>
<path d="M26.5498 39H24.6846V34.1318L23.3369 37.291H22.043L20.6953 34.1318V39H18.9277V31.7295H21.1055L22.7412 35.377L24.3721 31.7295H26.5498V39ZM33.918 36.2607C33.918 37.1624 33.6543 37.8737 33.127 38.3945C32.6029 38.9121 31.8656 39.1709 30.915 39.1709C29.9645 39.1709 29.2256 38.9121 28.6982 38.3945C28.1742 37.8737 27.9121 37.1624 27.9121 36.2607C27.9121 35.3525 28.1758 34.6396 28.7031 34.1221C29.2337 33.6045 29.971 33.3457 30.915 33.3457C31.8721 33.3457 32.611 33.6061 33.1318 34.127C33.6559 34.6478 33.918 35.359 33.918 36.2607ZM31.7549 37.5938C31.8688 37.4538 31.9535 37.2861 32.0088 37.0908C32.0674 36.8923 32.0967 36.6188 32.0967 36.2705C32.0967 35.9482 32.0674 35.6781 32.0088 35.46C31.9502 35.2419 31.8688 35.0677 31.7646 34.9375C31.6605 34.804 31.5352 34.7096 31.3887 34.6543C31.2422 34.599 31.0843 34.5713 30.915 34.5713C30.7458 34.5713 30.5944 34.5941 30.4609 34.6396C30.3307 34.6852 30.2054 34.7764 30.085 34.9131C29.9775 35.04 29.8913 35.2142 29.8262 35.4355C29.7643 35.6569 29.7334 35.9352 29.7334 36.2705C29.7334 36.57 29.7611 36.8304 29.8164 37.0518C29.8717 37.2699 29.9531 37.4456 30.0605 37.5791C30.1647 37.7061 30.2884 37.7988 30.4316 37.8574C30.5781 37.916 30.7441 37.9453 30.9297 37.9453C31.0892 37.9453 31.2406 37.9193 31.3838 37.8672C31.5303 37.8118 31.654 37.7207 31.7549 37.5938ZM40.7002 33.5166L38.5859 39H36.5938L34.4941 33.5166H36.3545L37.624 37.2861L38.8789 33.5166H40.7002ZM43.4395 39H41.6816V33.5166H43.4395V39ZM43.4883 32.7354H41.6328V31.4023H43.4883V32.7354ZM50.5 36.583H46.4766C46.5026 37.0127 46.6654 37.3415 46.9648 37.5693C47.2676 37.7972 47.7119 37.9111 48.2979 37.9111C48.6689 37.9111 49.0286 37.8444 49.377 37.7109C49.7253 37.5775 50.0003 37.4342 50.2021 37.2812H50.3975V38.6924C50.0003 38.8519 49.626 38.9674 49.2744 39.0391C48.9229 39.1107 48.5339 39.1465 48.1074 39.1465C47.0072 39.1465 46.1641 38.8991 45.5781 38.4043C44.9922 37.9095 44.6992 37.2048 44.6992 36.29C44.6992 35.3851 44.9759 34.6689 45.5293 34.1416C46.0859 33.611 46.8477 33.3457 47.8145 33.3457C48.7064 33.3457 49.377 33.5719 49.8262 34.0244C50.2754 34.4736 50.5 35.1214 50.5 35.9678V36.583ZM48.752 35.5527C48.7422 35.1849 48.651 34.9082 48.4785 34.7227C48.306 34.5371 48.0374 34.4443 47.6729 34.4443C47.3343 34.4443 47.056 34.5322 46.8379 34.708C46.6198 34.8838 46.4977 35.1654 46.4717 35.5527H48.752ZM60.9443 33.1357H58.6738V39H56.7988V33.1357H54.5283V31.7295H60.9443V33.1357ZM63.7324 39H61.9746V33.5166H63.7324V39ZM63.7812 32.7354H61.9258V31.4023H63.7812V32.7354ZM68.8984 38.9512C68.7096 39 68.5094 39.0374 68.2979 39.0635C68.0863 39.0928 67.8275 39.1074 67.5215 39.1074C66.8379 39.1074 66.3285 38.9691 65.9932 38.6924C65.6611 38.4157 65.4951 37.9421 65.4951 37.2715V34.708H64.7725V33.5166H65.4951V31.9492H67.2529V33.5166H68.8984V34.708H67.2529V36.6514C67.2529 36.8434 67.2546 37.0111 67.2578 37.1543C67.2611 37.2975 67.2871 37.4261 67.3359 37.54C67.3815 37.654 67.4613 37.7451 67.5752 37.8135C67.6924 37.8786 67.8617 37.9111 68.083 37.9111C68.1742 37.9111 68.293 37.8916 68.4395 37.8525C68.5892 37.8135 68.6934 37.7777 68.752 37.7451H68.8984V38.9512ZM71.7109 39H69.9531V31.4023H71.7109V39ZM78.7715 36.583H74.748C74.7741 37.0127 74.9368 37.3415 75.2363 37.5693C75.5391 37.7972 75.9834 37.9111 76.5693 37.9111C76.9404 37.9111 77.3001 37.8444 77.6484 37.7109C77.9967 37.5775 78.2718 37.4342 78.4736 37.2812H78.6689V38.6924C78.2718 38.8519 77.8975 38.9674 77.5459 39.0391C77.1943 39.1107 76.8053 39.1465 76.3789 39.1465C75.2786 39.1465 74.4355 38.8991 73.8496 38.4043C73.2637 37.9095 72.9707 37.2048 72.9707 36.29C72.9707 35.3851 73.2474 34.6689 73.8008 34.1416C74.3574 33.611 75.1191 33.3457 76.0859 33.3457C76.9779 33.3457 77.6484 33.5719 78.0977 34.0244C78.5469 34.4736 78.7715 35.1214 78.7715 35.9678V36.583ZM77.0234 35.5527C77.0137 35.1849 76.9225 34.9082 76.75 34.7227C76.5775 34.5371 76.3089 34.4443 75.9443 34.4443C75.6058 34.4443 75.3275 34.5322 75.1094 34.708C74.8913 34.8838 74.7692 35.1654 74.7432 35.5527H77.0234Z" fill="#00007B"/>
<path d="M26.5498 54H24.6846V49.1318L23.3369 52.291H22.043L20.6953 49.1318V54H18.9277V46.7295H21.1055L22.7412 50.377L24.3721 46.7295H26.5498V54ZM33.918 51.2607C33.918 52.1624 33.6543 52.8737 33.127 53.3945C32.6029 53.9121 31.8656 54.1709 30.915 54.1709C29.9645 54.1709 29.2256 53.9121 28.6982 53.3945C28.1742 52.8737 27.9121 52.1624 27.9121 51.2607C27.9121 50.3525 28.1758 49.6396 28.7031 49.1221C29.2337 48.6045 29.971 48.3457 30.915 48.3457C31.8721 48.3457 32.611 48.6061 33.1318 49.127C33.6559 49.6478 33.918 50.359 33.918 51.2607ZM31.7549 52.5938C31.8688 52.4538 31.9535 52.2861 32.0088 52.0908C32.0674 51.8923 32.0967 51.6188 32.0967 51.2705C32.0967 50.9482 32.0674 50.6781 32.0088 50.46C31.9502 50.2419 31.8688 50.0677 31.7646 49.9375C31.6605 49.804 31.5352 49.7096 31.3887 49.6543C31.2422 49.599 31.0843 49.5713 30.915 49.5713C30.7458 49.5713 30.5944 49.5941 30.4609 49.6396C30.3307 49.6852 30.2054 49.7764 30.085 49.9131C29.9775 50.04 29.8913 50.2142 29.8262 50.4355C29.7643 50.6569 29.7334 50.9352 29.7334 51.2705C29.7334 51.57 29.7611 51.8304 29.8164 52.0518C29.8717 52.2699 29.9531 52.4456 30.0605 52.5791C30.1647 52.7061 30.2884 52.7988 30.4316 52.8574C30.5781 52.916 30.7441 52.9453 30.9297 52.9453C31.0892 52.9453 31.2406 52.9193 31.3838 52.8672C31.5303 52.8118 31.654 52.7207 31.7549 52.5938ZM40.7002 48.5166L38.5859 54H36.5938L34.4941 48.5166H36.3545L37.624 52.2861L38.8789 48.5166H40.7002ZM43.4395 54H41.6816V48.5166H43.4395V54ZM43.4883 47.7354H41.6328V46.4023H43.4883V47.7354ZM50.5 51.583H46.4766C46.5026 52.0127 46.6654 52.3415 46.9648 52.5693C47.2676 52.7972 47.7119 52.9111 48.2979 52.9111C48.6689 52.9111 49.0286 52.8444 49.377 52.7109C49.7253 52.5775 50.0003 52.4342 50.2021 52.2812H50.3975V53.6924C50.0003 53.8519 49.626 53.9674 49.2744 54.0391C48.9229 54.1107 48.5339 54.1465 48.1074 54.1465C47.0072 54.1465 46.1641 53.8991 45.5781 53.4043C44.9922 52.9095 44.6992 52.2048 44.6992 51.29C44.6992 50.3851 44.9759 49.6689 45.5293 49.1416C46.0859 48.611 46.8477 48.3457 47.8145 48.3457C48.7064 48.3457 49.377 48.5719 49.8262 49.0244C50.2754 49.4736 50.5 50.1214 50.5 50.9678V51.583ZM48.752 50.5527C48.7422 50.1849 48.651 49.9082 48.4785 49.7227C48.306 49.5371 48.0374 49.4443 47.6729 49.4443C47.3343 49.4443 47.056 49.5322 46.8379 49.708C46.6198 49.8838 46.4977 50.1654 46.4717 50.5527H48.752ZM60.9443 48.1357H58.6738V54H56.7988V48.1357H54.5283V46.7295H60.9443V48.1357ZM63.7324 54H61.9746V48.5166H63.7324V54ZM63.7812 47.7354H61.9258V46.4023H63.7812V47.7354ZM68.8984 53.9512C68.7096 54 68.5094 54.0374 68.2979 54.0635C68.0863 54.0928 67.8275 54.1074 67.5215 54.1074C66.8379 54.1074 66.3285 53.9691 65.9932 53.6924C65.6611 53.4157 65.4951 52.9421 65.4951 52.2715V49.708H64.7725V48.5166H65.4951V46.9492H67.2529V48.5166H68.8984V49.708H67.2529V51.6514C67.2529 51.8434 67.2546 52.0111 67.2578 52.1543C67.2611 52.2975 67.2871 52.4261 67.3359 52.54C67.3815 52.654 67.4613 52.7451 67.5752 52.8135C67.6924 52.8786 67.8617 52.9111 68.083 52.9111C68.1742 52.9111 68.293 52.8916 68.4395 52.8525C68.5892 52.8135 68.6934 52.7777 68.752 52.7451H68.8984V53.9512ZM71.7109 54H69.9531V46.4023H71.7109V54ZM78.7715 51.583H74.748C74.7741 52.0127 74.9368 52.3415 75.2363 52.5693C75.5391 52.7972 75.9834 52.9111 76.5693 52.9111C76.9404 52.9111 77.3001 52.8444 77.6484 52.7109C77.9967 52.5775 78.2718 52.4342 78.4736 52.2812H78.6689V53.6924C78.2718 53.8519 77.8975 53.9674 77.5459 54.0391C77.1943 54.1107 76.8053 54.1465 76.3789 54.1465C75.2786 54.1465 74.4355 53.8991 73.8496 53.4043C73.2637 52.9095 72.9707 52.2048 72.9707 51.29C72.9707 50.3851 73.2474 49.6689 73.8008 49.1416C74.3574 48.611 75.1191 48.3457 76.0859 48.3457C76.9779 48.3457 77.6484 48.5719 78.0977 49.0244C78.5469 49.4736 78.7715 50.1214 78.7715 50.9678V51.583ZM77.0234 50.5527C77.0137 50.1849 76.9225 49.9082 76.75 49.7227C76.5775 49.5371 76.3089 49.4443 75.9443 49.4443C75.6058 49.4443 75.3275 49.5322 75.1094 49.708C74.8913 49.8838 74.7692 50.1654 74.7432 50.5527H77.0234Z" fill="#00007B"/>
<path d="M26.5498 69H24.6846V64.1318L23.3369 67.291H22.043L20.6953 64.1318V69H18.9277V61.7295H21.1055L22.7412 65.377L24.3721 61.7295H26.5498V69ZM33.918 66.2607C33.918 67.1624 33.6543 67.8737 33.127 68.3945C32.6029 68.9121 31.8656 69.1709 30.915 69.1709C29.9645 69.1709 29.2256 68.9121 28.6982 68.3945C28.1742 67.8737 27.9121 67.1624 27.9121 66.2607C27.9121 65.3525 28.1758 64.6396 28.7031 64.1221C29.2337 63.6045 29.971 63.3457 30.915 63.3457C31.8721 63.3457 32.611 63.6061 33.1318 64.127C33.6559 64.6478 33.918 65.359 33.918 66.2607ZM31.7549 67.5938C31.8688 67.4538 31.9535 67.2861 32.0088 67.0908C32.0674 66.8923 32.0967 66.6188 32.0967 66.2705C32.0967 65.9482 32.0674 65.6781 32.0088 65.46C31.9502 65.2419 31.8688 65.0677 31.7646 64.9375C31.6605 64.804 31.5352 64.7096 31.3887 64.6543C31.2422 64.599 31.0843 64.5713 30.915 64.5713C30.7458 64.5713 30.5944 64.5941 30.4609 64.6396C30.3307 64.6852 30.2054 64.7764 30.085 64.9131C29.9775 65.04 29.8913 65.2142 29.8262 65.4355C29.7643 65.6569 29.7334 65.9352 29.7334 66.2705C29.7334 66.57 29.7611 66.8304 29.8164 67.0518C29.8717 67.2699 29.9531 67.4456 30.0605 67.5791C30.1647 67.7061 30.2884 67.7988 30.4316 67.8574C30.5781 67.916 30.7441 67.9453 30.9297 67.9453C31.0892 67.9453 31.2406 67.9193 31.3838 67.8672C31.5303 67.8118 31.654 67.7207 31.7549 67.5938ZM40.7002 63.5166L38.5859 69H36.5938L34.4941 63.5166H36.3545L37.624 67.2861L38.8789 63.5166H40.7002ZM43.4395 69H41.6816V63.5166H43.4395V69ZM43.4883 62.7354H41.6328V61.4023H43.4883V62.7354ZM50.5 66.583H46.4766C46.5026 67.0127 46.6654 67.3415 46.9648 67.5693C47.2676 67.7972 47.7119 67.9111 48.2979 67.9111C48.6689 67.9111 49.0286 67.8444 49.377 67.7109C49.7253 67.5775 50.0003 67.4342 50.2021 67.2812H50.3975V68.6924C50.0003 68.8519 49.626 68.9674 49.2744 69.0391C48.9229 69.1107 48.5339 69.1465 48.1074 69.1465C47.0072 69.1465 46.1641 68.8991 45.5781 68.4043C44.9922 67.9095 44.6992 67.2048 44.6992 66.29C44.6992 65.3851 44.9759 64.6689 45.5293 64.1416C46.0859 63.611 46.8477 63.3457 47.8145 63.3457C48.7064 63.3457 49.377 63.5719 49.8262 64.0244C50.2754 64.4736 50.5 65.1214 50.5 65.9678V66.583ZM48.752 65.5527C48.7422 65.1849 48.651 64.9082 48.4785 64.7227C48.306 64.5371 48.0374 64.4443 47.6729 64.4443C47.3343 64.4443 47.056 64.5322 46.8379 64.708C46.6198 64.8838 46.4977 65.1654 46.4717 65.5527H48.752ZM60.9443 63.1357H58.6738V69H56.7988V63.1357H54.5283V61.7295H60.9443V63.1357ZM63.7324 69H61.9746V63.5166H63.7324V69ZM63.7812 62.7354H61.9258V61.4023H63.7812V62.7354ZM68.8984 68.9512C68.7096 69 68.5094 69.0374 68.2979 69.0635C68.0863 69.0928 67.8275 69.1074 67.5215 69.1074C66.8379 69.1074 66.3285 68.9691 65.9932 68.6924C65.6611 68.4157 65.4951 67.9421 65.4951 67.2715V64.708H64.7725V63.5166H65.4951V61.9492H67.2529V63.5166H68.8984V64.708H67.2529V66.6514C67.2529 66.8434 67.2546 67.0111 67.2578 67.1543C67.2611 67.2975 67.2871 67.4261 67.3359 67.54C67.3815 67.654 67.4613 67.7451 67.5752 67.8135C67.6924 67.8786 67.8617 67.9111 68.083 67.9111C68.1742 67.9111 68.293 67.8916 68.4395 67.8525C68.5892 67.8135 68.6934 67.7777 68.752 67.7451H68.8984V68.9512ZM71.7109 69H69.9531V61.4023H71.7109V69ZM78.7715 66.583H74.748C74.7741 67.0127 74.9368 67.3415 75.2363 67.5693C75.5391 67.7972 75.9834 67.9111 76.5693 67.9111C76.9404 67.9111 77.3001 67.8444 77.6484 67.7109C77.9967 67.5775 78.2718 67.4342 78.4736 67.2812H78.6689V68.6924C78.2718 68.8519 77.8975 68.9674 77.5459 69.0391C77.1943 69.1107 76.8053 69.1465 76.3789 69.1465C75.2786 69.1465 74.4355 68.8991 73.8496 68.4043C73.2637 67.9095 72.9707 67.2048 72.9707 66.29C72.9707 65.3851 73.2474 64.6689 73.8008 64.1416C74.3574 63.611 75.1191 63.3457 76.0859 63.3457C76.9779 63.3457 77.6484 63.5719 78.0977 64.0244C78.5469 64.4736 78.7715 65.1214 78.7715 65.9678V66.583ZM77.0234 65.5527C77.0137 65.1849 76.9225 64.9082 76.75 64.7227C76.5775 64.5371 76.3089 64.4443 75.9443 64.4443C75.6058 64.4443 75.3275 64.5322 75.1094 64.708C74.8913 64.8838 74.7692 65.1654 74.7432 65.5527H77.0234Z" fill="#00007B"/>
<path d="M26.5498 84H24.6846V79.1318L23.3369 82.291H22.043L20.6953 79.1318V84H18.9277V76.7295H21.1055L22.7412 80.377L24.3721 76.7295H26.5498V84ZM33.918 81.2607C33.918 82.1624 33.6543 82.8737 33.127 83.3945C32.6029 83.9121 31.8656 84.1709 30.915 84.1709C29.9645 84.1709 29.2256 83.9121 28.6982 83.3945C28.1742 82.8737 27.9121 82.1624 27.9121 81.2607C27.9121 80.3525 28.1758 79.6396 28.7031 79.1221C29.2337 78.6045 29.971 78.3457 30.915 78.3457C31.8721 78.3457 32.611 78.6061 33.1318 79.127C33.6559 79.6478 33.918 80.359 33.918 81.2607ZM31.7549 82.5938C31.8688 82.4538 31.9535 82.2861 32.0088 82.0908C32.0674 81.8923 32.0967 81.6188 32.0967 81.2705C32.0967 80.9482 32.0674 80.6781 32.0088 80.46C31.9502 80.2419 31.8688 80.0677 31.7646 79.9375C31.6605 79.804 31.5352 79.7096 31.3887 79.6543C31.2422 79.599 31.0843 79.5713 30.915 79.5713C30.7458 79.5713 30.5944 79.5941 30.4609 79.6396C30.3307 79.6852 30.2054 79.7764 30.085 79.9131C29.9775 80.04 29.8913 80.2142 29.8262 80.4355C29.7643 80.6569 29.7334 80.9352 29.7334 81.2705C29.7334 81.57 29.7611 81.8304 29.8164 82.0518C29.8717 82.2699 29.9531 82.4456 30.0605 82.5791C30.1647 82.7061 30.2884 82.7988 30.4316 82.8574C30.5781 82.916 30.7441 82.9453 30.9297 82.9453C31.0892 82.9453 31.2406 82.9193 31.3838 82.8672C31.5303 82.8118 31.654 82.7207 31.7549 82.5938ZM40.7002 78.5166L38.5859 84H36.5938L34.4941 78.5166H36.3545L37.624 82.2861L38.8789 78.5166H40.7002ZM43.4395 84H41.6816V78.5166H43.4395V84ZM43.4883 77.7354H41.6328V76.4023H43.4883V77.7354ZM50.5 81.583H46.4766C46.5026 82.0127 46.6654 82.3415 46.9648 82.5693C47.2676 82.7972 47.7119 82.9111 48.2979 82.9111C48.6689 82.9111 49.0286 82.8444 49.377 82.7109C49.7253 82.5775 50.0003 82.4342 50.2021 82.2812H50.3975V83.6924C50.0003 83.8519 49.626 83.9674 49.2744 84.0391C48.9229 84.1107 48.5339 84.1465 48.1074 84.1465C47.0072 84.1465 46.1641 83.8991 45.5781 83.4043C44.9922 82.9095 44.6992 82.2048 44.6992 81.29C44.6992 80.3851 44.9759 79.6689 45.5293 79.1416C46.0859 78.611 46.8477 78.3457 47.8145 78.3457C48.7064 78.3457 49.377 78.5719 49.8262 79.0244C50.2754 79.4736 50.5 80.1214 50.5 80.9678V81.583ZM48.752 80.5527C48.7422 80.1849 48.651 79.9082 48.4785 79.7227C48.306 79.5371 48.0374 79.4443 47.6729 79.4443C47.3343 79.4443 47.056 79.5322 46.8379 79.708C46.6198 79.8838 46.4977 80.1654 46.4717 80.5527H48.752ZM60.9443 78.1357H58.6738V84H56.7988V78.1357H54.5283V76.7295H60.9443V78.1357ZM63.7324 84H61.9746V78.5166H63.7324V84ZM63.7812 77.7354H61.9258V76.4023H63.7812V77.7354ZM68.8984 83.9512C68.7096 84 68.5094 84.0374 68.2979 84.0635C68.0863 84.0928 67.8275 84.1074 67.5215 84.1074C66.8379 84.1074 66.3285 83.9691 65.9932 83.6924C65.6611 83.4157 65.4951 82.9421 65.4951 82.2715V79.708H64.7725V78.5166H65.4951V76.9492H67.2529V78.5166H68.8984V79.708H67.2529V81.6514C67.2529 81.8434 67.2546 82.0111 67.2578 82.1543C67.2611 82.2975 67.2871 82.4261 67.3359 82.54C67.3815 82.654 67.4613 82.7451 67.5752 82.8135C67.6924 82.8786 67.8617 82.9111 68.083 82.9111C68.1742 82.9111 68.293 82.8916 68.4395 82.8525C68.5892 82.8135 68.6934 82.7777 68.752 82.7451H68.8984V83.9512ZM71.7109 84H69.9531V76.4023H71.7109V84ZM78.7715 81.583H74.748C74.7741 82.0127 74.9368 82.3415 75.2363 82.5693C75.5391 82.7972 75.9834 82.9111 76.5693 82.9111C76.9404 82.9111 77.3001 82.8444 77.6484 82.7109C77.9967 82.5775 78.2718 82.4342 78.4736 82.2812H78.6689V83.6924C78.2718 83.8519 77.8975 83.9674 77.5459 84.0391C77.1943 84.1107 76.8053 84.1465 76.3789 84.1465C75.2786 84.1465 74.4355 83.8991 73.8496 83.4043C73.2637 82.9095 72.9707 82.2048 72.9707 81.29C72.9707 80.3851 73.2474 79.6689 73.8008 79.1416C74.3574 78.611 75.1191 78.3457 76.0859 78.3457C76.9779 78.3457 77.6484 78.5719 78.0977 79.0244C78.5469 79.4736 78.7715 80.1214 78.7715 80.9678V81.583ZM77.0234 80.5527C77.0137 80.1849 76.9225 79.9082 76.75 79.7227C76.5775 79.5371 76.3089 79.4443 75.9443 79.4443C75.6058 79.4443 75.3275 79.5322 75.1094 79.708C74.8913 79.8838 74.7692 80.1654 74.7432 80.5527H77.0234Z" fill="#00007B"/>
<line x1="0.000181567" y1="12.4136" x2="239" y2="12.5004" stroke="#DCDCDC"/>
<line y1="27.5" x2="239" y2="27.5" stroke="#DCDCDC"/>
<line y1="42.5" x2="239" y2="42.5" stroke="#DCDCDC"/>
<line y1="57.5" x2="239" y2="57.5" stroke="#DCDCDC"/>
<line y1="72.5" x2="239" y2="72.5" stroke="#DCDCDC"/>
<line y1="88.5" x2="239" y2="88.5" stroke="#DCDCDC"/>
<line y1="102.5" x2="239" y2="102.5" stroke="#DCDCDC"/>
<line x1="0.5" y1="13" x2="0.5" y2="103" stroke="#DCDCDC"/>
<line x1="16.5" y1="13" x2="16.5" y2="89" stroke="#DCDCDC"/>
<line x1="157.5" y1="12" x2="157.5" y2="89" stroke="#DCDCDC"/>
<path d="M177.547 22.1445C177.547 22.623 177.363 23.0348 176.995 23.3799C176.631 23.7217 176.17 23.9268 175.613 23.9951V25.7627H175.057V24.0195C174.705 24.0163 174.35 23.9756 173.992 23.8975C173.637 23.8193 173.328 23.7152 173.064 23.585V22.5986H173.138C173.395 22.7907 173.685 22.9469 174.007 23.0674C174.329 23.1878 174.679 23.2643 175.057 23.2969V21.1875C174.975 21.168 174.876 21.1452 174.759 21.1191C174.642 21.0898 174.542 21.0622 174.461 21.0361C173.973 20.9027 173.623 20.7008 173.411 20.4307C173.203 20.1605 173.099 19.8285 173.099 19.4346C173.099 18.9723 173.279 18.5703 173.641 18.2285C174.002 17.8867 174.474 17.6882 175.057 17.6328V16.3047H175.613V17.623C175.91 17.6328 176.215 17.6751 176.531 17.75C176.85 17.8216 177.111 17.9014 177.312 17.9893V18.9561H177.239C177.011 18.7998 176.761 18.6631 176.487 18.5459C176.217 18.4287 175.926 18.3571 175.613 18.3311V20.4307C175.721 20.4535 175.82 20.4779 175.911 20.5039C176.006 20.5267 176.087 20.5462 176.155 20.5625C176.598 20.6667 176.94 20.8473 177.181 21.1045C177.425 21.3617 177.547 21.7083 177.547 22.1445ZM175.057 20.3574V18.3359C174.764 18.362 174.518 18.458 174.319 18.624C174.121 18.7868 174.021 19.0146 174.021 19.3076C174.021 19.5973 174.093 19.8219 174.236 19.9814C174.383 20.1377 174.656 20.263 175.057 20.3574ZM176.624 22.2715C176.624 21.9655 176.546 21.7393 176.39 21.5928C176.233 21.4463 175.975 21.3356 175.613 21.2607V23.2871C175.945 23.248 176.196 23.1488 176.365 22.9893C176.538 22.8265 176.624 22.5872 176.624 22.2715ZM184.004 17.8184L180.859 24H179.819L183.149 17.584H179.389V16.7295H184.004V17.8184ZM190.363 17.8184L187.218 24H186.178L189.508 17.584H185.748V16.7295H190.363V17.8184ZM193.333 22.6084L191.966 25.8066H191.253L192.112 22.6084H193.333ZM199.872 20.3623C199.872 21.6676 199.682 22.6263 199.301 23.2383C198.924 23.847 198.339 24.1514 197.548 24.1514C196.747 24.1514 196.16 23.8405 195.786 23.2188C195.411 22.597 195.224 21.6481 195.224 20.3721C195.224 19.0602 195.413 18.1016 195.79 17.4961C196.171 16.8874 196.757 16.583 197.548 16.583C198.349 16.583 198.937 16.8971 199.311 17.5254C199.685 18.1536 199.872 19.0993 199.872 20.3623ZM198.622 22.5791C198.717 22.3382 198.784 22.0339 198.823 21.666C198.862 21.2982 198.881 20.8636 198.881 20.3623C198.881 19.8643 198.862 19.4313 198.823 19.0635C198.784 18.6956 198.715 18.3896 198.618 18.1455C198.52 17.8981 198.385 17.7109 198.212 17.584C198.043 17.4538 197.822 17.3887 197.548 17.3887C197.278 17.3887 197.055 17.4538 196.879 17.584C196.707 17.7109 196.57 17.9014 196.469 18.1553C196.371 18.4027 196.305 18.7152 196.269 19.0928C196.233 19.4704 196.215 19.8968 196.215 20.3721C196.215 20.8799 196.23 21.3047 196.259 21.6465C196.292 21.9883 196.36 22.2943 196.464 22.5645C196.559 22.8151 196.692 23.0088 196.865 23.1455C197.04 23.279 197.268 23.3457 197.548 23.3457C197.818 23.3457 198.04 23.2822 198.212 23.1553C198.388 23.0251 198.525 22.833 198.622 22.5791ZM206.31 21.6416C206.31 22.016 206.248 22.361 206.124 22.6768C206 22.9925 205.834 23.2562 205.626 23.4678C205.408 23.6924 205.164 23.8633 204.894 23.9805C204.623 24.0944 204.326 24.1514 204 24.1514C203.671 24.1514 203.372 24.096 203.102 23.9854C202.835 23.8747 202.599 23.7103 202.394 23.4922C202.143 23.2285 201.946 22.877 201.803 22.4375C201.663 21.9948 201.593 21.4512 201.593 20.8066C201.593 20.1751 201.658 19.6055 201.788 19.0977C201.918 18.5866 202.118 18.1423 202.389 17.7646C202.652 17.3968 202.993 17.1104 203.409 16.9053C203.826 16.6969 204.308 16.5928 204.854 16.5928C205.017 16.5928 205.169 16.6009 205.309 16.6172C205.449 16.6335 205.572 16.6595 205.68 16.6953V17.6279H205.636C205.548 17.5791 205.421 17.5352 205.255 17.4961C205.089 17.4538 204.911 17.4326 204.723 17.4326C204.117 17.4326 203.627 17.6377 203.253 18.0479C202.882 18.4548 202.662 19.0602 202.594 19.8643C202.825 19.7015 203.062 19.5762 203.307 19.4883C203.551 19.4004 203.818 19.3564 204.107 19.3564C204.391 19.3564 204.638 19.3857 204.85 19.4443C205.064 19.4997 205.287 19.6136 205.519 19.7861C205.785 19.988 205.984 20.2435 206.114 20.5527C206.244 20.862 206.31 21.2249 206.31 21.6416ZM205.318 21.6807C205.318 21.3812 205.279 21.1305 205.201 20.9287C205.123 20.7269 204.996 20.5544 204.82 20.4111C204.693 20.307 204.549 20.2386 204.386 20.2061C204.226 20.1735 204.062 20.1572 203.893 20.1572C203.665 20.1572 203.443 20.1914 203.229 20.2598C203.014 20.3281 202.802 20.4274 202.594 20.5576C202.587 20.6292 202.582 20.6992 202.579 20.7676C202.576 20.8327 202.574 20.9157 202.574 21.0166C202.574 21.5212 202.623 21.9281 202.721 22.2373C202.822 22.5465 202.945 22.7809 203.092 22.9404C203.232 23.0934 203.375 23.2008 203.521 23.2627C203.671 23.3245 203.832 23.3555 204.005 23.3555C204.396 23.3555 204.711 23.2155 204.952 22.9355C205.196 22.6556 205.318 22.2373 205.318 21.6807ZM212.185 24H208.64V23.2578H209.959V18.3848H208.64V17.7207C209.138 17.7207 209.504 17.6507 209.739 17.5107C209.976 17.3675 210.11 17.099 210.139 16.7051H210.896V23.2578H212.185V24ZM216.337 22.6084L214.97 25.8066H214.257L215.116 22.6084H216.337ZM221.886 19.7178C221.886 19.223 221.84 18.821 221.749 18.5117C221.658 18.1992 221.532 17.9583 221.373 17.7891C221.23 17.6328 221.085 17.5254 220.938 17.4668C220.792 17.4082 220.631 17.3789 220.455 17.3789C220.054 17.3789 219.735 17.5221 219.498 17.8086C219.26 18.0951 219.141 18.5101 219.141 19.0537C219.141 19.3597 219.18 19.612 219.259 19.8105C219.337 20.0091 219.464 20.18 219.639 20.3232C219.763 20.4242 219.903 20.4925 220.059 20.5283C220.216 20.5609 220.383 20.5771 220.562 20.5771C220.771 20.5771 220.995 20.5413 221.236 20.4697C221.477 20.3949 221.687 20.2972 221.866 20.1768C221.869 20.1279 221.873 20.0645 221.876 19.9863C221.882 19.9049 221.886 19.8154 221.886 19.7178ZM218.15 19.0928C218.15 18.7184 218.21 18.3766 218.331 18.0674C218.455 17.7581 218.622 17.4912 218.834 17.2666C219.036 17.0518 219.281 16.8841 219.571 16.7637C219.864 16.6432 220.16 16.583 220.46 16.583C220.795 16.583 221.098 16.64 221.368 16.7539C221.641 16.8646 221.877 17.0257 222.076 17.2373C222.327 17.5042 222.52 17.8542 222.657 18.2871C222.797 18.7201 222.867 19.2669 222.867 19.9277C222.867 20.5299 222.799 21.1012 222.662 21.6416C222.528 22.1787 222.33 22.6247 222.066 22.9795C221.786 23.3571 221.449 23.6452 221.055 23.8438C220.665 24.0423 220.181 24.1416 219.605 24.1416C219.475 24.1416 219.337 24.1335 219.19 24.1172C219.044 24.1042 218.907 24.0781 218.78 24.0391V23.1064H218.829C218.91 23.152 219.037 23.196 219.21 23.2383C219.382 23.2806 219.558 23.3018 219.737 23.3018C220.375 23.3018 220.876 23.0918 221.241 22.6719C221.606 22.252 221.812 21.6514 221.861 20.8701C221.601 21.0459 221.352 21.1745 221.114 21.2559C220.88 21.3372 220.624 21.3779 220.347 21.3779C220.077 21.3779 219.832 21.3486 219.61 21.29C219.389 21.2314 219.166 21.1175 218.941 20.9482C218.681 20.7497 218.484 20.499 218.35 20.1963C218.217 19.8903 218.15 19.5225 218.15 19.0928ZM229.119 21.6855C229.119 22.0371 229.062 22.3626 228.948 22.6621C228.837 22.9616 228.681 23.2204 228.479 23.4385C228.274 23.6598 228.018 23.834 227.712 23.9609C227.41 24.0879 227.069 24.1514 226.692 24.1514C226.343 24.1514 226 24.1123 225.662 24.0342C225.326 23.9593 225.035 23.86 224.787 23.7363V22.7061H224.856C224.931 22.7614 225.038 22.8249 225.178 22.8965C225.318 22.9648 225.473 23.0299 225.642 23.0918C225.834 23.1602 226.01 23.2139 226.169 23.2529C226.329 23.2887 226.508 23.3066 226.706 23.3066C226.902 23.3066 227.092 23.2725 227.278 23.2041C227.463 23.1325 227.623 23.0186 227.756 22.8623C227.877 22.7191 227.968 22.5514 228.03 22.3594C228.095 22.1673 228.127 21.9411 228.127 21.6807C228.127 21.4235 228.092 21.2119 228.02 21.0459C227.952 20.8799 227.851 20.7432 227.717 20.6357C227.577 20.512 227.405 20.4258 227.2 20.377C226.998 20.3249 226.772 20.2988 226.521 20.2988C226.257 20.2988 225.992 20.32 225.725 20.3623C225.458 20.4014 225.245 20.4388 225.085 20.4746V16.7295H229.075V17.584H226.028V19.5176C226.145 19.5046 226.26 19.4948 226.374 19.4883C226.488 19.4818 226.593 19.4785 226.687 19.4785C227.058 19.4785 227.372 19.5094 227.629 19.5713C227.886 19.6331 228.134 19.7536 228.371 19.9326C228.612 20.1149 228.796 20.3428 228.923 20.6162C229.053 20.8896 229.119 21.2461 229.119 21.6855ZM233.036 17.4229C232.86 17.4229 232.685 17.444 232.509 17.4863C232.333 17.5286 232.16 17.584 231.991 17.6523C231.835 17.7174 231.698 17.7858 231.581 17.8574C231.467 17.929 231.365 17.9958 231.273 18.0576H231.215V17.0273C231.426 16.9134 231.713 16.8109 232.074 16.7197C232.439 16.6253 232.785 16.5781 233.114 16.5781C233.443 16.5781 233.729 16.6123 233.974 16.6807C234.221 16.7458 234.444 16.8483 234.643 16.9883C234.857 17.1445 235.019 17.3333 235.126 17.5547C235.237 17.776 235.292 18.0348 235.292 18.3311C235.292 18.7314 235.16 19.083 234.896 19.3857C234.633 19.6885 234.317 19.8805 233.949 19.9619V20.0303C234.102 20.0596 234.265 20.11 234.438 20.1816C234.613 20.2533 234.776 20.359 234.926 20.499C235.076 20.639 235.198 20.8197 235.292 21.041C235.386 21.2591 235.434 21.526 235.434 21.8418C235.434 22.1706 235.377 22.4733 235.263 22.75C235.152 23.0234 234.994 23.266 234.789 23.4775C234.577 23.6989 234.322 23.8665 234.022 23.9805C233.723 24.0944 233.383 24.1514 233.002 24.1514C232.637 24.1514 232.276 24.1074 231.918 24.0195C231.56 23.9316 231.259 23.8258 231.015 23.7021V22.6719H231.083C231.288 22.8216 231.563 22.9648 231.908 23.1016C232.253 23.2383 232.598 23.3066 232.943 23.3066C233.142 23.3066 233.34 23.2757 233.539 23.2139C233.741 23.1488 233.909 23.0446 234.042 22.9014C234.172 22.7581 234.271 22.6003 234.34 22.4277C234.408 22.2552 234.442 22.0371 234.442 21.7734C234.442 21.5098 234.403 21.2933 234.325 21.124C234.25 20.9548 234.145 20.8213 234.008 20.7236C233.871 20.626 233.708 20.5592 233.52 20.5234C233.334 20.4844 233.132 20.4648 232.914 20.4648H232.499V19.6543H232.821C233.261 19.6543 233.617 19.5501 233.891 19.3418C234.167 19.1335 234.306 18.8307 234.306 18.4336C234.306 18.2513 234.27 18.0951 234.198 17.9648C234.127 17.8314 234.035 17.7256 233.925 17.6475C233.801 17.5628 233.664 17.5042 233.515 17.4717C233.365 17.4391 233.205 17.4229 233.036 17.4229Z" fill="black"/>
<path d="M177.547 37.1445C177.547 37.623 177.363 38.0348 176.995 38.3799C176.631 38.7217 176.17 38.9268 175.613 38.9951V40.7627H175.057V39.0195C174.705 39.0163 174.35 38.9756 173.992 38.8975C173.637 38.8193 173.328 38.7152 173.064 38.585V37.5986H173.138C173.395 37.7907 173.685 37.9469 174.007 38.0674C174.329 38.1878 174.679 38.2643 175.057 38.2969V36.1875C174.975 36.168 174.876 36.1452 174.759 36.1191C174.642 36.0898 174.542 36.0622 174.461 36.0361C173.973 35.9027 173.623 35.7008 173.411 35.4307C173.203 35.1605 173.099 34.8285 173.099 34.4346C173.099 33.9723 173.279 33.5703 173.641 33.2285C174.002 32.8867 174.474 32.6882 175.057 32.6328V31.3047H175.613V32.623C175.91 32.6328 176.215 32.6751 176.531 32.75C176.85 32.8216 177.111 32.9014 177.312 32.9893V33.9561H177.239C177.011 33.7998 176.761 33.6631 176.487 33.5459C176.217 33.4287 175.926 33.3571 175.613 33.3311V35.4307C175.721 35.4535 175.82 35.4779 175.911 35.5039C176.006 35.5267 176.087 35.5462 176.155 35.5625C176.598 35.6667 176.94 35.8473 177.181 36.1045C177.425 36.3617 177.547 36.7083 177.547 37.1445ZM175.057 35.3574V33.3359C174.764 33.362 174.518 33.458 174.319 33.624C174.121 33.7868 174.021 34.0146 174.021 34.3076C174.021 34.5973 174.093 34.8219 174.236 34.9814C174.383 35.1377 174.656 35.263 175.057 35.3574ZM176.624 37.2715C176.624 36.9655 176.546 36.7393 176.39 36.5928C176.233 36.4463 175.975 36.3356 175.613 36.2607V38.2871C175.945 38.248 176.196 38.1488 176.365 37.9893C176.538 37.8265 176.624 37.5872 176.624 37.2715ZM184.004 32.8184L180.859 39H179.819L183.149 32.584H179.389V31.7295H184.004V32.8184ZM190.363 32.8184L187.218 39H186.178L189.508 32.584H185.748V31.7295H190.363V32.8184ZM193.333 37.6084L191.966 40.8066H191.253L192.112 37.6084H193.333ZM199.872 35.3623C199.872 36.6676 199.682 37.6263 199.301 38.2383C198.924 38.847 198.339 39.1514 197.548 39.1514C196.747 39.1514 196.16 38.8405 195.786 38.2188C195.411 37.597 195.224 36.6481 195.224 35.3721C195.224 34.0602 195.413 33.1016 195.79 32.4961C196.171 31.8874 196.757 31.583 197.548 31.583C198.349 31.583 198.937 31.8971 199.311 32.5254C199.685 33.1536 199.872 34.0993 199.872 35.3623ZM198.622 37.5791C198.717 37.3382 198.784 37.0339 198.823 36.666C198.862 36.2982 198.881 35.8636 198.881 35.3623C198.881 34.8643 198.862 34.4313 198.823 34.0635C198.784 33.6956 198.715 33.3896 198.618 33.1455C198.52 32.8981 198.385 32.7109 198.212 32.584C198.043 32.4538 197.822 32.3887 197.548 32.3887C197.278 32.3887 197.055 32.4538 196.879 32.584C196.707 32.7109 196.57 32.9014 196.469 33.1553C196.371 33.4027 196.305 33.7152 196.269 34.0928C196.233 34.4704 196.215 34.8968 196.215 35.3721C196.215 35.8799 196.23 36.3047 196.259 36.6465C196.292 36.9883 196.36 37.2943 196.464 37.5645C196.559 37.8151 196.692 38.0088 196.865 38.1455C197.04 38.279 197.268 38.3457 197.548 38.3457C197.818 38.3457 198.04 38.2822 198.212 38.1553C198.388 38.0251 198.525 37.833 198.622 37.5791ZM206.31 36.6416C206.31 37.016 206.248 37.361 206.124 37.6768C206 37.9925 205.834 38.2562 205.626 38.4678C205.408 38.6924 205.164 38.8633 204.894 38.9805C204.623 39.0944 204.326 39.1514 204 39.1514C203.671 39.1514 203.372 39.096 203.102 38.9854C202.835 38.8747 202.599 38.7103 202.394 38.4922C202.143 38.2285 201.946 37.877 201.803 37.4375C201.663 36.9948 201.593 36.4512 201.593 35.8066C201.593 35.1751 201.658 34.6055 201.788 34.0977C201.918 33.5866 202.118 33.1423 202.389 32.7646C202.652 32.3968 202.993 32.1104 203.409 31.9053C203.826 31.6969 204.308 31.5928 204.854 31.5928C205.017 31.5928 205.169 31.6009 205.309 31.6172C205.449 31.6335 205.572 31.6595 205.68 31.6953V32.6279H205.636C205.548 32.5791 205.421 32.5352 205.255 32.4961C205.089 32.4538 204.911 32.4326 204.723 32.4326C204.117 32.4326 203.627 32.6377 203.253 33.0479C202.882 33.4548 202.662 34.0602 202.594 34.8643C202.825 34.7015 203.062 34.5762 203.307 34.4883C203.551 34.4004 203.818 34.3564 204.107 34.3564C204.391 34.3564 204.638 34.3857 204.85 34.4443C205.064 34.4997 205.287 34.6136 205.519 34.7861C205.785 34.988 205.984 35.2435 206.114 35.5527C206.244 35.862 206.31 36.2249 206.31 36.6416ZM205.318 36.6807C205.318 36.3812 205.279 36.1305 205.201 35.9287C205.123 35.7269 204.996 35.5544 204.82 35.4111C204.693 35.307 204.549 35.2386 204.386 35.2061C204.226 35.1735 204.062 35.1572 203.893 35.1572C203.665 35.1572 203.443 35.1914 203.229 35.2598C203.014 35.3281 202.802 35.4274 202.594 35.5576C202.587 35.6292 202.582 35.6992 202.579 35.7676C202.576 35.8327 202.574 35.9157 202.574 36.0166C202.574 36.5212 202.623 36.9281 202.721 37.2373C202.822 37.5465 202.945 37.7809 203.092 37.9404C203.232 38.0934 203.375 38.2008 203.521 38.2627C203.671 38.3245 203.832 38.3555 204.005 38.3555C204.396 38.3555 204.711 38.2155 204.952 37.9355C205.196 37.6556 205.318 37.2373 205.318 36.6807ZM212.185 39H208.64V38.2578H209.959V33.3848H208.64V32.7207C209.138 32.7207 209.504 32.6507 209.739 32.5107C209.976 32.3675 210.11 32.099 210.139 31.7051H210.896V38.2578H212.185V39ZM216.337 37.6084L214.97 40.8066H214.257L215.116 37.6084H216.337ZM221.886 34.7178C221.886 34.223 221.84 33.821 221.749 33.5117C221.658 33.1992 221.532 32.9583 221.373 32.7891C221.23 32.6328 221.085 32.5254 220.938 32.4668C220.792 32.4082 220.631 32.3789 220.455 32.3789C220.054 32.3789 219.735 32.5221 219.498 32.8086C219.26 33.0951 219.141 33.5101 219.141 34.0537C219.141 34.3597 219.18 34.612 219.259 34.8105C219.337 35.0091 219.464 35.18 219.639 35.3232C219.763 35.4242 219.903 35.4925 220.059 35.5283C220.216 35.5609 220.383 35.5771 220.562 35.5771C220.771 35.5771 220.995 35.5413 221.236 35.4697C221.477 35.3949 221.687 35.2972 221.866 35.1768C221.869 35.1279 221.873 35.0645 221.876 34.9863C221.882 34.9049 221.886 34.8154 221.886 34.7178ZM218.15 34.0928C218.15 33.7184 218.21 33.3766 218.331 33.0674C218.455 32.7581 218.622 32.4912 218.834 32.2666C219.036 32.0518 219.281 31.8841 219.571 31.7637C219.864 31.6432 220.16 31.583 220.46 31.583C220.795 31.583 221.098 31.64 221.368 31.7539C221.641 31.8646 221.877 32.0257 222.076 32.2373C222.327 32.5042 222.52 32.8542 222.657 33.2871C222.797 33.7201 222.867 34.2669 222.867 34.9277C222.867 35.5299 222.799 36.1012 222.662 36.6416C222.528 37.1787 222.33 37.6247 222.066 37.9795C221.786 38.3571 221.449 38.6452 221.055 38.8438C220.665 39.0423 220.181 39.1416 219.605 39.1416C219.475 39.1416 219.337 39.1335 219.19 39.1172C219.044 39.1042 218.907 39.0781 218.78 39.0391V38.1064H218.829C218.91 38.152 219.037 38.196 219.21 38.2383C219.382 38.2806 219.558 38.3018 219.737 38.3018C220.375 38.3018 220.876 38.0918 221.241 37.6719C221.606 37.252 221.812 36.6514 221.861 35.8701C221.601 36.0459 221.352 36.1745 221.114 36.2559C220.88 36.3372 220.624 36.3779 220.347 36.3779C220.077 36.3779 219.832 36.3486 219.61 36.29C219.389 36.2314 219.166 36.1175 218.941 35.9482C218.681 35.7497 218.484 35.499 218.35 35.1963C218.217 34.8903 218.15 34.5225 218.15 34.0928ZM229.119 36.6855C229.119 37.0371 229.062 37.3626 228.948 37.6621C228.837 37.9616 228.681 38.2204 228.479 38.4385C228.274 38.6598 228.018 38.834 227.712 38.9609C227.41 39.0879 227.069 39.1514 226.692 39.1514C226.343 39.1514 226 39.1123 225.662 39.0342C225.326 38.9593 225.035 38.86 224.787 38.7363V37.7061H224.856C224.931 37.7614 225.038 37.8249 225.178 37.8965C225.318 37.9648 225.473 38.0299 225.642 38.0918C225.834 38.1602 226.01 38.2139 226.169 38.2529C226.329 38.2887 226.508 38.3066 226.706 38.3066C226.902 38.3066 227.092 38.2725 227.278 38.2041C227.463 38.1325 227.623 38.0186 227.756 37.8623C227.877 37.7191 227.968 37.5514 228.03 37.3594C228.095 37.1673 228.127 36.9411 228.127 36.6807C228.127 36.4235 228.092 36.2119 228.02 36.0459C227.952 35.8799 227.851 35.7432 227.717 35.6357C227.577 35.512 227.405 35.4258 227.2 35.377C226.998 35.3249 226.772 35.2988 226.521 35.2988C226.257 35.2988 225.992 35.32 225.725 35.3623C225.458 35.4014 225.245 35.4388 225.085 35.4746V31.7295H229.075V32.584H226.028V34.5176C226.145 34.5046 226.26 34.4948 226.374 34.4883C226.488 34.4818 226.593 34.4785 226.687 34.4785C227.058 34.4785 227.372 34.5094 227.629 34.5713C227.886 34.6331 228.134 34.7536 228.371 34.9326C228.612 35.1149 228.796 35.3428 228.923 35.6162C229.053 35.8896 229.119 36.2461 229.119 36.6855ZM233.036 32.4229C232.86 32.4229 232.685 32.444 232.509 32.4863C232.333 32.5286 232.16 32.584 231.991 32.6523C231.835 32.7174 231.698 32.7858 231.581 32.8574C231.467 32.929 231.365 32.9958 231.273 33.0576H231.215V32.0273C231.426 31.9134 231.713 31.8109 232.074 31.7197C232.439 31.6253 232.785 31.5781 233.114 31.5781C233.443 31.5781 233.729 31.6123 233.974 31.6807C234.221 31.7458 234.444 31.8483 234.643 31.9883C234.857 32.1445 235.019 32.3333 235.126 32.5547C235.237 32.776 235.292 33.0348 235.292 33.3311C235.292 33.7314 235.16 34.083 234.896 34.3857C234.633 34.6885 234.317 34.8805 233.949 34.9619V35.0303C234.102 35.0596 234.265 35.11 234.438 35.1816C234.613 35.2533 234.776 35.359 234.926 35.499C235.076 35.639 235.198 35.8197 235.292 36.041C235.386 36.2591 235.434 36.526 235.434 36.8418C235.434 37.1706 235.377 37.4733 235.263 37.75C235.152 38.0234 234.994 38.266 234.789 38.4775C234.577 38.6989 234.322 38.8665 234.022 38.9805C233.723 39.0944 233.383 39.1514 233.002 39.1514C232.637 39.1514 232.276 39.1074 231.918 39.0195C231.56 38.9316 231.259 38.8258 231.015 38.7021V37.6719H231.083C231.288 37.8216 231.563 37.9648 231.908 38.1016C232.253 38.2383 232.598 38.3066 232.943 38.3066C233.142 38.3066 233.34 38.2757 233.539 38.2139C233.741 38.1488 233.909 38.0446 234.042 37.9014C234.172 37.7581 234.271 37.6003 234.34 37.4277C234.408 37.2552 234.442 37.0371 234.442 36.7734C234.442 36.5098 234.403 36.2933 234.325 36.124C234.25 35.9548 234.145 35.8213 234.008 35.7236C233.871 35.626 233.708 35.5592 233.52 35.5234C233.334 35.4844 233.132 35.4648 232.914 35.4648H232.499V34.6543H232.821C233.261 34.6543 233.617 34.5501 233.891 34.3418C234.167 34.1335 234.306 33.8307 234.306 33.4336C234.306 33.2513 234.27 33.0951 234.198 32.9648C234.127 32.8314 234.035 32.7256 233.925 32.6475C233.801 32.5628 233.664 32.5042 233.515 32.4717C233.365 32.4391 233.205 32.4229 233.036 32.4229Z" fill="black"/>
<path d="M177.547 52.1445C177.547 52.623 177.363 53.0348 176.995 53.3799C176.631 53.7217 176.17 53.9268 175.613 53.9951V55.7627H175.057V54.0195C174.705 54.0163 174.35 53.9756 173.992 53.8975C173.637 53.8193 173.328 53.7152 173.064 53.585V52.5986H173.138C173.395 52.7907 173.685 52.9469 174.007 53.0674C174.329 53.1878 174.679 53.2643 175.057 53.2969V51.1875C174.975 51.168 174.876 51.1452 174.759 51.1191C174.642 51.0898 174.542 51.0622 174.461 51.0361C173.973 50.9027 173.623 50.7008 173.411 50.4307C173.203 50.1605 173.099 49.8285 173.099 49.4346C173.099 48.9723 173.279 48.5703 173.641 48.2285C174.002 47.8867 174.474 47.6882 175.057 47.6328V46.3047H175.613V47.623C175.91 47.6328 176.215 47.6751 176.531 47.75C176.85 47.8216 177.111 47.9014 177.312 47.9893V48.9561H177.239C177.011 48.7998 176.761 48.6631 176.487 48.5459C176.217 48.4287 175.926 48.3571 175.613 48.3311V50.4307C175.721 50.4535 175.82 50.4779 175.911 50.5039C176.006 50.5267 176.087 50.5462 176.155 50.5625C176.598 50.6667 176.94 50.8473 177.181 51.1045C177.425 51.3617 177.547 51.7083 177.547 52.1445ZM175.057 50.3574V48.3359C174.764 48.362 174.518 48.458 174.319 48.624C174.121 48.7868 174.021 49.0146 174.021 49.3076C174.021 49.5973 174.093 49.8219 174.236 49.9814C174.383 50.1377 174.656 50.263 175.057 50.3574ZM176.624 52.2715C176.624 51.9655 176.546 51.7393 176.39 51.5928C176.233 51.4463 175.975 51.3356 175.613 51.2607V53.2871C175.945 53.248 176.196 53.1488 176.365 52.9893C176.538 52.8265 176.624 52.5872 176.624 52.2715ZM184.004 47.8184L180.859 54H179.819L183.149 47.584H179.389V46.7295H184.004V47.8184ZM190.363 47.8184L187.218 54H186.178L189.508 47.584H185.748V46.7295H190.363V47.8184ZM193.333 52.6084L191.966 55.8066H191.253L192.112 52.6084H193.333ZM199.872 50.3623C199.872 51.6676 199.682 52.6263 199.301 53.2383C198.924 53.847 198.339 54.1514 197.548 54.1514C196.747 54.1514 196.16 53.8405 195.786 53.2188C195.411 52.597 195.224 51.6481 195.224 50.3721C195.224 49.0602 195.413 48.1016 195.79 47.4961C196.171 46.8874 196.757 46.583 197.548 46.583C198.349 46.583 198.937 46.8971 199.311 47.5254C199.685 48.1536 199.872 49.0993 199.872 50.3623ZM198.622 52.5791C198.717 52.3382 198.784 52.0339 198.823 51.666C198.862 51.2982 198.881 50.8636 198.881 50.3623C198.881 49.8643 198.862 49.4313 198.823 49.0635C198.784 48.6956 198.715 48.3896 198.618 48.1455C198.52 47.8981 198.385 47.7109 198.212 47.584C198.043 47.4538 197.822 47.3887 197.548 47.3887C197.278 47.3887 197.055 47.4538 196.879 47.584C196.707 47.7109 196.57 47.9014 196.469 48.1553C196.371 48.4027 196.305 48.7152 196.269 49.0928C196.233 49.4704 196.215 49.8968 196.215 50.3721C196.215 50.8799 196.23 51.3047 196.259 51.6465C196.292 51.9883 196.36 52.2943 196.464 52.5645C196.559 52.8151 196.692 53.0088 196.865 53.1455C197.04 53.279 197.268 53.3457 197.548 53.3457C197.818 53.3457 198.04 53.2822 198.212 53.1553C198.388 53.0251 198.525 52.833 198.622 52.5791ZM206.31 51.6416C206.31 52.016 206.248 52.361 206.124 52.6768C206 52.9925 205.834 53.2562 205.626 53.4678C205.408 53.6924 205.164 53.8633 204.894 53.9805C204.623 54.0944 204.326 54.1514 204 54.1514C203.671 54.1514 203.372 54.096 203.102 53.9854C202.835 53.8747 202.599 53.7103 202.394 53.4922C202.143 53.2285 201.946 52.877 201.803 52.4375C201.663 51.9948 201.593 51.4512 201.593 50.8066C201.593 50.1751 201.658 49.6055 201.788 49.0977C201.918 48.5866 202.118 48.1423 202.389 47.7646C202.652 47.3968 202.993 47.1104 203.409 46.9053C203.826 46.6969 204.308 46.5928 204.854 46.5928C205.017 46.5928 205.169 46.6009 205.309 46.6172C205.449 46.6335 205.572 46.6595 205.68 46.6953V47.6279H205.636C205.548 47.5791 205.421 47.5352 205.255 47.4961C205.089 47.4538 204.911 47.4326 204.723 47.4326C204.117 47.4326 203.627 47.6377 203.253 48.0479C202.882 48.4548 202.662 49.0602 202.594 49.8643C202.825 49.7015 203.062 49.5762 203.307 49.4883C203.551 49.4004 203.818 49.3564 204.107 49.3564C204.391 49.3564 204.638 49.3857 204.85 49.4443C205.064 49.4997 205.287 49.6136 205.519 49.7861C205.785 49.988 205.984 50.2435 206.114 50.5527C206.244 50.862 206.31 51.2249 206.31 51.6416ZM205.318 51.6807C205.318 51.3812 205.279 51.1305 205.201 50.9287C205.123 50.7269 204.996 50.5544 204.82 50.4111C204.693 50.307 204.549 50.2386 204.386 50.2061C204.226 50.1735 204.062 50.1572 203.893 50.1572C203.665 50.1572 203.443 50.1914 203.229 50.2598C203.014 50.3281 202.802 50.4274 202.594 50.5576C202.587 50.6292 202.582 50.6992 202.579 50.7676C202.576 50.8327 202.574 50.9157 202.574 51.0166C202.574 51.5212 202.623 51.9281 202.721 52.2373C202.822 52.5465 202.945 52.7809 203.092 52.9404C203.232 53.0934 203.375 53.2008 203.521 53.2627C203.671 53.3245 203.832 53.3555 204.005 53.3555C204.396 53.3555 204.711 53.2155 204.952 52.9355C205.196 52.6556 205.318 52.2373 205.318 51.6807ZM212.185 54H208.64V53.2578H209.959V48.3848H208.64V47.7207C209.138 47.7207 209.504 47.6507 209.739 47.5107C209.976 47.3675 210.11 47.099 210.139 46.7051H210.896V53.2578H212.185V54ZM216.337 52.6084L214.97 55.8066H214.257L215.116 52.6084H216.337ZM221.886 49.7178C221.886 49.223 221.84 48.821 221.749 48.5117C221.658 48.1992 221.532 47.9583 221.373 47.7891C221.23 47.6328 221.085 47.5254 220.938 47.4668C220.792 47.4082 220.631 47.3789 220.455 47.3789C220.054 47.3789 219.735 47.5221 219.498 47.8086C219.26 48.0951 219.141 48.5101 219.141 49.0537C219.141 49.3597 219.18 49.612 219.259 49.8105C219.337 50.0091 219.464 50.18 219.639 50.3232C219.763 50.4242 219.903 50.4925 220.059 50.5283C220.216 50.5609 220.383 50.5771 220.562 50.5771C220.771 50.5771 220.995 50.5413 221.236 50.4697C221.477 50.3949 221.687 50.2972 221.866 50.1768C221.869 50.1279 221.873 50.0645 221.876 49.9863C221.882 49.9049 221.886 49.8154 221.886 49.7178ZM218.15 49.0928C218.15 48.7184 218.21 48.3766 218.331 48.0674C218.455 47.7581 218.622 47.4912 218.834 47.2666C219.036 47.0518 219.281 46.8841 219.571 46.7637C219.864 46.6432 220.16 46.583 220.46 46.583C220.795 46.583 221.098 46.64 221.368 46.7539C221.641 46.8646 221.877 47.0257 222.076 47.2373C222.327 47.5042 222.52 47.8542 222.657 48.2871C222.797 48.7201 222.867 49.2669 222.867 49.9277C222.867 50.5299 222.799 51.1012 222.662 51.6416C222.528 52.1787 222.33 52.6247 222.066 52.9795C221.786 53.3571 221.449 53.6452 221.055 53.8438C220.665 54.0423 220.181 54.1416 219.605 54.1416C219.475 54.1416 219.337 54.1335 219.19 54.1172C219.044 54.1042 218.907 54.0781 218.78 54.0391V53.1064H218.829C218.91 53.152 219.037 53.196 219.21 53.2383C219.382 53.2806 219.558 53.3018 219.737 53.3018C220.375 53.3018 220.876 53.0918 221.241 52.6719C221.606 52.252 221.812 51.6514 221.861 50.8701C221.601 51.0459 221.352 51.1745 221.114 51.2559C220.88 51.3372 220.624 51.3779 220.347 51.3779C220.077 51.3779 219.832 51.3486 219.61 51.29C219.389 51.2314 219.166 51.1175 218.941 50.9482C218.681 50.7497 218.484 50.499 218.35 50.1963C218.217 49.8903 218.15 49.5225 218.15 49.0928ZM229.119 51.6855C229.119 52.0371 229.062 52.3626 228.948 52.6621C228.837 52.9616 228.681 53.2204 228.479 53.4385C228.274 53.6598 228.018 53.834 227.712 53.9609C227.41 54.0879 227.069 54.1514 226.692 54.1514C226.343 54.1514 226 54.1123 225.662 54.0342C225.326 53.9593 225.035 53.86 224.787 53.7363V52.7061H224.856C224.931 52.7614 225.038 52.8249 225.178 52.8965C225.318 52.9648 225.473 53.0299 225.642 53.0918C225.834 53.1602 226.01 53.2139 226.169 53.2529C226.329 53.2887 226.508 53.3066 226.706 53.3066C226.902 53.3066 227.092 53.2725 227.278 53.2041C227.463 53.1325 227.623 53.0186 227.756 52.8623C227.877 52.7191 227.968 52.5514 228.03 52.3594C228.095 52.1673 228.127 51.9411 228.127 51.6807C228.127 51.4235 228.092 51.2119 228.02 51.0459C227.952 50.8799 227.851 50.7432 227.717 50.6357C227.577 50.512 227.405 50.4258 227.2 50.377C226.998 50.3249 226.772 50.2988 226.521 50.2988C226.257 50.2988 225.992 50.32 225.725 50.3623C225.458 50.4014 225.245 50.4388 225.085 50.4746V46.7295H229.075V47.584H226.028V49.5176C226.145 49.5046 226.26 49.4948 226.374 49.4883C226.488 49.4818 226.593 49.4785 226.687 49.4785C227.058 49.4785 227.372 49.5094 227.629 49.5713C227.886 49.6331 228.134 49.7536 228.371 49.9326C228.612 50.1149 228.796 50.3428 228.923 50.6162C229.053 50.8896 229.119 51.2461 229.119 51.6855ZM233.036 47.4229C232.86 47.4229 232.685 47.444 232.509 47.4863C232.333 47.5286 232.16 47.584 231.991 47.6523C231.835 47.7174 231.698 47.7858 231.581 47.8574C231.467 47.929 231.365 47.9958 231.273 48.0576H231.215V47.0273C231.426 46.9134 231.713 46.8109 232.074 46.7197C232.439 46.6253 232.785 46.5781 233.114 46.5781C233.443 46.5781 233.729 46.6123 233.974 46.6807C234.221 46.7458 234.444 46.8483 234.643 46.9883C234.857 47.1445 235.019 47.3333 235.126 47.5547C235.237 47.776 235.292 48.0348 235.292 48.3311C235.292 48.7314 235.16 49.083 234.896 49.3857C234.633 49.6885 234.317 49.8805 233.949 49.9619V50.0303C234.102 50.0596 234.265 50.11 234.438 50.1816C234.613 50.2533 234.776 50.359 234.926 50.499C235.076 50.639 235.198 50.8197 235.292 51.041C235.386 51.2591 235.434 51.526 235.434 51.8418C235.434 52.1706 235.377 52.4733 235.263 52.75C235.152 53.0234 234.994 53.266 234.789 53.4775C234.577 53.6989 234.322 53.8665 234.022 53.9805C233.723 54.0944 233.383 54.1514 233.002 54.1514C232.637 54.1514 232.276 54.1074 231.918 54.0195C231.56 53.9316 231.259 53.8258 231.015 53.7021V52.6719H231.083C231.288 52.8216 231.563 52.9648 231.908 53.1016C232.253 53.2383 232.598 53.3066 232.943 53.3066C233.142 53.3066 233.34 53.2757 233.539 53.2139C233.741 53.1488 233.909 53.0446 234.042 52.9014C234.172 52.7581 234.271 52.6003 234.34 52.4277C234.408 52.2552 234.442 52.0371 234.442 51.7734C234.442 51.5098 234.403 51.2933 234.325 51.124C234.25 50.9548 234.145 50.8213 234.008 50.7236C233.871 50.626 233.708 50.5592 233.52 50.5234C233.334 50.4844 233.132 50.4648 232.914 50.4648H232.499V49.6543H232.821C233.261 49.6543 233.617 49.5501 233.891 49.3418C234.167 49.1335 234.306 48.8307 234.306 48.4336C234.306 48.2513 234.27 48.0951 234.198 47.9648C234.127 47.8314 234.035 47.7256 233.925 47.6475C233.801 47.5628 233.664 47.5042 233.515 47.4717C233.365 47.4391 233.205 47.4229 233.036 47.4229Z" fill="black"/>
<path d="M177.547 67.1445C177.547 67.623 177.363 68.0348 176.995 68.3799C176.631 68.7217 176.17 68.9268 175.613 68.9951V70.7627H175.057V69.0195C174.705 69.0163 174.35 68.9756 173.992 68.8975C173.637 68.8193 173.328 68.7152 173.064 68.585V67.5986H173.138C173.395 67.7907 173.685 67.9469 174.007 68.0674C174.329 68.1878 174.679 68.2643 175.057 68.2969V66.1875C174.975 66.168 174.876 66.1452 174.759 66.1191C174.642 66.0898 174.542 66.0622 174.461 66.0361C173.973 65.9027 173.623 65.7008 173.411 65.4307C173.203 65.1605 173.099 64.8285 173.099 64.4346C173.099 63.9723 173.279 63.5703 173.641 63.2285C174.002 62.8867 174.474 62.6882 175.057 62.6328V61.3047H175.613V62.623C175.91 62.6328 176.215 62.6751 176.531 62.75C176.85 62.8216 177.111 62.9014 177.312 62.9893V63.9561H177.239C177.011 63.7998 176.761 63.6631 176.487 63.5459C176.217 63.4287 175.926 63.3571 175.613 63.3311V65.4307C175.721 65.4535 175.82 65.4779 175.911 65.5039C176.006 65.5267 176.087 65.5462 176.155 65.5625C176.598 65.6667 176.94 65.8473 177.181 66.1045C177.425 66.3617 177.547 66.7083 177.547 67.1445ZM175.057 65.3574V63.3359C174.764 63.362 174.518 63.458 174.319 63.624C174.121 63.7868 174.021 64.0146 174.021 64.3076C174.021 64.5973 174.093 64.8219 174.236 64.9814C174.383 65.1377 174.656 65.263 175.057 65.3574ZM176.624 67.2715C176.624 66.9655 176.546 66.7393 176.39 66.5928C176.233 66.4463 175.975 66.3356 175.613 66.2607V68.2871C175.945 68.248 176.196 68.1488 176.365 67.9893C176.538 67.8265 176.624 67.5872 176.624 67.2715ZM184.004 62.8184L180.859 69H179.819L183.149 62.584H179.389V61.7295H184.004V62.8184ZM190.363 62.8184L187.218 69H186.178L189.508 62.584H185.748V61.7295H190.363V62.8184ZM193.333 67.6084L191.966 70.8066H191.253L192.112 67.6084H193.333ZM199.872 65.3623C199.872 66.6676 199.682 67.6263 199.301 68.2383C198.924 68.847 198.339 69.1514 197.548 69.1514C196.747 69.1514 196.16 68.8405 195.786 68.2188C195.411 67.597 195.224 66.6481 195.224 65.3721C195.224 64.0602 195.413 63.1016 195.79 62.4961C196.171 61.8874 196.757 61.583 197.548 61.583C198.349 61.583 198.937 61.8971 199.311 62.5254C199.685 63.1536 199.872 64.0993 199.872 65.3623ZM198.622 67.5791C198.717 67.3382 198.784 67.0339 198.823 66.666C198.862 66.2982 198.881 65.8636 198.881 65.3623C198.881 64.8643 198.862 64.4313 198.823 64.0635C198.784 63.6956 198.715 63.3896 198.618 63.1455C198.52 62.8981 198.385 62.7109 198.212 62.584C198.043 62.4538 197.822 62.3887 197.548 62.3887C197.278 62.3887 197.055 62.4538 196.879 62.584C196.707 62.7109 196.57 62.9014 196.469 63.1553C196.371 63.4027 196.305 63.7152 196.269 64.0928C196.233 64.4704 196.215 64.8968 196.215 65.3721C196.215 65.8799 196.23 66.3047 196.259 66.6465C196.292 66.9883 196.36 67.2943 196.464 67.5645C196.559 67.8151 196.692 68.0088 196.865 68.1455C197.04 68.279 197.268 68.3457 197.548 68.3457C197.818 68.3457 198.04 68.2822 198.212 68.1553C198.388 68.0251 198.525 67.833 198.622 67.5791ZM206.31 66.6416C206.31 67.016 206.248 67.361 206.124 67.6768C206 67.9925 205.834 68.2562 205.626 68.4678C205.408 68.6924 205.164 68.8633 204.894 68.9805C204.623 69.0944 204.326 69.1514 204 69.1514C203.671 69.1514 203.372 69.096 203.102 68.9854C202.835 68.8747 202.599 68.7103 202.394 68.4922C202.143 68.2285 201.946 67.877 201.803 67.4375C201.663 66.9948 201.593 66.4512 201.593 65.8066C201.593 65.1751 201.658 64.6055 201.788 64.0977C201.918 63.5866 202.118 63.1423 202.389 62.7646C202.652 62.3968 202.993 62.1104 203.409 61.9053C203.826 61.6969 204.308 61.5928 204.854 61.5928C205.017 61.5928 205.169 61.6009 205.309 61.6172C205.449 61.6335 205.572 61.6595 205.68 61.6953V62.6279H205.636C205.548 62.5791 205.421 62.5352 205.255 62.4961C205.089 62.4538 204.911 62.4326 204.723 62.4326C204.117 62.4326 203.627 62.6377 203.253 63.0479C202.882 63.4548 202.662 64.0602 202.594 64.8643C202.825 64.7015 203.062 64.5762 203.307 64.4883C203.551 64.4004 203.818 64.3564 204.107 64.3564C204.391 64.3564 204.638 64.3857 204.85 64.4443C205.064 64.4997 205.287 64.6136 205.519 64.7861C205.785 64.988 205.984 65.2435 206.114 65.5527C206.244 65.862 206.31 66.2249 206.31 66.6416ZM205.318 66.6807C205.318 66.3812 205.279 66.1305 205.201 65.9287C205.123 65.7269 204.996 65.5544 204.82 65.4111C204.693 65.307 204.549 65.2386 204.386 65.2061C204.226 65.1735 204.062 65.1572 203.893 65.1572C203.665 65.1572 203.443 65.1914 203.229 65.2598C203.014 65.3281 202.802 65.4274 202.594 65.5576C202.587 65.6292 202.582 65.6992 202.579 65.7676C202.576 65.8327 202.574 65.9157 202.574 66.0166C202.574 66.5212 202.623 66.9281 202.721 67.2373C202.822 67.5465 202.945 67.7809 203.092 67.9404C203.232 68.0934 203.375 68.2008 203.521 68.2627C203.671 68.3245 203.832 68.3555 204.005 68.3555C204.396 68.3555 204.711 68.2155 204.952 67.9355C205.196 67.6556 205.318 67.2373 205.318 66.6807ZM212.185 69H208.64V68.2578H209.959V63.3848H208.64V62.7207C209.138 62.7207 209.504 62.6507 209.739 62.5107C209.976 62.3675 210.11 62.099 210.139 61.7051H210.896V68.2578H212.185V69ZM216.337 67.6084L214.97 70.8066H214.257L215.116 67.6084H216.337ZM221.886 64.7178C221.886 64.223 221.84 63.821 221.749 63.5117C221.658 63.1992 221.532 62.9583 221.373 62.7891C221.23 62.6328 221.085 62.5254 220.938 62.4668C220.792 62.4082 220.631 62.3789 220.455 62.3789C220.054 62.3789 219.735 62.5221 219.498 62.8086C219.26 63.0951 219.141 63.5101 219.141 64.0537C219.141 64.3597 219.18 64.612 219.259 64.8105C219.337 65.0091 219.464 65.18 219.639 65.3232C219.763 65.4242 219.903 65.4925 220.059 65.5283C220.216 65.5609 220.383 65.5771 220.562 65.5771C220.771 65.5771 220.995 65.5413 221.236 65.4697C221.477 65.3949 221.687 65.2972 221.866 65.1768C221.869 65.1279 221.873 65.0645 221.876 64.9863C221.882 64.9049 221.886 64.8154 221.886 64.7178ZM218.15 64.0928C218.15 63.7184 218.21 63.3766 218.331 63.0674C218.455 62.7581 218.622 62.4912 218.834 62.2666C219.036 62.0518 219.281 61.8841 219.571 61.7637C219.864 61.6432 220.16 61.583 220.46 61.583C220.795 61.583 221.098 61.64 221.368 61.7539C221.641 61.8646 221.877 62.0257 222.076 62.2373C222.327 62.5042 222.52 62.8542 222.657 63.2871C222.797 63.7201 222.867 64.2669 222.867 64.9277C222.867 65.5299 222.799 66.1012 222.662 66.6416C222.528 67.1787 222.33 67.6247 222.066 67.9795C221.786 68.3571 221.449 68.6452 221.055 68.8438C220.665 69.0423 220.181 69.1416 219.605 69.1416C219.475 69.1416 219.337 69.1335 219.19 69.1172C219.044 69.1042 218.907 69.0781 218.78 69.0391V68.1064H218.829C218.91 68.152 219.037 68.196 219.21 68.2383C219.382 68.2806 219.558 68.3018 219.737 68.3018C220.375 68.3018 220.876 68.0918 221.241 67.6719C221.606 67.252 221.812 66.6514 221.861 65.8701C221.601 66.0459 221.352 66.1745 221.114 66.2559C220.88 66.3372 220.624 66.3779 220.347 66.3779C220.077 66.3779 219.832 66.3486 219.61 66.29C219.389 66.2314 219.166 66.1175 218.941 65.9482C218.681 65.7497 218.484 65.499 218.35 65.1963C218.217 64.8903 218.15 64.5225 218.15 64.0928ZM229.119 66.6855C229.119 67.0371 229.062 67.3626 228.948 67.6621C228.837 67.9616 228.681 68.2204 228.479 68.4385C228.274 68.6598 228.018 68.834 227.712 68.9609C227.41 69.0879 227.069 69.1514 226.692 69.1514C226.343 69.1514 226 69.1123 225.662 69.0342C225.326 68.9593 225.035 68.86 224.787 68.7363V67.7061H224.856C224.931 67.7614 225.038 67.8249 225.178 67.8965C225.318 67.9648 225.473 68.0299 225.642 68.0918C225.834 68.1602 226.01 68.2139 226.169 68.2529C226.329 68.2887 226.508 68.3066 226.706 68.3066C226.902 68.3066 227.092 68.2725 227.278 68.2041C227.463 68.1325 227.623 68.0186 227.756 67.8623C227.877 67.7191 227.968 67.5514 228.03 67.3594C228.095 67.1673 228.127 66.9411 228.127 66.6807C228.127 66.4235 228.092 66.2119 228.02 66.0459C227.952 65.8799 227.851 65.7432 227.717 65.6357C227.577 65.512 227.405 65.4258 227.2 65.377C226.998 65.3249 226.772 65.2988 226.521 65.2988C226.257 65.2988 225.992 65.32 225.725 65.3623C225.458 65.4014 225.245 65.4388 225.085 65.4746V61.7295H229.075V62.584H226.028V64.5176C226.145 64.5046 226.26 64.4948 226.374 64.4883C226.488 64.4818 226.593 64.4785 226.687 64.4785C227.058 64.4785 227.372 64.5094 227.629 64.5713C227.886 64.6331 228.134 64.7536 228.371 64.9326C228.612 65.1149 228.796 65.3428 228.923 65.6162C229.053 65.8896 229.119 66.2461 229.119 66.6855ZM233.036 62.4229C232.86 62.4229 232.685 62.444 232.509 62.4863C232.333 62.5286 232.16 62.584 231.991 62.6523C231.835 62.7174 231.698 62.7858 231.581 62.8574C231.467 62.929 231.365 62.9958 231.273 63.0576H231.215V62.0273C231.426 61.9134 231.713 61.8109 232.074 61.7197C232.439 61.6253 232.785 61.5781 233.114 61.5781C233.443 61.5781 233.729 61.6123 233.974 61.6807C234.221 61.7458 234.444 61.8483 234.643 61.9883C234.857 62.1445 235.019 62.3333 235.126 62.5547C235.237 62.776 235.292 63.0348 235.292 63.3311C235.292 63.7314 235.16 64.083 234.896 64.3857C234.633 64.6885 234.317 64.8805 233.949 64.9619V65.0303C234.102 65.0596 234.265 65.11 234.438 65.1816C234.613 65.2533 234.776 65.359 234.926 65.499C235.076 65.639 235.198 65.8197 235.292 66.041C235.386 66.2591 235.434 66.526 235.434 66.8418C235.434 67.1706 235.377 67.4733 235.263 67.75C235.152 68.0234 234.994 68.266 234.789 68.4775C234.577 68.6989 234.322 68.8665 234.022 68.9805C233.723 69.0944 233.383 69.1514 233.002 69.1514C232.637 69.1514 232.276 69.1074 231.918 69.0195C231.56 68.9316 231.259 68.8258 231.015 68.7021V67.6719H231.083C231.288 67.8216 231.563 67.9648 231.908 68.1016C232.253 68.2383 232.598 68.3066 232.943 68.3066C233.142 68.3066 233.34 68.2757 233.539 68.2139C233.741 68.1488 233.909 68.0446 234.042 67.9014C234.172 67.7581 234.271 67.6003 234.34 67.4277C234.408 67.2552 234.442 67.0371 234.442 66.7734C234.442 66.5098 234.403 66.2933 234.325 66.124C234.25 65.9548 234.145 65.8213 234.008 65.7236C233.871 65.626 233.708 65.5592 233.52 65.5234C233.334 65.4844 233.132 65.4648 232.914 65.4648H232.499V64.6543H232.821C233.261 64.6543 233.617 64.5501 233.891 64.3418C234.167 64.1335 234.306 63.8307 234.306 63.4336C234.306 63.2513 234.27 63.0951 234.198 62.9648C234.127 62.8314 234.035 62.7256 233.925 62.6475C233.801 62.5628 233.664 62.5042 233.515 62.4717C233.365 62.4391 233.205 62.4229 233.036 62.4229Z" fill="black"/>
<path d="M177.547 82.1445C177.547 82.623 177.363 83.0348 176.995 83.3799C176.631 83.7217 176.17 83.9268 175.613 83.9951V85.7627H175.057V84.0195C174.705 84.0163 174.35 83.9756 173.992 83.8975C173.637 83.8193 173.328 83.7152 173.064 83.585V82.5986H173.138C173.395 82.7907 173.685 82.9469 174.007 83.0674C174.329 83.1878 174.679 83.2643 175.057 83.2969V81.1875C174.975 81.168 174.876 81.1452 174.759 81.1191C174.642 81.0898 174.542 81.0622 174.461 81.0361C173.973 80.9027 173.623 80.7008 173.411 80.4307C173.203 80.1605 173.099 79.8285 173.099 79.4346C173.099 78.9723 173.279 78.5703 173.641 78.2285C174.002 77.8867 174.474 77.6882 175.057 77.6328V76.3047H175.613V77.623C175.91 77.6328 176.215 77.6751 176.531 77.75C176.85 77.8216 177.111 77.9014 177.312 77.9893V78.9561H177.239C177.011 78.7998 176.761 78.6631 176.487 78.5459C176.217 78.4287 175.926 78.3571 175.613 78.3311V80.4307C175.721 80.4535 175.82 80.4779 175.911 80.5039C176.006 80.5267 176.087 80.5462 176.155 80.5625C176.598 80.6667 176.94 80.8473 177.181 81.1045C177.425 81.3617 177.547 81.7083 177.547 82.1445ZM175.057 80.3574V78.3359C174.764 78.362 174.518 78.458 174.319 78.624C174.121 78.7868 174.021 79.0146 174.021 79.3076C174.021 79.5973 174.093 79.8219 174.236 79.9814C174.383 80.1377 174.656 80.263 175.057 80.3574ZM176.624 82.2715C176.624 81.9655 176.546 81.7393 176.39 81.5928C176.233 81.4463 175.975 81.3356 175.613 81.2607V83.2871C175.945 83.248 176.196 83.1488 176.365 82.9893C176.538 82.8265 176.624 82.5872 176.624 82.2715ZM184.004 77.8184L180.859 84H179.819L183.149 77.584H179.389V76.7295H184.004V77.8184ZM190.363 77.8184L187.218 84H186.178L189.508 77.584H185.748V76.7295H190.363V77.8184ZM193.333 82.6084L191.966 85.8066H191.253L192.112 82.6084H193.333ZM199.872 80.3623C199.872 81.6676 199.682 82.6263 199.301 83.2383C198.924 83.847 198.339 84.1514 197.548 84.1514C196.747 84.1514 196.16 83.8405 195.786 83.2188C195.411 82.597 195.224 81.6481 195.224 80.3721C195.224 79.0602 195.413 78.1016 195.79 77.4961C196.171 76.8874 196.757 76.583 197.548 76.583C198.349 76.583 198.937 76.8971 199.311 77.5254C199.685 78.1536 199.872 79.0993 199.872 80.3623ZM198.622 82.5791C198.717 82.3382 198.784 82.0339 198.823 81.666C198.862 81.2982 198.881 80.8636 198.881 80.3623C198.881 79.8643 198.862 79.4313 198.823 79.0635C198.784 78.6956 198.715 78.3896 198.618 78.1455C198.52 77.8981 198.385 77.7109 198.212 77.584C198.043 77.4538 197.822 77.3887 197.548 77.3887C197.278 77.3887 197.055 77.4538 196.879 77.584C196.707 77.7109 196.57 77.9014 196.469 78.1553C196.371 78.4027 196.305 78.7152 196.269 79.0928C196.233 79.4704 196.215 79.8968 196.215 80.3721C196.215 80.8799 196.23 81.3047 196.259 81.6465C196.292 81.9883 196.36 82.2943 196.464 82.5645C196.559 82.8151 196.692 83.0088 196.865 83.1455C197.04 83.279 197.268 83.3457 197.548 83.3457C197.818 83.3457 198.04 83.2822 198.212 83.1553C198.388 83.0251 198.525 82.833 198.622 82.5791ZM206.31 81.6416C206.31 82.016 206.248 82.361 206.124 82.6768C206 82.9925 205.834 83.2562 205.626 83.4678C205.408 83.6924 205.164 83.8633 204.894 83.9805C204.623 84.0944 204.326 84.1514 204 84.1514C203.671 84.1514 203.372 84.096 203.102 83.9854C202.835 83.8747 202.599 83.7103 202.394 83.4922C202.143 83.2285 201.946 82.877 201.803 82.4375C201.663 81.9948 201.593 81.4512 201.593 80.8066C201.593 80.1751 201.658 79.6055 201.788 79.0977C201.918 78.5866 202.118 78.1423 202.389 77.7646C202.652 77.3968 202.993 77.1104 203.409 76.9053C203.826 76.6969 204.308 76.5928 204.854 76.5928C205.017 76.5928 205.169 76.6009 205.309 76.6172C205.449 76.6335 205.572 76.6595 205.68 76.6953V77.6279H205.636C205.548 77.5791 205.421 77.5352 205.255 77.4961C205.089 77.4538 204.911 77.4326 204.723 77.4326C204.117 77.4326 203.627 77.6377 203.253 78.0479C202.882 78.4548 202.662 79.0602 202.594 79.8643C202.825 79.7015 203.062 79.5762 203.307 79.4883C203.551 79.4004 203.818 79.3564 204.107 79.3564C204.391 79.3564 204.638 79.3857 204.85 79.4443C205.064 79.4997 205.287 79.6136 205.519 79.7861C205.785 79.988 205.984 80.2435 206.114 80.5527C206.244 80.862 206.31 81.2249 206.31 81.6416ZM205.318 81.6807C205.318 81.3812 205.279 81.1305 205.201 80.9287C205.123 80.7269 204.996 80.5544 204.82 80.4111C204.693 80.307 204.549 80.2386 204.386 80.2061C204.226 80.1735 204.062 80.1572 203.893 80.1572C203.665 80.1572 203.443 80.1914 203.229 80.2598C203.014 80.3281 202.802 80.4274 202.594 80.5576C202.587 80.6292 202.582 80.6992 202.579 80.7676C202.576 80.8327 202.574 80.9157 202.574 81.0166C202.574 81.5212 202.623 81.9281 202.721 82.2373C202.822 82.5465 202.945 82.7809 203.092 82.9404C203.232 83.0934 203.375 83.2008 203.521 83.2627C203.671 83.3245 203.832 83.3555 204.005 83.3555C204.396 83.3555 204.711 83.2155 204.952 82.9355C205.196 82.6556 205.318 82.2373 205.318 81.6807ZM212.185 84H208.64V83.2578H209.959V78.3848H208.64V77.7207C209.138 77.7207 209.504 77.6507 209.739 77.5107C209.976 77.3675 210.11 77.099 210.139 76.7051H210.896V83.2578H212.185V84ZM216.337 82.6084L214.97 85.8066H214.257L215.116 82.6084H216.337ZM221.886 79.7178C221.886 79.223 221.84 78.821 221.749 78.5117C221.658 78.1992 221.532 77.9583 221.373 77.7891C221.23 77.6328 221.085 77.5254 220.938 77.4668C220.792 77.4082 220.631 77.3789 220.455 77.3789C220.054 77.3789 219.735 77.5221 219.498 77.8086C219.26 78.0951 219.141 78.5101 219.141 79.0537C219.141 79.3597 219.18 79.612 219.259 79.8105C219.337 80.0091 219.464 80.18 219.639 80.3232C219.763 80.4242 219.903 80.4925 220.059 80.5283C220.216 80.5609 220.383 80.5771 220.562 80.5771C220.771 80.5771 220.995 80.5413 221.236 80.4697C221.477 80.3949 221.687 80.2972 221.866 80.1768C221.869 80.1279 221.873 80.0645 221.876 79.9863C221.882 79.9049 221.886 79.8154 221.886 79.7178ZM218.15 79.0928C218.15 78.7184 218.21 78.3766 218.331 78.0674C218.455 77.7581 218.622 77.4912 218.834 77.2666C219.036 77.0518 219.281 76.8841 219.571 76.7637C219.864 76.6432 220.16 76.583 220.46 76.583C220.795 76.583 221.098 76.64 221.368 76.7539C221.641 76.8646 221.877 77.0257 222.076 77.2373C222.327 77.5042 222.52 77.8542 222.657 78.2871C222.797 78.7201 222.867 79.2669 222.867 79.9277C222.867 80.5299 222.799 81.1012 222.662 81.6416C222.528 82.1787 222.33 82.6247 222.066 82.9795C221.786 83.3571 221.449 83.6452 221.055 83.8438C220.665 84.0423 220.181 84.1416 219.605 84.1416C219.475 84.1416 219.337 84.1335 219.19 84.1172C219.044 84.1042 218.907 84.0781 218.78 84.0391V83.1064H218.829C218.91 83.152 219.037 83.196 219.21 83.2383C219.382 83.2806 219.558 83.3018 219.737 83.3018C220.375 83.3018 220.876 83.0918 221.241 82.6719C221.606 82.252 221.812 81.6514 221.861 80.8701C221.601 81.0459 221.352 81.1745 221.114 81.2559C220.88 81.3372 220.624 81.3779 220.347 81.3779C220.077 81.3779 219.832 81.3486 219.61 81.29C219.389 81.2314 219.166 81.1175 218.941 80.9482C218.681 80.7497 218.484 80.499 218.35 80.1963C218.217 79.8903 218.15 79.5225 218.15 79.0928ZM229.119 81.6855C229.119 82.0371 229.062 82.3626 228.948 82.6621C228.837 82.9616 228.681 83.2204 228.479 83.4385C228.274 83.6598 228.018 83.834 227.712 83.9609C227.41 84.0879 227.069 84.1514 226.692 84.1514C226.343 84.1514 226 84.1123 225.662 84.0342C225.326 83.9593 225.035 83.86 224.787 83.7363V82.7061H224.856C224.931 82.7614 225.038 82.8249 225.178 82.8965C225.318 82.9648 225.473 83.0299 225.642 83.0918C225.834 83.1602 226.01 83.2139 226.169 83.2529C226.329 83.2887 226.508 83.3066 226.706 83.3066C226.902 83.3066 227.092 83.2725 227.278 83.2041C227.463 83.1325 227.623 83.0186 227.756 82.8623C227.877 82.7191 227.968 82.5514 228.03 82.3594C228.095 82.1673 228.127 81.9411 228.127 81.6807C228.127 81.4235 228.092 81.2119 228.02 81.0459C227.952 80.8799 227.851 80.7432 227.717 80.6357C227.577 80.512 227.405 80.4258 227.2 80.377C226.998 80.3249 226.772 80.2988 226.521 80.2988C226.257 80.2988 225.992 80.32 225.725 80.3623C225.458 80.4014 225.245 80.4388 225.085 80.4746V76.7295H229.075V77.584H226.028V79.5176C226.145 79.5046 226.26 79.4948 226.374 79.4883C226.488 79.4818 226.593 79.4785 226.687 79.4785C227.058 79.4785 227.372 79.5094 227.629 79.5713C227.886 79.6331 228.134 79.7536 228.371 79.9326C228.612 80.1149 228.796 80.3428 228.923 80.6162C229.053 80.8896 229.119 81.2461 229.119 81.6855ZM233.036 77.4229C232.86 77.4229 232.685 77.444 232.509 77.4863C232.333 77.5286 232.16 77.584 231.991 77.6523C231.835 77.7174 231.698 77.7858 231.581 77.8574C231.467 77.929 231.365 77.9958 231.273 78.0576H231.215V77.0273C231.426 76.9134 231.713 76.8109 232.074 76.7197C232.439 76.6253 232.785 76.5781 233.114 76.5781C233.443 76.5781 233.729 76.6123 233.974 76.6807C234.221 76.7458 234.444 76.8483 234.643 76.9883C234.857 77.1445 235.019 77.3333 235.126 77.5547C235.237 77.776 235.292 78.0348 235.292 78.3311C235.292 78.7314 235.16 79.083 234.896 79.3857C234.633 79.6885 234.317 79.8805 233.949 79.9619V80.0303C234.102 80.0596 234.265 80.11 234.438 80.1816C234.613 80.2533 234.776 80.359 234.926 80.499C235.076 80.639 235.198 80.8197 235.292 81.041C235.386 81.2591 235.434 81.526 235.434 81.8418C235.434 82.1706 235.377 82.4733 235.263 82.75C235.152 83.0234 234.994 83.266 234.789 83.4775C234.577 83.6989 234.322 83.8665 234.022 83.9805C233.723 84.0944 233.383 84.1514 233.002 84.1514C232.637 84.1514 232.276 84.1074 231.918 84.0195C231.56 83.9316 231.259 83.8258 231.015 83.7021V82.6719H231.083C231.288 82.8216 231.563 82.9648 231.908 83.1016C232.253 83.2383 232.598 83.3066 232.943 83.3066C233.142 83.3066 233.34 83.2757 233.539 83.2139C233.741 83.1488 233.909 83.0446 234.042 82.9014C234.172 82.7581 234.271 82.6003 234.34 82.4277C234.408 82.2552 234.442 82.0371 234.442 81.7734C234.442 81.5098 234.403 81.2933 234.325 81.124C234.25 80.9548 234.145 80.8213 234.008 80.7236C233.871 80.626 233.708 80.5592 233.52 80.5234C233.334 80.4844 233.132 80.4648 232.914 80.4648H232.499V79.6543H232.821C233.261 79.6543 233.617 79.5501 233.891 79.3418C234.167 79.1335 234.306 78.8307 234.306 78.4336C234.306 78.2513 234.27 78.0951 234.198 77.9648C234.127 77.8314 234.035 77.7256 233.925 77.6475C233.801 77.5628 233.664 77.5042 233.515 77.4717C233.365 77.4391 233.205 77.4229 233.036 77.4229Z" fill="black"/>
<path d="M8.64844 24H5.10352V23.2578H6.42188V18.3848H5.10352V17.7207C5.60156 17.7207 5.96777 17.6507 6.20215 17.5107C6.43978 17.3675 6.57324 17.099 6.60254 16.7051H7.35938V23.2578H8.64844V24ZM11.5537 24H10.3867V22.6084H11.5537V24Z" fill="black"/>
<path d="M9.01953 39H4.53223V37.9795C4.85449 37.6735 5.15885 37.3805 5.44531 37.1006C5.73177 36.8206 6.01172 36.5293 6.28516 36.2266C6.83854 35.6178 7.21615 35.1312 7.41797 34.7666C7.61979 34.3988 7.7207 34.0195 7.7207 33.6289C7.7207 33.4271 7.68815 33.2497 7.62305 33.0967C7.5612 32.9437 7.47493 32.8167 7.36426 32.7158C7.25033 32.6182 7.11849 32.5449 6.96875 32.4961C6.81901 32.4473 6.65462 32.4229 6.47559 32.4229C6.30306 32.4229 6.12728 32.4456 5.94824 32.4912C5.77246 32.5335 5.60319 32.5872 5.44043 32.6523C5.30371 32.7077 5.17188 32.7744 5.04492 32.8525C4.91797 32.9307 4.81543 32.9974 4.7373 33.0527H4.68359V32.0176C4.88542 31.9167 5.16536 31.819 5.52344 31.7246C5.88477 31.627 6.22656 31.5781 6.54883 31.5781C7.22591 31.5781 7.75651 31.7588 8.14062 32.1201C8.52474 32.4782 8.7168 32.9648 8.7168 33.5801C8.7168 33.8633 8.68262 34.1253 8.61426 34.3662C8.54915 34.6071 8.45801 34.8301 8.34082 35.0352C8.22038 35.2467 8.07552 35.4567 7.90625 35.665C7.73698 35.8734 7.55794 36.0785 7.36914 36.2803C7.06315 36.6123 6.72135 36.9574 6.34375 37.3154C5.9694 37.6735 5.66992 37.9567 5.44531 38.165H9.01953V39ZM11.5537 39H10.3867V37.6084H11.5537V39Z" fill="black"/>
<path d="M6.49512 47.4229C6.31934 47.4229 6.14355 47.444 5.96777 47.4863C5.79199 47.5286 5.61947 47.584 5.4502 47.6523C5.29395 47.7174 5.15723 47.7858 5.04004 47.8574C4.92611 47.929 4.82357 47.9958 4.73242 48.0576H4.67383V47.0273C4.88542 46.9134 5.17188 46.8109 5.5332 46.7197C5.89779 46.6253 6.24447 46.5781 6.57324 46.5781C6.90202 46.5781 7.18848 46.6123 7.43262 46.6807C7.68001 46.7458 7.90299 46.8483 8.10156 46.9883C8.31641 47.1445 8.47754 47.3333 8.58496 47.5547C8.69564 47.776 8.75098 48.0348 8.75098 48.3311C8.75098 48.7314 8.61914 49.083 8.35547 49.3857C8.0918 49.6885 7.77604 49.8805 7.4082 49.9619V50.0303C7.5612 50.0596 7.72396 50.11 7.89648 50.1816C8.07227 50.2533 8.23503 50.359 8.38477 50.499C8.53451 50.639 8.65658 50.8197 8.75098 51.041C8.84538 51.2591 8.89258 51.526 8.89258 51.8418C8.89258 52.1706 8.83561 52.4733 8.72168 52.75C8.611 53.0234 8.45312 53.266 8.24805 53.4775C8.03646 53.6989 7.78092 53.8665 7.48145 53.9805C7.18197 54.0944 6.8418 54.1514 6.46094 54.1514C6.09635 54.1514 5.73503 54.1074 5.37695 54.0195C5.01888 53.9316 4.71777 53.8258 4.47363 53.7021V52.6719H4.54199C4.74707 52.8216 5.02214 52.9648 5.36719 53.1016C5.71224 53.2383 6.05729 53.3066 6.40234 53.3066C6.60091 53.3066 6.79948 53.2757 6.99805 53.2139C7.19987 53.1488 7.36751 53.0446 7.50098 52.9014C7.63118 52.7581 7.73047 52.6003 7.79883 52.4277C7.86719 52.2552 7.90137 52.0371 7.90137 51.7734C7.90137 51.5098 7.8623 51.2933 7.78418 51.124C7.70931 50.9548 7.60352 50.8213 7.4668 50.7236C7.33008 50.626 7.16732 50.5592 6.97852 50.5234C6.79297 50.4844 6.59115 50.4648 6.37305 50.4648H5.95801V49.6543H6.28027C6.71973 49.6543 7.07617 49.5501 7.34961 49.3418C7.6263 49.1335 7.76465 48.8307 7.76465 48.4336C7.76465 48.2513 7.72884 48.0951 7.65723 47.9648C7.58561 47.8314 7.49447 47.7256 7.38379 47.6475C7.26009 47.5628 7.12337 47.5042 6.97363 47.4717C6.82389 47.4391 6.66439 47.4229 6.49512 47.4229ZM11.5537 54H10.3867V52.6084H11.5537V54Z" fill="black"/>
<path d="M9.20996 66.5H8.3457V69H7.4082V66.5H4.19531V65.4746L7.44727 61.7295H8.3457V65.7188H9.20996V66.5ZM7.4082 65.7188V62.877L4.95703 65.7188H7.4082ZM11.4561 69H10.2891V67.6084H11.4561V69Z" fill="black"/>
<path d="M8.93652 81.6855C8.93652 82.0371 8.87956 82.3626 8.76562 82.6621C8.65495 82.9616 8.4987 83.2204 8.29688 83.4385C8.0918 83.6598 7.83626 83.834 7.53027 83.9609C7.22754 84.0879 6.88737 84.1514 6.50977 84.1514C6.16146 84.1514 5.81803 84.1123 5.47949 84.0342C5.14421 83.9593 4.85286 83.86 4.60547 83.7363V82.7061H4.67383C4.7487 82.7614 4.85612 82.8249 4.99609 82.8965C5.13607 82.9648 5.29069 83.0299 5.45996 83.0918C5.65202 83.1602 5.8278 83.2139 5.9873 83.2529C6.14681 83.2887 6.32585 83.3066 6.52441 83.3066C6.71973 83.3066 6.91016 83.2725 7.0957 83.2041C7.28125 83.1325 7.44076 83.0186 7.57422 82.8623C7.69466 82.7191 7.78581 82.5514 7.84766 82.3594C7.91276 82.1673 7.94531 81.9411 7.94531 81.6807C7.94531 81.4235 7.90951 81.2119 7.83789 81.0459C7.76953 80.8799 7.66862 80.7432 7.53516 80.6357C7.39518 80.512 7.22266 80.4258 7.01758 80.377C6.81576 80.3249 6.58952 80.2988 6.33887 80.2988C6.0752 80.2988 5.8099 80.32 5.54297 80.3623C5.27604 80.4014 5.06283 80.4388 4.90332 80.4746V76.7295H8.89258V77.584H5.8457V79.5176C5.96289 79.5046 6.07845 79.4948 6.19238 79.4883C6.30632 79.4818 6.41048 79.4785 6.50488 79.4785C6.87598 79.4785 7.1901 79.5094 7.44727 79.5713C7.70443 79.6331 7.95182 79.7536 8.18945 79.9326C8.43034 80.1149 8.61426 80.3428 8.74121 80.6162C8.87142 80.8896 8.93652 81.2461 8.93652 81.6855ZM11.5537 84H10.3867V82.6084H11.5537V84Z" fill="black"/>
<line x1="239.5" y1="12" x2="239.5" y2="103.001" stroke="#DCDCDC"/>
</g>
<defs>
<clipPath id="clip0_8508_36">
<rect width="240" height="103" fill="white"/>
</clipPath>
</defs>
</svg>
