<svg width="176" height="386" viewBox="0 0 176 386" fill="none" xmlns="http://www.w3.org/2000/svg">
<g clip-path="url(#clip0_8505_138)">
<rect width="176" height="386" fill="white"/>
<rect y="351" width="176" height="35" fill="#DCDCDC"/>
<rect y="76" width="176" height="27" fill="#DCDCDC"/>
<rect y="211" width="176" height="27" fill="#DCDCDC"/>
<rect y="104" width="176" height="27" fill="#DCDCDC"/>
<rect y="239" width="176" height="27" fill="#DCDCDC"/>
<rect y="132" width="176" height="27" fill="#DCDCDC"/>
<rect y="267" width="176" height="27" fill="#DCDCDC"/>
<rect y="160" width="176" height="27" fill="#DCDCDC"/>
<rect y="295" width="176" height="27" fill="#DCDCDC"/>
<rect y="323" width="176" height="27" fill="#97CCF6"/>
<rect y="53" width="176" height="22" fill="#7F170E"/>
<rect y="188" width="176" height="22" fill="#7F170E"/>
<rect width="176" height="52" fill="#F7CE55"/>
<path d="M54.031 65.8601C54.031 66.3372 53.9366 66.7563 53.7477 67.1173C53.5589 67.4784 53.305 67.7771 52.9858 68.0135C52.6082 68.2972 52.1924 68.4992 51.7383 68.6196C51.2888 68.74 50.7156 68.8001 50.0188 68.8001H46V59.1999H49.5468C50.2841 59.1999 50.8415 59.2278 51.2191 59.2837C51.6012 59.3353 51.9586 59.447 52.2913 59.619C52.6509 59.8038 52.9184 60.0509 53.0937 60.3604C53.2735 60.6699 53.3634 61.0266 53.3634 61.4307C53.3634 61.8992 53.2398 62.3161 52.9925 62.6815C52.7498 63.0469 52.4126 63.3155 51.9811 63.4874V63.539C52.6014 63.6637 53.0982 63.9194 53.4713 64.3063C53.8444 64.6888 54.031 65.2067 54.031 65.8601ZM50.801 61.9142C50.801 61.7595 50.7583 61.6005 50.6729 61.4371C50.592 61.2738 50.4639 61.1556 50.2886 61.0825C50.1222 61.0138 49.9244 60.9772 49.6952 60.9729C49.4704 60.9643 49.1333 60.96 48.6837 60.96H48.5084V62.991H48.8253C49.2569 62.991 49.5581 62.9867 49.7289 62.9781C49.9042 62.9695 50.084 62.9244 50.2683 62.8427C50.4706 62.7524 50.61 62.6278 50.6864 62.4687C50.7628 62.3097 50.801 62.1249 50.801 61.9142ZM51.4349 65.815C51.4349 65.5184 51.372 65.2863 51.2461 65.1186C51.1202 64.951 50.9314 64.8242 50.6797 64.7382C50.5268 64.6824 50.3155 64.6523 50.0458 64.648C49.7806 64.6394 49.4232 64.6351 48.9737 64.6351H48.5084V67.04H48.6433C49.2996 67.04 49.7536 67.0357 50.0054 67.0271C50.2571 67.0185 50.5133 66.9605 50.7741 66.853C51.0033 66.7584 51.1697 66.6209 51.2731 66.4404C51.3809 66.2555 51.4349 66.0471 51.4349 65.815Z" fill="white"/>
<path d="M64.6243 64.0032C64.6243 65.5549 64.1905 66.7756 63.3229 67.6654C62.4552 68.5551 61.2662 69 59.7558 69C58.2409 69 57.0518 68.5508 56.1887 67.6525C55.3256 66.7498 54.8941 65.5334 54.8941 64.0032C54.8941 62.4601 55.3256 61.2416 56.1887 60.3475C57.0518 59.4492 58.2409 59 59.7558 59C61.2662 59 62.4552 59.447 63.3229 60.3411C64.1905 61.2308 64.6243 62.4515 64.6243 64.0032ZM62.0214 63.9968C62.0214 63.4251 61.9585 62.9394 61.8326 62.5397C61.7113 62.1356 61.5472 61.8046 61.3404 61.5467C61.1246 61.2845 60.8796 61.0976 60.6054 60.9858C60.3357 60.8698 60.0547 60.8117 59.7625 60.8117C59.4524 60.8117 59.1714 60.8655 58.9197 60.9729C58.6679 61.0761 58.4252 61.2631 58.1914 61.5338C57.9846 61.7832 57.816 62.1141 57.6857 62.5268C57.5598 62.9394 57.4969 63.4315 57.4969 64.0032C57.4969 64.5921 57.5576 65.0821 57.6789 65.4732C57.8003 65.8601 57.9666 66.1846 58.1779 66.4468C58.3937 66.7133 58.6387 66.9046 58.9129 67.0206C59.1871 67.1324 59.4703 67.1883 59.7625 67.1883C60.0592 67.1883 60.3469 67.1281 60.6256 67.0077C60.9044 66.8831 61.1449 66.6918 61.3471 66.4339C61.5629 66.1545 61.7292 65.83 61.8461 65.4603C61.963 65.0864 62.0214 64.5985 62.0214 63.9968Z" fill="white"/>
<path d="M74.6174 68.8001H71.691L69.7625 65.7376L67.7935 68.8001H65.0019L68.2588 63.9645L65.13 59.1999H68.0497L69.8569 62.0948L71.7112 59.1999H74.5095L71.3605 63.8678L74.6174 68.8001Z" fill="white"/>
<path d="M88.7643 64.0032C88.7643 65.5549 88.3305 66.7756 87.4629 67.6654C86.5953 68.5551 85.4063 69 83.8958 69C82.3809 69 81.1919 68.5508 80.3288 67.6525C79.4657 66.7498 79.0341 65.5334 79.0341 64.0032C79.0341 62.4601 79.4657 61.2416 80.3288 60.3475C81.1919 59.4492 82.3809 59 83.8958 59C85.4063 59 86.5953 59.447 87.4629 60.3411C88.3305 61.2308 88.7643 62.4515 88.7643 64.0032ZM86.1615 63.9968C86.1615 63.4251 86.0986 62.9394 85.9727 62.5397C85.8513 62.1356 85.6872 61.8046 85.4805 61.5467C85.2647 61.2845 85.0197 61.0976 84.7455 60.9858C84.4757 60.8698 84.1948 60.8117 83.9026 60.8117C83.5924 60.8117 83.3115 60.8655 83.0597 60.9729C82.808 61.0761 82.5652 61.2631 82.3315 61.5338C82.1247 61.7832 81.9561 62.1141 81.8257 62.5268C81.6999 62.9394 81.6369 63.4315 81.6369 64.0032C81.6369 64.5921 81.6976 65.0821 81.819 65.4732C81.9404 65.8601 82.1067 66.1846 82.318 66.4468C82.5338 66.7133 82.7788 66.9046 83.053 67.0206C83.3272 67.1324 83.6104 67.1883 83.9026 67.1883C84.1993 67.1883 84.487 67.1281 84.7657 67.0077C85.0444 66.8831 85.2849 66.6918 85.4872 66.4339C85.703 66.1545 85.8693 65.83 85.9862 65.4603C86.1031 65.0864 86.1615 64.5985 86.1615 63.9968Z" fill="white"/>
<path d="M96.9841 61.0309H92.7697V62.8427H96.6469V64.6738H92.7697V68.8001H90.2613V59.1999H96.9841V61.0309Z" fill="white"/>
<path d="M105.008 61.0309H100.794V62.8427H104.671V64.6738H100.794V68.8001H98.2855V59.1999H105.008V61.0309Z" fill="white"/>
<path d="M111.313 68.8001H105.905V67.1238H107.348V60.8762H105.905V59.1999H111.313V60.8762H109.87V67.1238H111.313V68.8001Z" fill="white"/>
<path d="M117.314 68.9871C115.808 68.9871 114.613 68.553 113.727 67.6847C112.841 66.8122 112.399 65.5871 112.399 64.0097C112.399 62.4881 112.841 61.276 113.727 60.3733C114.617 59.4664 115.815 59.0129 117.321 59.0129C117.721 59.0129 118.081 59.0344 118.4 59.0774C118.719 59.1204 119.025 59.1805 119.317 59.2579C119.546 59.3224 119.796 59.4105 120.065 59.5222C120.335 59.634 120.553 59.7307 120.72 59.8124V62.1012H120.463C120.342 61.9981 120.189 61.8756 120.005 61.7337C119.82 61.5876 119.611 61.4457 119.378 61.3082C119.144 61.1706 118.885 61.0546 118.602 60.96C118.324 60.8612 118.031 60.8117 117.726 60.8117C117.362 60.8117 117.027 60.8676 116.721 60.9794C116.42 61.0868 116.132 61.276 115.858 61.5467C115.606 61.7917 115.399 62.1227 115.237 62.5397C115.08 62.9566 115.001 63.4487 115.001 64.0161C115.001 64.6136 115.085 65.1165 115.251 65.5248C115.417 65.9289 115.635 66.2555 115.905 66.5048C116.166 66.7455 116.456 66.9196 116.775 67.0271C117.099 67.1345 117.42 67.1883 117.739 67.1883C118.072 67.1883 118.389 67.1367 118.69 67.0335C118.991 66.9261 119.245 66.8079 119.452 66.6789C119.677 66.5457 119.874 66.4103 120.045 66.2727C120.216 66.1352 120.364 66.0127 120.49 65.9052H120.72V68.1618C120.535 68.2435 120.322 68.3381 120.079 68.4455C119.836 68.5487 119.587 68.6368 119.33 68.7099C119.016 68.8001 118.721 68.8689 118.447 68.9162C118.173 68.9635 117.795 68.9871 117.314 68.9871Z" fill="white"/>
<path d="M122.21 68.8001V59.1999H129V61.0309H124.718V62.7137H128.663V64.5448H124.718V66.9691H129V68.8001H122.21Z" fill="white"/>
<path d="M16.7218 89.0121C16.7218 90.1296 16.4544 91.1316 15.9197 92.0181C15.3851 92.8993 14.7094 93.5762 13.8927 94.049C13.2111 94.452 12.4678 94.7126 11.6629 94.8308C10.8638 94.9436 10.0119 95 9.10702 95H5V83H9.07177C9.99423 83 10.8579 83.0537 11.6629 83.1612C12.4678 83.2686 13.2229 83.5292 13.9279 83.9429C14.7916 84.448 15.4732 85.1303 15.9726 85.9899C16.472 86.8442 16.7218 87.8516 16.7218 89.0121ZM13.3374 88.9879C13.3374 88.1981 13.1876 87.5238 12.8879 86.9651C12.5942 86.4009 12.1388 85.9604 11.5219 85.6434C11.0753 85.4177 10.6053 85.2942 10.1117 85.2727C9.62407 85.2512 9.03945 85.2404 8.35788 85.2404H8.29619V92.7515H8.35788C9.09821 92.7515 9.72102 92.7408 10.2263 92.7193C10.7375 92.6924 11.2222 92.5473 11.6805 92.2841C12.2211 91.9725 12.6324 91.5426 12.9144 90.9946C13.1964 90.4466 13.3374 89.7777 13.3374 88.9879Z" fill="#00239C"/>
<path d="M17.2682 95L21.7013 83H25.2971L29.7302 95H26.3371L25.5175 92.55H21.3928L20.5732 95H17.2682ZM24.7948 90.3741L23.4551 86.4171L22.1155 90.3741H24.7948Z" fill="#00239C"/>
<path d="M37.5741 95H30.5058V92.9046H32.3919V85.0954H30.5058V83H37.5741V85.0954H35.6881V92.9046H37.5741V95Z" fill="#00239C"/>
<path d="M48.5203 95H39.7598V83H43.056V92.7112H48.5203V95Z" fill="#00239C"/>
<path d="M61 83L56.4699 89.9872V95H53.1738V90.1404L48.5644 83H52.3189L54.8924 87.2874L57.3689 83H61Z" fill="#00239C"/>
<path d="M18.1102 257.76H14.9037V250.124L12.5679 255.052H10.3699L8.03404 250.124V257.76H5V246.24H8.71497L11.5594 251.926L14.3952 246.24H18.1102V257.76Z" fill="#00239C"/>
<path d="M32.4615 252.004C32.4615 253.866 31.907 255.331 30.798 256.398C29.6889 257.466 28.169 258 26.2383 258C24.3018 258 22.7819 257.461 21.6786 256.383C20.5753 255.3 20.0237 253.84 20.0237 252.004C20.0237 250.152 20.5753 248.69 21.6786 247.617C22.7819 246.539 24.3018 246 26.2383 246C28.169 246 29.6889 246.536 30.798 247.609C31.907 248.677 32.4615 250.142 32.4615 252.004ZM29.1344 251.996C29.1344 251.31 29.054 250.727 28.8931 250.248C28.7379 249.763 28.5282 249.366 28.2638 249.056C27.988 248.741 27.6748 248.517 27.3243 248.383C26.9795 248.244 26.6204 248.174 26.2469 248.174C25.8504 248.174 25.4913 248.239 25.1695 248.368C24.8477 248.491 24.5374 248.716 24.2386 249.041C23.9742 249.34 23.7588 249.737 23.5921 250.232C23.4312 250.727 23.3508 251.318 23.3508 252.004C23.3508 252.711 23.4283 253.299 23.5835 253.768C23.7386 254.232 23.9513 254.622 24.2213 254.936C24.4972 255.256 24.8103 255.485 25.1608 255.625C25.5114 255.759 25.8734 255.826 26.2469 255.826C26.6261 255.826 26.9939 255.754 27.3502 255.609C27.7065 255.46 28.0139 255.23 28.2725 254.921C28.5483 254.585 28.7609 254.196 28.9103 253.752C29.0597 253.304 29.1344 252.718 29.1344 251.996Z" fill="#00239C"/>
<path d="M45.0976 246.24L40.6844 257.76H37.3229L32.9097 246.24H36.2541L39.0467 254.046L41.8394 246.24H45.0976Z" fill="#00239C"/>
<path d="M52.6827 257.76H45.7699V255.749H47.6145V248.251H45.7699V246.24H52.6827V248.251H50.8381V255.749H52.6827V257.76Z" fill="#00239C"/>
<path d="M54.8203 257.76V246.24H63.5001V248.437H58.0267V250.456H63.0691V252.654H58.0267V255.563H63.5001V257.76H54.8203Z" fill="#00239C"/>
<path d="M81.8508 257.76H78.7478L73.8003 249.729V257.76H70.8524V246.24H74.8088L78.903 252.839V246.24H81.8508V257.76Z" fill="#00239C"/>
<path d="M84.4539 257.76V246.24H93.1337V248.437H87.6603V250.456H92.7027V252.654H87.6603V255.563H93.1337V257.76H84.4539Z" fill="#00239C"/>
<path d="M111.872 246.24L108.623 257.76H105.089L103.029 250.634L101.029 257.76H97.4951L94.2456 246.24H97.5899L99.3569 253.969L101.512 246.24H104.71L106.752 253.969L108.614 246.24H111.872Z" fill="#00239C"/>
<path d="M117.432 257.969C116.449 257.969 115.584 257.884 114.837 257.714C114.096 257.544 113.407 257.332 112.769 257.079V254.34H113.062C113.705 254.83 114.415 255.207 115.191 255.47C115.967 255.733 116.719 255.865 117.449 255.865C117.633 255.865 117.874 255.847 118.173 255.81C118.478 255.774 118.722 255.718 118.906 255.64C119.13 255.553 119.319 255.431 119.475 255.277C119.63 255.117 119.707 254.908 119.707 254.65C119.707 254.361 119.581 254.126 119.328 253.946C119.075 253.765 118.774 253.634 118.423 253.551C117.986 253.448 117.518 253.35 117.018 253.257C116.524 253.164 116.061 253.051 115.63 252.917C114.636 252.602 113.924 252.179 113.493 251.648C113.062 251.117 112.846 250.451 112.846 249.652C112.846 248.574 113.355 247.702 114.372 247.037C115.389 246.366 116.659 246.031 118.182 246.031C118.946 246.031 119.704 246.101 120.457 246.24C121.216 246.379 121.894 246.567 122.491 246.805V249.435H122.207C121.73 249.069 121.147 248.76 120.457 248.507C119.773 248.254 119.07 248.128 118.346 248.128C118.064 248.128 117.811 248.146 117.587 248.182C117.363 248.218 117.127 248.288 116.88 248.391C116.679 248.473 116.504 248.597 116.354 248.762C116.211 248.922 116.139 249.103 116.139 249.304C116.139 249.598 116.254 249.832 116.484 250.008C116.719 250.178 117.17 250.333 117.837 250.472C118.268 250.56 118.682 250.645 119.078 250.727C119.48 250.81 119.908 250.923 120.362 251.068C121.253 251.357 121.914 251.746 122.345 252.236C122.782 252.721 123 253.363 123 254.162C123 255.308 122.497 256.228 121.492 256.925C120.492 257.621 119.138 257.969 117.432 257.969Z" fill="#00239C"/>
<path d="M9.49935 313.969C8.55124 313.969 7.7168 313.884 6.99601 313.714C6.28078 313.544 5.61544 313.332 5 313.079V310.34H5.28277C5.90375 310.83 6.58849 311.207 7.337 311.47C8.0855 311.733 8.81183 311.865 9.51598 311.865C9.6934 311.865 9.92627 311.847 10.2146 311.81C10.5084 311.774 10.7441 311.718 10.9215 311.64C11.1377 311.553 11.3207 311.431 11.4704 311.277C11.6201 311.117 11.695 310.908 11.695 310.65C11.695 310.361 11.573 310.126 11.329 309.946C11.0851 309.765 10.794 309.634 10.4558 309.551C10.0344 309.448 9.58251 309.35 9.10014 309.257C8.62332 309.164 8.17699 309.051 7.76115 308.917C6.80196 308.602 6.11444 308.179 5.6986 307.648C5.28277 307.117 5.07485 306.451 5.07485 305.652C5.07485 304.574 5.56554 303.702 6.54691 303.037C7.52828 302.366 8.75361 302.031 10.2229 302.031C10.9603 302.031 11.6922 302.101 12.4185 302.24C13.1504 302.379 13.8046 302.567 14.3813 302.805V305.435H14.1068C13.6466 305.069 13.0839 304.76 12.4185 304.507C11.7587 304.254 11.0795 304.128 10.3809 304.128C10.1092 304.128 9.86528 304.146 9.64905 304.182C9.43281 304.218 9.20549 304.288 8.96708 304.391C8.77302 304.473 8.60391 304.597 8.45976 304.762C8.32114 304.922 8.25184 305.103 8.25184 305.304C8.25184 305.598 8.36273 305.832 8.58451 306.008C8.81183 306.178 9.24707 306.333 9.89023 306.472C10.3061 306.56 10.7053 306.645 11.0878 306.727C11.476 306.81 11.889 306.923 12.327 307.068C13.1864 307.357 13.824 307.746 14.2399 308.236C14.6613 308.721 14.872 309.363 14.872 310.162C14.872 311.308 14.3868 312.228 13.4165 312.925C12.4518 313.621 11.1461 313.969 9.49935 313.969Z" fill="#00239C"/>
<path d="M26.9229 313.76H23.8124V308.654H19.5792V313.76H16.4688V302.24H19.5792V306.456H23.8124V302.24H26.9229V313.76Z" fill="#00239C"/>
<path d="M40.7702 308.004C40.7702 309.866 40.2352 311.331 39.1651 312.398C38.095 313.466 36.6285 314 34.7656 314C32.8971 314 31.4305 313.461 30.366 312.383C29.3015 311.3 28.7692 309.84 28.7692 308.004C28.7692 306.152 29.3015 304.69 30.366 303.617C31.4305 302.539 32.8971 302 34.7656 302C36.6285 302 38.095 302.536 39.1651 303.609C40.2352 304.677 40.7702 306.142 40.7702 308.004ZM37.56 307.996C37.56 307.31 37.4823 306.727 37.3271 306.248C37.1774 305.763 36.975 305.366 36.72 305.056C36.4538 304.741 36.1517 304.517 35.8135 304.383C35.4808 304.244 35.1343 304.174 34.7739 304.174C34.3913 304.174 34.0448 304.239 33.7343 304.368C33.4238 304.491 33.1244 304.716 32.8361 305.041C32.581 305.34 32.3731 305.737 32.2123 306.232C32.0571 306.727 31.9794 307.318 31.9794 308.004C31.9794 308.711 32.0543 309.299 32.204 309.768C32.3537 310.232 32.5588 310.622 32.8194 310.936C33.0856 311.256 33.3877 311.485 33.726 311.625C34.0642 311.759 34.4135 311.826 34.7739 311.826C35.1398 311.826 35.4947 311.754 35.8384 311.609C36.1822 311.46 36.4788 311.23 36.7283 310.921C36.9944 310.585 37.1996 310.196 37.3437 309.752C37.4879 309.304 37.56 308.718 37.56 307.996Z" fill="#00239C"/>
<path d="M58.593 302.24L55.4576 313.76H52.0477L50.06 306.634L48.1305 313.76H44.7207L41.5853 302.24H44.8122L46.5171 309.969L48.5963 302.24H51.6818L53.6528 309.969L55.4492 302.24H58.593Z" fill="#00239C"/>
<path d="M71.1928 308.012C71.1928 309.084 70.9405 310.046 70.436 310.897C69.9314 311.743 69.2938 312.393 68.5231 312.847C67.88 313.234 67.1786 313.484 66.419 313.598C65.6649 313.706 64.861 313.76 64.0071 313.76H60.1316V302.24H63.9739C64.8444 302.24 65.6594 302.291 66.419 302.395C67.1786 302.498 67.8911 302.748 68.5564 303.145C69.3714 303.63 70.0146 304.285 70.4859 305.11C70.9572 305.93 71.1928 306.897 71.1928 308.012ZM67.9992 307.988C67.9992 307.23 67.8578 306.583 67.575 306.046C67.2978 305.505 66.8681 305.082 66.2859 304.778C65.8646 304.561 65.421 304.442 64.9553 304.422C64.4951 304.401 63.9434 304.391 63.3002 304.391H63.242V311.602H63.3002C63.9988 311.602 64.5865 311.591 65.0634 311.571C65.5457 311.545 66.0032 311.406 66.4356 311.153C66.9457 310.854 67.3338 310.441 67.6 309.915C67.8661 309.389 67.9992 308.747 67.9992 307.988Z" fill="#00239C"/>
<path d="M84.3166 308.004C84.3166 309.866 83.7815 311.331 82.7115 312.398C81.6414 313.466 80.1749 314 78.3119 314C76.4434 314 74.9769 313.461 73.9124 312.383C72.8478 311.3 72.3156 309.84 72.3156 308.004C72.3156 306.152 72.8478 304.69 73.9124 303.617C74.9769 302.539 76.4434 302 78.3119 302C80.1749 302 81.6414 302.536 82.7115 303.609C83.7815 304.677 84.3166 306.142 84.3166 308.004ZM81.1063 307.996C81.1063 307.31 81.0287 306.727 80.8735 306.248C80.7238 305.763 80.5214 305.366 80.2663 305.056C80.0002 304.741 79.698 304.517 79.3598 304.383C79.0272 304.244 78.6806 304.174 78.3202 304.174C77.9377 304.174 77.5911 304.239 77.2806 304.368C76.9701 304.491 76.6707 304.716 76.3824 305.041C76.1274 305.34 75.9195 305.737 75.7587 306.232C75.6034 306.727 75.5258 307.318 75.5258 308.004C75.5258 308.711 75.6007 309.299 75.7504 309.768C75.9001 310.232 76.1052 310.622 76.3658 310.936C76.6319 311.256 76.9341 311.485 77.2723 311.625C77.6105 311.759 77.9598 311.826 78.3202 311.826C78.6862 311.826 79.041 311.754 79.3848 311.609C79.7285 311.46 80.0252 311.23 80.2747 310.921C80.5408 310.585 80.7459 310.196 80.8901 309.752C81.0343 309.304 81.1063 308.718 81.1063 307.996Z" fill="#00239C"/>
<path d="M102.139 302.24L99.0039 313.76H95.5941L93.6064 306.634L91.6769 313.76H88.267L85.1316 302.24H88.3585L90.0634 309.969L92.1426 302.24H95.2281L97.1992 309.969L98.9956 302.24H102.139Z" fill="#00239C"/>
<path d="M114.29 313.76H111.296L106.522 305.729V313.76H103.678V302.24H107.495L111.446 308.839V302.24H114.29V313.76Z" fill="#00239C"/>
<path d="M120.627 313.969C119.679 313.969 118.845 313.884 118.124 313.714C117.409 313.544 116.743 313.332 116.128 313.079V310.34H116.411C117.032 310.83 117.717 311.207 118.465 311.47C119.214 311.733 119.94 311.865 120.644 311.865C120.821 311.865 121.054 311.847 121.343 311.81C121.636 311.774 121.872 311.718 122.05 311.64C122.266 311.553 122.449 311.431 122.598 311.277C122.748 311.117 122.823 310.908 122.823 310.65C122.823 310.361 122.701 310.126 122.457 309.946C122.213 309.765 121.922 309.634 121.584 309.551C121.162 309.448 120.711 309.35 120.228 309.257C119.751 309.164 119.305 309.051 118.889 308.917C117.93 308.602 117.242 308.179 116.827 307.648C116.411 307.117 116.203 306.451 116.203 305.652C116.203 304.574 116.694 303.702 117.675 303.037C118.656 302.366 119.882 302.031 121.351 302.031C122.088 302.031 122.82 302.101 123.547 302.24C124.278 302.379 124.933 302.567 125.509 302.805V305.435H125.235C124.775 305.069 124.212 304.76 123.547 304.507C122.887 304.254 122.208 304.128 121.509 304.128C121.237 304.128 120.993 304.146 120.777 304.182C120.561 304.218 120.334 304.288 120.095 304.391C119.901 304.473 119.732 304.597 119.588 304.762C119.449 304.922 119.38 305.103 119.38 305.304C119.38 305.598 119.491 305.832 119.713 306.008C119.94 306.178 120.375 306.333 121.018 306.472C121.434 306.56 121.833 306.645 122.216 306.727C122.604 306.81 123.017 306.923 123.455 307.068C124.314 307.357 124.952 307.746 125.368 308.236C125.789 308.721 126 309.363 126 310.162C126 311.308 125.515 312.228 124.545 312.925C123.58 313.621 122.274 313.969 120.627 313.969Z" fill="#00239C"/>
<path d="M25.1549 196.031H20.6696V197.843H24.7961V199.674H20.6696V203.8H18V194.2H25.1549V196.031Z" fill="white"/>
<path d="M26.5399 203.8V194.2H33.7666V196.031H29.2096V197.714H33.4078V199.545H29.2096V201.969H33.7666V203.8H26.5399Z" fill="white"/>
<path d="M34.434 203.8L38.0437 194.2H40.9717L44.5814 203.8H41.8185L41.1511 201.84H37.7926L37.1251 203.8H34.434ZM40.5627 200.099L39.4718 196.934L38.381 200.099H40.5627Z" fill="white"/>
<path d="M47.696 203.8V196.031H44.5384V194.2H53.5376V196.031H50.38V203.8H47.696Z" fill="white"/>
<path d="M58.963 204C57.5277 204 56.4225 203.688 55.6475 203.065C54.8772 202.442 54.4921 201.531 54.4921 200.331V194.2H57.1761V200.19C57.1761 200.856 57.3148 201.352 57.5923 201.679C57.8746 202.006 58.3315 202.169 58.963 202.169C59.5802 202.169 60.0323 202.012 60.3193 201.698C60.6112 201.384 60.7571 200.882 60.7571 200.19V194.2H63.4411V200.325C63.4411 201.507 63.0631 202.416 62.3072 203.052C61.5561 203.684 60.4413 204 58.963 204Z" fill="white"/>
<path d="M75.3898 203.8H72.1174L69.1391 200.28H68.1775V203.8H65.5079V194.2H69.8065C70.3998 194.2 70.9165 194.234 71.3567 194.303C71.7968 194.368 72.2035 194.505 72.5766 194.716C72.9594 194.935 73.2632 195.214 73.488 195.554C73.7129 195.889 73.8253 196.317 73.8253 196.837C73.8253 197.572 73.6411 198.169 73.2728 198.629C72.9044 199.085 72.4116 199.448 71.7944 199.719L75.3898 203.8ZM71.0696 197.14C71.0696 196.899 71.017 196.693 70.9117 196.521C70.8112 196.345 70.6414 196.209 70.4022 196.115C70.2347 196.05 70.0482 196.009 69.8424 195.992C69.6367 195.975 69.3807 195.966 69.0746 195.966H68.1775V198.552H68.9454C69.3186 198.552 69.6343 198.533 69.8927 198.494C70.1558 198.451 70.3783 198.363 70.5601 198.23C70.7323 198.109 70.8591 197.965 70.9404 197.798C71.0265 197.63 71.0696 197.411 71.0696 197.14Z" fill="white"/>
<path d="M76.1864 203.8V194.2H83.413V196.031H78.856V197.714H83.0542V199.545H78.856V201.969H83.413V203.8H76.1864Z" fill="white"/>
<path d="M88.5298 203.974C87.7117 203.974 86.9917 203.903 86.3697 203.761C85.7525 203.62 85.1784 203.443 84.6474 203.233V200.95H84.8914C85.4272 201.359 86.0181 201.672 86.6639 201.892C87.3098 202.111 87.9366 202.221 88.5442 202.221C88.6973 202.221 88.8982 202.205 89.147 202.175C89.4006 202.145 89.6039 202.098 89.757 202.034C89.9436 201.96 90.1015 201.859 90.2306 201.73C90.3598 201.597 90.4244 201.423 90.4244 201.208C90.4244 200.968 90.3191 200.772 90.1086 200.622C89.8981 200.471 89.6469 200.361 89.3551 200.293C88.9915 200.207 88.6016 200.125 88.1853 200.048C87.7739 199.97 87.3888 199.876 87.0299 199.764C86.2023 199.502 85.609 199.149 85.2502 198.707C84.8914 198.264 84.712 197.709 84.712 197.043C84.712 196.145 85.1354 195.418 85.9822 194.864C86.829 194.305 87.8863 194.026 89.1542 194.026C89.7905 194.026 90.422 194.084 91.0487 194.2C91.6803 194.316 92.2448 194.473 92.7424 194.671V196.863H92.5056C92.1085 196.557 91.6229 196.3 91.0487 196.089C90.4794 195.878 89.8933 195.773 89.2905 195.773C89.0561 195.773 88.8456 195.788 88.659 195.818C88.4724 195.848 88.2763 195.906 88.0705 195.992C87.9031 196.061 87.7572 196.164 87.6328 196.302C87.5132 196.435 87.4534 196.585 87.4534 196.753C87.4534 196.998 87.549 197.194 87.7404 197.34C87.9366 197.482 88.3121 197.611 88.8671 197.727C89.2259 197.8 89.5704 197.871 89.9005 197.939C90.2354 198.008 90.5918 198.103 90.9698 198.223C91.7114 198.464 92.2616 198.788 92.6204 199.197C92.984 199.601 93.1658 200.136 93.1658 200.802C93.1658 201.756 92.7472 202.524 91.9099 203.104C91.0774 203.684 89.9507 203.974 88.5298 203.974Z" fill="white"/>
<path d="M109.643 203.8H106.449L105.516 202.988C105.014 203.353 104.5 203.613 103.973 203.768C103.447 203.923 102.897 204 102.323 204C101.089 204 100.117 203.727 99.4093 203.181C98.706 202.631 98.3543 201.915 98.3543 201.034C98.3543 200.66 98.4093 200.34 98.5194 200.074C98.6342 199.807 98.7825 199.566 98.9643 199.351C99.1318 199.149 99.3279 198.973 99.5528 198.823C99.7824 198.668 100.005 198.535 100.22 198.423C100.014 198.277 99.8303 198.135 99.6676 197.997C99.5097 197.856 99.3686 197.699 99.2442 197.527C99.1198 197.359 99.0241 197.179 98.9571 196.985C98.8902 196.787 98.8567 196.557 98.8567 196.295C98.8567 196.016 98.9189 195.743 99.0433 195.476C99.1677 195.21 99.3734 194.963 99.6604 194.735C99.9284 194.524 100.302 194.35 100.78 194.213C101.258 194.071 101.816 194 102.452 194C103.021 194 103.514 194.054 103.93 194.161C104.347 194.269 104.696 194.413 104.978 194.593C105.251 194.774 105.459 194.993 105.603 195.251C105.751 195.504 105.825 195.779 105.825 196.076C105.825 196.265 105.791 196.48 105.725 196.721C105.662 196.962 105.555 197.179 105.402 197.372C105.215 197.608 104.971 197.821 104.67 198.01C104.373 198.195 103.995 198.356 103.536 198.494L105.588 200.273V198.197H108.093V198.913C108.093 199.089 108.071 199.308 108.028 199.571C107.99 199.828 107.937 200.05 107.87 200.235C107.798 200.445 107.698 200.662 107.569 200.886C107.444 201.109 107.284 201.322 107.088 201.524L109.643 203.671V203.8ZM103.241 196.36C103.241 196.145 103.208 195.971 103.141 195.838C103.079 195.704 102.997 195.601 102.897 195.528C102.806 195.459 102.706 195.416 102.596 195.399C102.486 195.382 102.399 195.373 102.337 195.373C102.265 195.373 102.187 195.382 102.1 195.399C102.014 195.416 101.916 195.461 101.806 195.534C101.72 195.59 101.644 195.683 101.577 195.812C101.51 195.941 101.476 196.093 101.476 196.27C101.476 196.523 101.569 196.762 101.756 196.985C101.947 197.204 102.21 197.439 102.545 197.688C102.775 197.499 102.947 197.297 103.062 197.082C103.182 196.867 103.241 196.626 103.241 196.36ZM104.332 201.898L101.462 199.455C101.385 199.553 101.299 199.717 101.203 199.945C101.112 200.168 101.067 200.404 101.067 200.654C101.067 200.937 101.12 201.185 101.225 201.395C101.335 201.602 101.476 201.773 101.648 201.911C101.821 202.049 102.012 202.152 102.222 202.221C102.438 202.289 102.653 202.324 102.868 202.324C103.165 202.324 103.426 202.294 103.651 202.233C103.88 202.169 104.107 202.057 104.332 201.898Z" fill="white"/>
<path d="M125.553 203.8H122.883V197.436L120.939 201.544H119.109L117.164 197.436V203.8H114.638V194.2H117.731L120.099 198.939L122.46 194.2H125.553V203.8Z" fill="white"/>
<path d="M137.502 199.003C137.502 200.555 137.04 201.776 136.117 202.665C135.193 203.555 133.928 204 132.32 204C130.708 204 129.443 203.551 128.524 202.652C127.605 201.75 127.146 200.533 127.146 199.003C127.146 197.46 127.605 196.242 128.524 195.348C129.443 194.449 130.708 194 132.32 194C133.928 194 135.193 194.447 136.117 195.341C137.04 196.231 137.502 197.452 137.502 199.003ZM134.732 198.997C134.732 198.425 134.665 197.939 134.531 197.54C134.401 197.136 134.227 196.805 134.007 196.547C133.777 196.285 133.516 196.098 133.225 195.986C132.937 195.87 132.638 195.812 132.327 195.812C131.997 195.812 131.698 195.865 131.43 195.973C131.163 196.076 130.904 196.263 130.655 196.534C130.435 196.783 130.256 197.114 130.117 197.527C129.983 197.939 129.916 198.432 129.916 199.003C129.916 199.592 129.981 200.082 130.11 200.473C130.239 200.86 130.416 201.185 130.641 201.447C130.871 201.713 131.131 201.905 131.423 202.021C131.715 202.132 132.017 202.188 132.327 202.188C132.643 202.188 132.949 202.128 133.246 202.008C133.543 201.883 133.799 201.692 134.014 201.434C134.244 201.155 134.421 200.83 134.545 200.46C134.669 200.086 134.732 199.599 134.732 198.997Z" fill="white"/>
<path d="M148.977 203.8H145.704L142.726 200.28H141.764V203.8H139.095V194.2H143.394C143.987 194.2 144.503 194.234 144.944 194.303C145.384 194.368 145.79 194.505 146.164 194.716C146.546 194.935 146.85 195.214 147.075 195.554C147.3 195.889 147.412 196.317 147.412 196.837C147.412 197.572 147.228 198.169 146.86 198.629C146.491 199.085 145.999 199.448 145.381 199.719L148.977 203.8ZM144.657 197.14C144.657 196.899 144.604 196.693 144.499 196.521C144.398 196.345 144.228 196.209 143.989 196.115C143.822 196.05 143.635 196.009 143.429 195.992C143.224 195.975 142.968 195.966 142.662 195.966H141.764V198.552H142.532C142.906 198.552 143.221 198.533 143.48 198.494C143.743 198.451 143.965 198.363 144.147 198.23C144.319 198.109 144.446 197.965 144.527 197.798C144.614 197.63 144.657 197.411 144.657 197.14Z" fill="white"/>
<path d="M149.773 203.8V194.2H157V196.031H152.443V197.714H156.641V199.545H152.443V201.969H157V203.8H149.773Z" fill="white"/>
<path d="M22.5952 111L19.3515 123H15.8239L13.7675 115.578L11.7714 123H8.24372L5 111H8.33836L10.1022 119.051L12.2532 111H15.4453L17.4844 119.051L19.3429 111H22.5952Z" fill="#00239C"/>
<path d="M24.187 123V111H32.8512V113.289H27.3877V115.392H32.421V117.681H27.3877V120.711H32.8512V123H24.187Z" fill="#00239C"/>
<path d="M35.028 123V111H43.6923V113.289H38.2287V115.392H43.2621V117.681H38.2287V120.711H43.6923V123H35.028Z" fill="#00239C"/>
<path d="M57.0974 123H53.2083L49.7151 118.124L49.087 118.946V123H45.8691V111H49.087V116.327L53.1825 111H56.9081L52.3393 116.569L57.0974 123Z" fill="#00239C"/>
<path d="M58.1384 123V111H66.8027V113.289H61.3391V115.392H66.3725V117.681H61.3391V120.711H66.8027V123H58.1384Z" fill="#00239C"/>
<path d="M79.9582 123H76.8608L71.9221 114.635V123H68.9795V111H72.9288L77.0157 117.874V111H79.9582V123Z" fill="#00239C"/>
<path d="M94 117.012C94 118.13 93.739 119.132 93.217 120.018C92.6951 120.899 92.0354 121.576 91.2381 122.049C90.5727 122.452 89.8471 122.713 89.0613 122.831C88.2812 122.944 87.4495 123 86.5661 123H82.5567V111H86.5317C87.4323 111 88.2755 111.054 89.0613 111.161C89.8471 111.269 90.5842 111.529 91.2725 111.943C92.1157 112.448 92.7811 113.13 93.2687 113.99C93.7562 114.844 94 115.852 94 117.012ZM90.6961 116.988C90.6961 116.198 90.5498 115.524 90.2573 114.965C89.9705 114.401 89.5259 113.96 88.9236 113.643C88.4877 113.418 88.0288 113.294 87.547 113.273C87.0709 113.251 86.5002 113.24 85.8348 113.24H85.7746V120.752H85.8348C86.5575 120.752 87.1655 120.741 87.6588 120.719C88.1579 120.692 88.6311 120.547 89.0785 120.284C89.6062 119.972 90.0077 119.543 90.2831 118.995C90.5584 118.447 90.6961 117.778 90.6961 116.988Z" fill="#00239C"/>
<path d="M34.6754 18.4956C34.6754 19.2256 34.5264 19.8668 34.2284 20.4192C33.9304 20.9716 33.5295 21.4286 33.0258 21.7903C32.4298 22.2244 31.7735 22.5334 31.0569 22.7176C30.3474 22.9017 29.4427 22.9938 28.343 22.9938H22V8.30579H27.598C28.7616 8.30579 29.6414 8.34854 30.2374 8.43403C30.8405 8.51294 31.4045 8.68393 31.9296 8.94698C32.4972 9.22975 32.9193 9.60789 33.196 10.0814C33.4798 10.5549 33.6217 11.1007 33.6217 11.7189C33.6217 12.4357 33.4266 13.0736 33.0364 13.6325C32.6533 14.1915 32.1211 14.6025 31.44 14.8656V14.9445C32.4191 15.1352 33.2031 15.5265 33.792 16.1183C34.3809 16.7036 34.6754 17.4961 34.6754 18.4956ZM29.5775 12.4587C29.5775 12.2219 29.5101 11.9786 29.3753 11.7287C29.2476 11.4788 29.0454 11.298 28.7687 11.1862C28.5062 11.081 28.194 11.0251 27.8322 11.0185C27.4774 11.0053 26.9453 10.9988 26.2358 10.9988H25.9591V14.106H26.4593C27.1404 14.106 27.6158 14.0994 27.8854 14.0863C28.1621 14.0731 28.4459 14.0041 28.7368 13.8791C29.0561 13.741 29.276 13.5503 29.3966 13.307C29.5172 13.0637 29.5775 12.7809 29.5775 12.4587ZM30.578 18.4266C30.578 17.9728 30.4786 17.6177 30.28 17.3612C30.0813 17.1048 29.7833 16.9108 29.386 16.7793C29.1447 16.6938 28.8113 16.6477 28.3856 16.6411C27.967 16.628 27.4029 16.6214 26.6934 16.6214H25.9591V20.3008H26.1719C27.2078 20.3008 27.9244 20.2942 28.3217 20.2811C28.719 20.2679 29.1235 20.1792 29.535 20.0147C29.8968 19.8701 30.1593 19.6596 30.3225 19.3834C30.4928 19.1007 30.578 18.7817 30.578 18.4266Z" fill="black"/>
<path d="M51.3949 15.6547C51.3949 18.0287 50.7102 19.8964 49.3409 21.2577C47.9715 22.6189 46.0949 23.2996 43.7109 23.2996C41.3199 23.2996 39.4433 22.6124 38.081 21.2379C36.7187 19.8569 36.0376 17.9959 36.0376 15.6547C36.0376 13.2939 36.7187 11.4295 38.081 10.0616C39.4433 8.68721 41.3199 8 43.7109 8C46.0949 8 47.9715 8.68393 49.3409 10.0518C50.7102 11.4131 51.3949 13.2807 51.3949 15.6547ZM47.2869 15.6449C47.2869 14.7702 47.1875 14.0271 46.9889 13.4155C46.7973 12.7974 46.5383 12.291 46.212 11.8964C45.8714 11.4953 45.4847 11.2092 45.0519 11.0382C44.6262 10.8607 44.1828 10.7719 43.7216 10.7719C43.232 10.7719 42.7886 10.8541 42.3913 11.0185C41.9939 11.1763 41.6108 11.4624 41.2419 11.8767C40.9155 12.2581 40.6494 12.7645 40.4437 13.3958C40.245 14.0271 40.1457 14.7801 40.1457 15.6547C40.1457 16.5557 40.2414 17.3053 40.433 17.9038C40.6246 18.4956 40.8871 18.9921 41.2206 19.3933C41.5611 19.801 41.9478 20.0937 42.3806 20.2712C42.8134 20.4422 43.2604 20.5277 43.7216 20.5277C44.1899 20.5277 44.6439 20.4356 45.0838 20.2515C45.5237 20.0608 45.9033 19.7681 46.2226 19.3736C46.5632 18.9461 46.8257 18.4496 47.0102 17.8841C47.1946 17.3119 47.2869 16.5655 47.2869 15.6449Z" fill="black"/>
<path d="M67.1673 22.9938H62.5484L59.5046 18.3082L56.3969 22.9938H51.9909L57.1313 15.5955L52.1931 8.30579H56.8014L59.6536 12.7349L62.5803 8.30579H66.997L62.0269 15.4476L67.1673 22.9938Z" fill="black"/>
<path d="M89.4955 15.6547C89.4955 18.0287 88.8108 19.8964 87.4415 21.2577C86.0721 22.6189 84.1955 23.2996 81.8115 23.2996C79.4205 23.2996 77.5438 22.6124 76.1816 21.2379C74.8193 19.8569 74.1382 17.9959 74.1382 15.6547C74.1382 13.2939 74.8193 11.4295 76.1816 10.0616C77.5438 8.68721 79.4205 8 81.8115 8C84.1955 8 86.0721 8.68393 87.4415 10.0518C88.8108 11.4131 89.4955 13.2807 89.4955 15.6547ZM85.3874 15.6449C85.3874 14.7702 85.2881 14.0271 85.0894 13.4155C84.8979 12.7974 84.6389 12.291 84.3125 11.8964C83.972 11.4953 83.5853 11.2092 83.1525 11.0382C82.7268 10.8607 82.2833 10.7719 81.8222 10.7719C81.3326 10.7719 80.8892 10.8541 80.4918 11.0185C80.0945 11.1763 79.7114 11.4624 79.3424 11.8767C79.0161 12.2581 78.75 12.7645 78.5442 13.3958C78.3456 14.0271 78.2462 14.7801 78.2462 15.6547C78.2462 16.5557 78.342 17.3053 78.5336 17.9038C78.7252 18.4956 78.9877 18.9921 79.3211 19.3933C79.6617 19.801 80.0484 20.0937 80.4812 20.2712C80.914 20.4422 81.361 20.5277 81.8222 20.5277C82.2904 20.5277 82.7445 20.4356 83.1844 20.2515C83.6243 20.0608 84.0039 19.7681 84.3232 19.3736C84.6637 18.9461 84.9263 18.4496 85.1107 17.8841C85.2952 17.3119 85.3874 16.5655 85.3874 15.6449Z" fill="black"/>
<path d="M102.469 11.1073H95.8172V13.8791H101.937V16.6806H95.8172V22.9938H91.8582V8.30579H102.469V11.1073Z" fill="black"/>
<path d="M115.134 11.1073H108.482V13.8791H114.601V16.6806H108.482V22.9938H104.523V8.30579H115.134V11.1073Z" fill="black"/>
<path d="M125.084 22.9938H116.549V20.4291H118.827V10.8705H116.549V8.30579H125.084V10.8705H122.807V20.4291H125.084V22.9938Z" fill="black"/>
<path d="M134.556 23.2798C132.179 23.2798 130.292 22.6156 128.894 21.2872C127.497 19.9523 126.798 18.0781 126.798 15.6646C126.798 13.3366 127.497 11.4821 128.894 10.1011C130.299 8.71352 132.19 8.01973 134.567 8.01973C135.198 8.01973 135.766 8.05261 136.27 8.11837C136.774 8.18413 137.256 8.2762 137.717 8.39457C138.079 8.49322 138.473 8.62803 138.899 8.79901C139.324 8.96999 139.668 9.11796 139.931 9.24291V12.7447H139.526C139.335 12.5869 139.094 12.3995 138.803 12.1825C138.512 11.9589 138.182 11.7419 137.813 11.5314C137.444 11.321 137.036 11.1434 136.589 10.9988C136.149 10.8475 135.688 10.7719 135.206 10.7719C134.631 10.7719 134.102 10.8574 133.62 11.0283C133.144 11.1928 132.69 11.4821 132.258 11.8964C131.86 12.2713 131.534 12.7776 131.278 13.4155C131.03 14.0534 130.906 14.8064 130.906 15.6744C130.906 16.5885 131.037 17.358 131.3 17.9827C131.562 18.6009 131.906 19.1007 132.332 19.4821C132.744 19.8503 133.201 20.1167 133.705 20.2811C134.216 20.4455 134.723 20.5277 135.227 20.5277C135.752 20.5277 136.252 20.4488 136.727 20.291C137.203 20.1265 137.604 19.9457 137.93 19.7484C138.285 19.5445 138.597 19.3374 138.867 19.127C139.136 18.9165 139.37 18.7291 139.569 18.5647H139.931V22.0172C139.64 22.1422 139.303 22.2868 138.92 22.4512C138.537 22.6091 138.143 22.7439 137.738 22.8557C137.242 22.9938 136.777 23.099 136.344 23.1713C135.912 23.2437 135.316 23.2798 134.556 23.2798Z" fill="black"/>
<path d="M142.283 22.9938V8.30579H153V11.1073H146.242V13.6819H152.468V16.4833H146.242V20.1923H153V22.9938H142.283Z" fill="black"/>
<path d="M70.988 39.4624C70.988 40.1003 70.8709 40.702 70.6368 41.2676C70.4026 41.8266 70.0479 42.3033 69.5725 42.6979C69.0404 43.1451 68.4125 43.4739 67.6888 43.6843C66.9651 43.8948 66.1314 44 65.1877 44C64.4853 44 63.8255 43.9737 63.2082 43.9211C62.591 43.8751 62.0482 43.806 61.5799 43.7139V40.7349H61.9418C62.261 40.8533 62.5945 40.9651 62.9422 41.0703C63.2898 41.1689 63.7368 41.2183 64.2831 41.2183C64.9855 41.2183 65.5248 41.1262 65.9008 40.9421C66.2839 40.7579 66.5536 40.5015 66.7096 40.1726C66.8728 39.8504 66.9615 39.4788 66.9757 39.058C66.997 38.6305 67.0076 38.157 67.0076 37.6375V31.7485H63.3785V29.0851H70.988V39.4624Z" fill="#7F170E"/>
<path d="M74.0743 43.7731V29.0851H84.7915V31.8866H78.0334V34.4612H84.2593V37.2627H78.0334V40.9717H84.7915V43.7731H74.0743Z" fill="#7F170E"/>
<path d="M101.639 36.4439C101.639 37.8118 101.316 39.0382 100.67 40.1233C100.025 41.2018 99.2087 42.0304 98.2224 42.6091C97.3994 43.1023 96.5019 43.4213 95.5299 43.566C94.5649 43.7041 93.5361 43.7731 92.4435 43.7731H87.484V29.0851H92.4009C93.5149 29.0851 94.5578 29.1509 95.5299 29.2824C96.5019 29.4139 97.4136 29.7329 98.265 30.2393C99.308 30.8574 100.131 31.6926 100.734 32.7448C101.337 33.7904 101.639 35.0235 101.639 36.4439ZM97.552 36.4143C97.552 35.4476 97.371 34.6223 97.0092 33.9384C96.6544 33.2479 96.1046 32.7086 95.3596 32.3206C94.8203 32.0444 94.2527 31.8932 93.6568 31.8669C93.0679 31.8406 92.3619 31.8274 91.5389 31.8274H91.4644V41.021H91.5389C92.4329 41.021 93.1849 41.0078 93.7951 40.9815C94.4124 40.9486 94.9977 40.7711 95.5511 40.4488C96.2039 40.0674 96.7005 39.5413 97.0411 38.8705C97.3817 38.1998 97.552 37.381 97.552 36.4143Z" fill="#7F170E"/>
<path d="M111.898 43.7731H103.363V41.2084H105.64V31.6499H103.363V29.0851H111.898V31.6499H109.621V41.2084H111.898V43.7731Z" fill="#7F170E"/>
<path d="M17.1833 139L12.7452 145.987V151H9.51585V146.14L5 139H8.6783L11.1996 143.287L13.6259 139H17.1833Z" fill="#00239C"/>
<path d="M18.3576 151V139H27.0525V141.289H21.5696V143.392H26.6208V145.681H21.5696V148.711H27.0525V151H18.3576Z" fill="#00239C"/>
<path d="M27.8556 151L32.1987 139H35.7216L40.0648 151H36.7405L35.9375 148.55H31.8965L31.0935 151H27.8556ZM35.2294 146.374L33.917 142.417L32.6045 146.374H35.2294Z" fill="#00239C"/>
<path d="M53.2324 151H49.2951L45.7117 146.6H44.5547V151H41.3427V139H46.5147C47.2285 139 47.8502 139.043 48.3798 139.129C48.9094 139.21 49.3987 139.381 49.8477 139.645C50.3082 139.919 50.6737 140.268 50.9442 140.692C51.2148 141.111 51.3501 141.646 51.3501 142.296C51.3501 143.215 51.1285 143.962 50.6852 144.537C50.242 145.106 49.6491 145.56 48.9065 145.899L53.2324 151ZM48.0344 142.675C48.0344 142.374 47.9711 142.116 47.8445 141.901C47.7236 141.681 47.5192 141.512 47.2314 141.394C47.0299 141.313 46.8054 141.262 46.5579 141.24C46.3104 141.219 46.0024 141.208 45.634 141.208H44.5547V144.44H45.4786C45.9276 144.44 46.3075 144.416 46.6184 144.367C46.935 144.314 47.2026 144.203 47.4214 144.037C47.6286 143.887 47.7811 143.707 47.879 143.497C47.9826 143.287 48.0344 143.013 48.0344 142.675Z" fill="#00239C"/>
<path d="M62.7735 151H54.1908V139H57.4201V148.711H62.7735V151Z" fill="#00239C"/>
<path d="M75 139L70.5619 145.987V151H67.3326V146.14L62.8167 139H66.495L69.0163 143.287L71.4426 139H75Z" fill="#00239C"/>
<path d="M5 179L9.40722 167H12.9821L17.3893 179H14.016L13.2011 176.55H9.10055L8.2857 179H5ZM12.4826 174.374L11.1508 170.417L9.81903 174.374H12.4826Z" fill="#00239C"/>
<path d="M27.3953 179H18.686V167H21.963V176.711H27.3953V179Z" fill="#00239C"/>
<path d="M37.6642 179H28.9549V167H32.2319V176.711H37.6642V179Z" fill="#00239C"/>
<path d="M46.9869 179V169.289H43.1316V167H54.119V169.289H50.2638V179H46.9869Z" fill="#00239C"/>
<path d="M61.9696 179H54.9426V176.905H56.8177V169.095H54.9426V167H61.9696V169.095H60.0946V176.905H61.9696V179Z" fill="#00239C"/>
<path d="M77.4694 179H74.21V171.046L71.8355 176.179H69.6012L67.2268 171.046V179H64.1426V167H67.919L70.8104 172.923L73.693 167H77.4694V179Z" fill="#00239C"/>
<path d="M80.1768 179V167H89V169.289H83.4362V171.392H88.5619V173.681H83.4362V176.711H89V179H80.1768Z" fill="#00239C"/>
<path d="M20.1319 376.64H15.6297V368.981H9.50226V376.64H5V359.36H9.50226V365.685H15.6297V359.36H20.1319V376.64Z" fill="#00239C"/>
<path d="M40.1754 368.006C40.1754 370.799 39.4009 372.996 37.852 374.598C36.3031 376.199 34.1804 377 31.4839 377C28.7793 377 26.6566 376.191 25.1157 374.574C23.5748 372.95 22.8044 370.76 22.8044 368.006C22.8044 365.228 23.5748 363.035 25.1157 361.426C26.6566 359.809 28.7793 359 31.4839 359C34.1804 359 36.3031 359.805 37.852 361.414C39.4009 363.015 40.1754 365.213 40.1754 368.006ZM35.5287 367.994C35.5287 366.965 35.4163 366.091 35.1916 365.371C34.9749 364.644 34.682 364.048 34.3128 363.584C33.9276 363.112 33.4902 362.776 33.0007 362.574C32.5191 362.366 32.0176 362.261 31.4959 362.261C30.9421 362.261 30.4406 362.358 29.9911 362.551C29.5417 362.737 29.1083 363.074 28.691 363.561C28.3219 364.01 28.0209 364.605 27.7882 365.348C27.5635 366.091 27.4511 366.977 27.4511 368.006C27.4511 369.066 27.5594 369.948 27.7761 370.652C27.9928 371.348 28.2898 371.932 28.6669 372.404C29.0522 372.884 29.4896 373.228 29.9791 373.437C30.4687 373.638 30.9743 373.739 31.4959 373.739C32.0256 373.739 32.5392 373.631 33.0368 373.414C33.5344 373.19 33.9637 372.845 34.3249 372.381C34.7101 371.878 35.007 371.294 35.2157 370.629C35.4243 369.956 35.5287 369.077 35.5287 367.994Z" fill="#00239C"/>
<path d="M61.1578 376.64H56.6797V365.186L53.4173 372.578H50.3476L47.0853 365.186V376.64H42.8479V359.36H48.0363L52.0089 367.89L55.9694 359.36H61.1578V376.64Z" fill="#00239C"/>
<path d="M64.8776 376.64V359.36H77V362.656H69.3558V365.685H76.3981V368.981H69.3558V373.344H77V376.64H64.8776Z" fill="#00239C"/>
<path d="M16.1781 336.504C16.1781 337.668 15.9232 338.711 15.4133 339.635C14.9034 340.552 14.2591 341.257 13.4803 341.75C12.8303 342.169 12.1215 342.44 11.3539 342.564C10.5919 342.681 9.77942 342.74 8.91655 342.74H5V330.243H8.88293C9.76261 330.243 10.5863 330.299 11.3539 330.411C12.1215 330.523 12.8415 330.794 13.5139 331.225C14.3375 331.751 14.9875 332.462 15.4637 333.357C15.94 334.247 16.1781 335.296 16.1781 336.504ZM12.9508 336.479C12.9508 335.657 12.8079 334.954 12.5221 334.372C12.242 333.785 11.8077 333.326 11.2194 332.996C10.7936 332.761 10.3453 332.632 9.87467 332.61C9.40962 332.588 8.85211 332.577 8.20216 332.577H8.14332V340.398H8.20216C8.90814 340.398 9.50207 340.387 9.98393 340.365C10.4714 340.337 10.9337 340.186 11.3707 339.912C11.8862 339.587 12.2784 339.139 12.5473 338.569C12.8163 337.998 12.9508 337.301 12.9508 336.479Z" fill="#00239C"/>
<path d="M18.044 342.74V330.243H26.5074V332.627H21.1705V334.817H26.0872V337.201H21.1705V340.356H26.5074V342.74H18.044Z" fill="#00239C"/>
<path d="M40.2069 342.74H36.3744L32.8865 338.158H31.7603V342.74H28.6338V330.243H33.6681C34.3629 330.243 34.968 330.288 35.4835 330.378C35.999 330.462 36.4753 330.641 36.9123 330.915C37.3606 331.2 37.7163 331.564 37.9797 332.006C38.243 332.442 38.3747 332.999 38.3747 333.676C38.3747 334.633 38.159 335.41 37.7276 336.009C37.2961 336.602 36.719 337.075 35.9962 337.427L40.2069 342.74ZM35.1473 334.07C35.1473 333.757 35.0857 333.488 34.9624 333.265C34.8448 333.035 34.6459 332.859 34.3657 332.736C34.1696 332.652 33.9511 332.599 33.7102 332.577C33.4692 332.554 33.1695 332.543 32.8109 332.543H31.7603V335.908H32.6596C33.0966 335.908 33.4664 335.883 33.769 335.833C34.0772 335.777 34.3377 335.662 34.5506 335.489C34.7523 335.332 34.9008 335.145 34.9961 334.926C35.0969 334.708 35.1473 334.423 35.1473 334.07Z" fill="#00239C"/>
<path d="M51.1497 338.913C51.1497 339.534 51.0321 340.079 50.7967 340.549C50.5614 341.019 50.2448 341.408 49.847 341.716C49.3763 342.085 48.8581 342.348 48.2922 342.505C47.7318 342.662 47.0175 342.74 46.149 342.74H41.1398V330.243H45.5607C46.4796 330.243 47.1743 330.28 47.645 330.352C48.1213 330.42 48.5667 330.565 48.9813 330.789C49.4296 331.029 49.763 331.351 49.9815 331.754C50.2056 332.157 50.3177 332.621 50.3177 333.147C50.3177 333.757 50.1636 334.3 49.8554 334.775C49.5528 335.251 49.1326 335.601 48.5947 335.824V335.892C49.3679 336.054 49.9871 336.387 50.4521 336.89C50.9172 337.388 51.1497 338.062 51.1497 338.913ZM47.1239 333.777C47.1239 333.575 47.0707 333.368 46.9642 333.156C46.8634 332.943 46.7037 332.789 46.4852 332.694C46.2778 332.604 46.0313 332.557 45.7456 332.551C45.4654 332.54 45.0452 332.535 44.4849 332.535H44.2663V335.178H44.6614C45.1993 335.178 45.5747 335.173 45.7876 335.161C46.0061 335.15 46.2302 335.091 46.4599 334.985C46.7121 334.868 46.8858 334.705 46.981 334.498C47.0763 334.291 47.1239 334.051 47.1239 333.777ZM47.9139 338.854C47.9139 338.468 47.8355 338.166 47.6786 337.948C47.5217 337.73 47.2864 337.564 46.9726 337.453C46.7821 337.38 46.5188 337.341 46.1826 337.335C45.852 337.324 45.4066 337.318 44.8463 337.318H44.2663V340.449H44.4344C45.2525 340.449 45.8184 340.443 46.1322 340.432C46.4459 340.421 46.7653 340.345 47.0903 340.205C47.376 340.082 47.5834 339.903 47.7122 339.668C47.8467 339.428 47.9139 339.156 47.9139 338.854Z" fill="#00239C"/>
<path d="M63.3616 330.243L59.0416 337.52V342.74H55.8983V337.679L51.5027 330.243H55.0831L57.5372 334.708L59.8989 330.243H63.3616Z" fill="#00239C"/>
<path d="M80.0027 342.026C79.4536 342.25 78.7393 342.468 77.8596 342.681C76.9855 342.894 76.1226 343 75.271 343C73.3043 343 71.7354 342.435 70.5644 341.305C69.3989 340.169 68.8162 338.56 68.8162 336.479C68.8162 334.521 69.3989 332.951 70.5644 331.771C71.7354 330.59 73.3351 330 75.3634 330C76.4112 330 77.2628 330.101 77.9184 330.302C78.574 330.498 79.2519 330.767 79.9523 331.108V334.037H79.6666C79.5153 333.919 79.2968 333.754 79.011 333.542C78.7309 333.323 78.4563 333.139 78.1874 332.988C77.8736 332.809 77.5094 332.655 77.0948 332.526C76.6857 332.397 76.2515 332.333 75.792 332.333C75.2541 332.333 74.7639 332.417 74.3212 332.585C73.8786 332.753 73.4836 333.01 73.1362 333.357C72.8056 333.693 72.5423 334.118 72.3461 334.633C72.1556 335.147 72.0604 335.746 72.0604 336.429C72.0604 337.889 72.4274 338.966 73.1614 339.66C73.8954 340.354 74.8983 340.7 76.1702 340.7C76.2823 340.7 76.414 340.698 76.5653 340.692C76.7165 340.686 76.8482 340.678 76.9603 340.667V338.216H74.5313V335.875H80.0027V342.026Z" fill="#00239C"/>
<path d="M81.0281 342.74L85.2556 330.243H88.6847L92.9122 342.74H89.6765L88.8948 340.189H84.9615L84.1798 342.74H81.0281ZM88.2057 337.923L86.9281 333.802L85.6506 337.923H88.2057Z" fill="#00239C"/>
<path d="M106.94 342.74H103.813V334.456L101.535 339.802H99.3922L97.1145 334.456V342.74H94.1561V330.243H97.7785L100.552 336.412L103.317 330.243H106.94V342.74Z" fill="#00239C"/>
<path d="M109.537 342.74V330.243H118V332.627H112.663V334.817H117.58V337.201H112.663V340.356H118V342.74H109.537Z" fill="#00239C"/>
<path d="M8.82781 229.76V220.437H5V218.24H15.9093V220.437H12.0815V229.76H8.82781Z" fill="#00239C"/>
<path d="M28.1844 229.76H24.9307V224.654H20.5026V229.76H17.249V218.24H20.5026V222.456H24.9307V218.24H28.1844V229.76Z" fill="#00239C"/>
<path d="M30.8725 229.76V218.24H39.633V220.437H34.1088V222.456H39.198V224.654H34.1088V227.563H39.633V229.76H30.8725Z" fill="#00239C"/>
<path d="M55.7272 220.437H50.29V222.611H55.2922V224.809H50.29V229.76H47.0537V218.24H55.7272V220.437Z" fill="#00239C"/>
<path d="M69.2029 224.004C69.2029 225.866 68.6432 227.331 67.5238 228.398C66.4045 229.466 64.8705 230 62.9218 230C60.9673 230 59.4332 229.461 58.3197 228.383C57.2061 227.3 56.6494 225.84 56.6494 224.004C56.6494 222.152 57.2061 220.69 58.3197 219.617C59.4332 218.539 60.9673 218 62.9218 218C64.8705 218 66.4045 218.536 67.5238 219.609C68.6432 220.677 69.2029 222.142 69.2029 224.004ZM65.8448 223.996C65.8448 223.31 65.7636 222.727 65.6012 222.248C65.4446 221.763 65.233 221.366 64.9662 221.056C64.6878 220.741 64.3717 220.517 64.0179 220.383C63.6699 220.244 63.3075 220.174 62.9305 220.174C62.5303 220.174 62.1678 220.239 61.843 220.368C61.5182 220.491 61.2051 220.716 60.9035 221.041C60.6367 221.34 60.4192 221.737 60.251 222.232C60.0886 222.727 60.0074 223.318 60.0074 224.004C60.0074 224.711 60.0857 225.299 60.2423 225.768C60.3989 226.232 60.6135 226.622 60.8861 226.936C61.1645 227.256 61.4805 227.485 61.8343 227.625C62.1881 227.759 62.5535 227.826 62.9305 227.826C63.3133 227.826 63.6844 227.754 64.044 227.609C64.4036 227.46 64.7139 227.23 64.9749 226.921C65.2533 226.585 65.4678 226.196 65.6186 225.752C65.7694 225.304 65.8448 224.718 65.8448 223.996Z" fill="#00239C"/>
<path d="M83.1135 229.76H79.1465L75.5362 225.536H74.3704V229.76H71.1342V218.24H76.3452C77.0644 218.24 77.6907 218.281 78.2243 218.364C78.7579 218.441 79.2509 218.606 79.7033 218.859C80.1672 219.122 80.5355 219.457 80.8081 219.865C81.0807 220.267 81.217 220.78 81.217 221.404C81.217 222.286 80.9937 223.003 80.5471 223.555C80.1005 224.102 79.5032 224.538 78.755 224.863L83.1135 229.76ZM77.8763 221.768C77.8763 221.479 77.8125 221.231 77.6849 221.025C77.5632 220.814 77.3573 220.651 77.0673 220.538C76.8643 220.46 76.6381 220.411 76.3887 220.391C76.1393 220.37 75.829 220.36 75.4579 220.36H74.3704V223.462H75.3013C75.7536 223.462 76.1364 223.439 76.4496 223.393C76.7686 223.341 77.0383 223.235 77.2587 223.075C77.4675 222.931 77.6212 222.758 77.7197 222.557C77.8241 222.356 77.8763 222.093 77.8763 221.768Z" fill="#00239C"/>
<path d="M84.0791 229.76V218.24H92.8396V220.437H87.3154V222.456H92.4046V224.654H87.3154V227.563H92.8396V229.76H84.0791Z" fill="#00239C"/>
<path d="M100.626 229.985C98.6828 229.985 97.1401 229.464 95.9976 228.422C94.855 227.375 94.2837 225.905 94.2837 224.012C94.2837 222.186 94.855 220.731 95.9976 219.648C97.1459 218.56 98.6915 218.015 100.634 218.015C101.151 218.015 101.615 218.041 102.026 218.093C102.438 218.144 102.833 218.217 103.21 218.309C103.505 218.387 103.827 218.493 104.175 218.627C104.523 218.761 104.804 218.877 105.019 218.975V221.721H104.688C104.532 221.598 104.335 221.451 104.097 221.28C103.859 221.105 103.589 220.935 103.288 220.77C102.986 220.605 102.653 220.466 102.287 220.352C101.928 220.233 101.551 220.174 101.156 220.174C100.687 220.174 100.255 220.241 99.8602 220.375C99.4716 220.504 99.1004 220.731 98.7466 221.056C98.4218 221.35 98.155 221.747 97.9463 222.248C97.7433 222.748 97.6418 223.338 97.6418 224.019C97.6418 224.736 97.7491 225.34 97.9637 225.83C98.1782 226.315 98.4595 226.707 98.8075 227.006C99.1439 227.295 99.518 227.504 99.9298 227.632C100.347 227.761 100.762 227.826 101.174 227.826C101.603 227.826 102.012 227.764 102.4 227.64C102.789 227.511 103.117 227.369 103.383 227.215C103.673 227.055 103.929 226.892 104.149 226.727C104.369 226.562 104.561 226.415 104.723 226.286H105.019V228.994C104.781 229.092 104.506 229.206 104.193 229.335C103.879 229.458 103.557 229.564 103.227 229.652C102.821 229.76 102.441 229.843 102.087 229.899C101.733 229.956 101.246 229.985 100.626 229.985Z" fill="#00239C"/>
<path d="M105.55 229.76L109.926 218.24H113.475L117.851 229.76H114.502L113.692 227.408H109.621L108.812 229.76H105.55ZM112.979 225.319L111.657 221.52L110.334 225.319H112.979Z" fill="#00239C"/>
<path d="M123.14 229.969C122.148 229.969 121.276 229.884 120.522 229.714C119.773 229.544 119.078 229.332 118.434 229.079V226.34H118.73C119.379 226.83 120.095 227.207 120.878 227.47C121.661 227.733 122.421 227.865 123.158 227.865C123.343 227.865 123.587 227.847 123.888 227.81C124.196 227.774 124.442 227.718 124.628 227.64C124.854 227.553 125.045 227.431 125.202 227.277C125.359 227.117 125.437 226.908 125.437 226.65C125.437 226.361 125.309 226.126 125.054 225.946C124.799 225.765 124.494 225.634 124.141 225.551C123.7 225.448 123.227 225.35 122.723 225.257C122.224 225.164 121.757 225.051 121.322 224.917C120.319 224.602 119.6 224.179 119.165 223.648C118.73 223.117 118.512 222.451 118.512 221.652C118.512 220.574 119.025 219.702 120.052 219.037C121.078 218.366 122.36 218.031 123.897 218.031C124.668 218.031 125.434 218.101 126.194 218.24C126.959 218.379 127.644 218.567 128.247 218.805V221.435H127.96C127.478 221.069 126.89 220.76 126.194 220.507C125.504 220.254 124.793 220.128 124.062 220.128C123.778 220.128 123.523 220.146 123.297 220.182C123.071 220.218 122.833 220.288 122.583 220.391C122.38 220.473 122.204 220.597 122.053 220.762C121.908 220.922 121.835 221.103 121.835 221.304C121.835 221.598 121.951 221.832 122.183 222.008C122.421 222.178 122.876 222.333 123.549 222.472C123.984 222.56 124.402 222.645 124.802 222.727C125.208 222.81 125.64 222.923 126.098 223.068C126.997 223.357 127.664 223.746 128.099 224.236C128.54 224.721 128.76 225.363 128.76 226.162C128.76 227.308 128.253 228.228 127.238 228.925C126.229 229.621 124.863 229.969 123.14 229.969Z" fill="#00239C"/>
<path d="M132.919 229.76V220.437H129.091V218.24H140V220.437H136.172V229.76H132.919Z" fill="#00239C"/>
<path d="M16.1416 285.79H12.452L9.09415 281.544H8.00993V285.79H5V274.21H9.84663C10.5155 274.21 11.0981 274.251 11.5943 274.334C12.0906 274.412 12.5491 274.578 12.9698 274.832C13.4014 275.097 13.7439 275.434 13.9974 275.843C14.251 276.248 14.3777 276.763 14.3777 277.391C14.3777 278.277 14.17 278.998 13.7547 279.553C13.3393 280.102 12.7837 280.541 12.0879 280.867L16.1416 285.79ZM11.2707 277.756C11.2707 277.466 11.2114 277.217 11.0927 277.01C10.9794 276.797 10.7879 276.634 10.5182 276.52C10.3294 276.442 10.119 276.393 9.88709 276.372C9.65514 276.351 9.36656 276.341 9.02133 276.341H8.00993V279.459H8.87569C9.29643 279.459 9.65245 279.436 9.94373 279.39C10.2404 279.338 10.4912 279.231 10.6962 279.071C10.8904 278.925 11.0333 278.752 11.125 278.55C11.2221 278.347 11.2707 278.083 11.2707 277.756Z" fill="#00239C"/>
<path d="M17.0397 285.79V274.21H25.1876V276.419H20.0497V278.448H24.783V280.657H20.0497V283.581H25.1876V285.79H17.0397Z" fill="#00239C"/>
<path d="M35.2773 285.79H27.2346V274.21H30.2608V283.581H35.2773V285.79Z" fill="#00239C"/>
<path d="M36.7175 285.79V274.21H44.8654V276.419H39.7275V278.448H44.4608V280.657H39.7275V283.581H44.8654V285.79H36.7175Z" fill="#00239C"/>
<path d="M45.6179 285.79L49.6878 274.21H52.989L57.0588 285.79H53.9437L53.1912 283.426H49.4046L48.6521 285.79H45.6179ZM52.5278 281.326L51.2979 277.507L50.068 281.326H52.5278Z" fill="#00239C"/>
<path d="M61.9783 286C61.0559 286 60.2441 285.914 59.5428 285.743C58.847 285.572 58.1997 285.36 57.601 285.106V282.353H57.8761C58.4802 282.845 59.1464 283.224 59.8746 283.488C60.6028 283.752 61.3094 283.885 61.9945 283.885C62.1671 283.885 62.3936 283.866 62.6741 283.83C62.96 283.794 63.1893 283.737 63.3619 283.659C63.5723 283.571 63.7503 283.449 63.8959 283.294C64.0416 283.133 64.1144 282.923 64.1144 282.664C64.1144 282.373 63.9957 282.137 63.7584 281.956C63.521 281.774 63.2378 281.642 62.9088 281.559C62.4988 281.456 62.0592 281.357 61.5899 281.264C61.126 281.17 60.6918 281.056 60.2872 280.922C59.3541 280.605 58.6852 280.18 58.2806 279.646C57.8761 279.112 57.6738 278.443 57.6738 277.64C57.6738 276.556 58.1512 275.68 59.1059 275.011C60.0607 274.337 61.2528 274 62.6822 274C63.3997 274 64.1117 274.07 64.8183 274.21C65.5303 274.35 66.1669 274.539 66.7278 274.778V277.422H66.4608C66.0131 277.054 65.4656 276.743 64.8183 276.489C64.1764 276.235 63.5156 276.108 62.836 276.108C62.5717 276.108 62.3343 276.126 62.1239 276.162C61.9136 276.198 61.6924 276.268 61.4605 276.372C61.2717 276.455 61.1071 276.579 60.9669 276.745C60.832 276.906 60.7646 277.087 60.7646 277.29C60.7646 277.585 60.8725 277.821 61.0883 277.997C61.3094 278.169 61.7329 278.324 62.3586 278.464C62.7631 278.552 63.1515 278.638 63.5237 278.721C63.9013 278.804 64.3032 278.918 64.7293 279.063C65.5654 279.353 66.1857 279.745 66.5903 280.237C67.0002 280.725 67.2052 281.37 67.2052 282.174C67.2052 283.325 66.7332 284.25 65.7893 284.95C64.8507 285.65 63.5804 286 61.9783 286Z" fill="#00239C"/>
<path d="M68.7587 285.79V274.21H76.9066V276.419H71.7687V278.448H76.502V280.657H71.7687V283.581H76.9066V285.79H68.7587Z" fill="#00239C"/>
<path d="M94.5697 280.012C94.5697 281.09 94.3243 282.057 93.8334 282.913C93.3425 283.763 92.7222 284.416 91.9724 284.872C91.3467 285.261 90.6643 285.513 89.9253 285.627C89.1917 285.736 88.4096 285.79 87.5789 285.79H83.8084V274.21H87.5465C88.3934 274.21 89.1863 274.262 89.9253 274.366C90.6643 274.469 91.3575 274.721 92.0048 275.12C92.7977 275.607 93.4234 276.266 93.8819 277.095C94.3404 277.92 94.5697 278.892 94.5697 280.012ZM91.4627 279.988C91.4627 279.226 91.3251 278.576 91.05 278.036C90.7803 277.492 90.3623 277.067 89.7959 276.761C89.3859 276.543 88.9544 276.424 88.5013 276.403C88.0536 276.382 87.5169 276.372 86.8911 276.372H86.8345V283.62H86.8911C87.5708 283.62 88.1426 283.61 88.6065 283.589C89.0758 283.563 89.5208 283.423 89.9415 283.169C90.4378 282.868 90.8154 282.454 91.0743 281.925C91.3332 281.396 91.4627 280.75 91.4627 279.988Z" fill="#00239C"/>
<path d="M95.0714 285.79L99.1412 274.21H102.442L106.512 285.79H103.397L102.645 283.426H98.858L98.1056 285.79H95.0714ZM101.981 281.326L100.751 277.507L99.5215 281.326H101.981Z" fill="#00239C"/>
<path d="M110.024 285.79V276.419H106.464V274.21H116.61V276.419H113.05V285.79H110.024Z" fill="#00239C"/>
<path d="M117.856 285.79V274.21H126.004V276.419H120.866V278.448H125.599V280.657H120.866V283.581H126.004V285.79H117.856Z" fill="#00239C"/>
<path d="M131.773 286C130.851 286 130.039 285.914 129.338 285.743C128.642 285.572 127.994 285.36 127.396 285.106V282.353H127.671C128.275 282.845 128.941 283.224 129.669 283.488C130.398 283.752 131.104 283.885 131.789 283.885C131.962 283.885 132.188 283.866 132.469 283.83C132.755 283.794 132.984 283.737 133.157 283.659C133.367 283.571 133.545 283.449 133.691 283.294C133.836 283.133 133.909 282.923 133.909 282.664C133.909 282.373 133.79 282.137 133.553 281.956C133.316 281.774 133.033 281.642 132.704 281.559C132.294 281.456 131.854 281.357 131.385 281.264C130.921 281.17 130.487 281.056 130.082 280.922C129.149 280.605 128.48 280.18 128.075 279.646C127.671 279.112 127.469 278.443 127.469 277.64C127.469 276.556 127.946 275.68 128.901 275.011C129.855 274.337 131.048 274 132.477 274C133.194 274 133.906 274.07 134.613 274.21C135.325 274.35 135.962 274.539 136.523 274.778V277.422H136.256C135.808 277.054 135.26 276.743 134.613 276.489C133.971 276.235 133.31 276.108 132.631 276.108C132.366 276.108 132.129 276.126 131.919 276.162C131.708 276.198 131.487 276.268 131.255 276.372C131.066 276.455 130.902 276.579 130.762 276.745C130.627 276.906 130.559 277.087 130.559 277.29C130.559 277.585 130.667 277.821 130.883 277.997C131.104 278.169 131.528 278.324 132.153 278.464C132.558 278.552 132.946 278.638 133.318 278.721C133.696 278.804 134.098 278.918 134.524 279.063C135.36 279.353 135.981 279.745 136.385 280.237C136.795 280.725 137 281.37 137 282.174C137 283.325 136.528 284.25 135.584 284.95C134.645 285.65 133.375 286 131.773 286Z" fill="#00239C"/>
</g>
<defs>
<clipPath id="clip0_8505_138">
<rect width="176" height="386" fill="white"/>
</clipPath>
</defs>
</svg>
